G04 #@! TF.GenerationSoftware,KiCad,Pcbnew,(5.1.2)-2*
G04 #@! TF.CreationDate,2020-04-17T14:25:19-07:00*
G04 #@! TF.ProjectId,panel,70616e65-6c2e-46b6-9963-61645f706362,rev?*
G04 #@! TF.SameCoordinates,Original*
G04 #@! TF.FileFunction,Soldermask,Top*
G04 #@! TF.FilePolarity,Negative*
%FSLAX46Y46*%
G04 Gerber Fmt 4.6, Leading zero omitted, Abs format (unit mm)*
G04 Created by KiCad (PCBNEW (5.1.2)-2) date 2020-04-17 14:25:19*
%MOMM*%
%LPD*%
G04 APERTURE LIST*
%ADD10C,0.010000*%
%ADD11C,0.100000*%
%ADD12C,3.600000*%
G04 APERTURE END LIST*
D10*
G36*
X-341424Y-56700263D02*
G01*
X-238771Y-56717271D01*
X-147911Y-56749473D01*
X-56917Y-56803482D01*
X46138Y-56885906D01*
X127994Y-56960434D01*
X207906Y-57033924D01*
X270330Y-57082993D01*
X330269Y-57114416D01*
X402725Y-57134972D01*
X502700Y-57151437D01*
X571416Y-57160747D01*
X667059Y-57190592D01*
X722891Y-57247664D01*
X736600Y-57309140D01*
X719895Y-57349556D01*
X675697Y-57413001D01*
X612876Y-57487034D01*
X599695Y-57501135D01*
X531627Y-57574279D01*
X493948Y-57621824D01*
X481475Y-57654436D01*
X489022Y-57682778D01*
X501559Y-57703000D01*
X532401Y-57785795D01*
X537823Y-57888037D01*
X518064Y-57985328D01*
X498409Y-58025118D01*
X418715Y-58107872D01*
X316698Y-58159090D01*
X206688Y-58175120D01*
X103014Y-58152312D01*
X70400Y-58134159D01*
X39323Y-58116757D01*
X10624Y-58116145D01*
X-26361Y-58137506D01*
X-82299Y-58186026D01*
X-131465Y-58232295D01*
X-223613Y-58313041D01*
X-294160Y-58356356D01*
X-351910Y-58365502D01*
X-405666Y-58343746D01*
X-414826Y-58337366D01*
X-446128Y-58292697D01*
X-468846Y-58222140D01*
X-471853Y-58204016D01*
X-488871Y-58083612D01*
X-506495Y-57998493D01*
X-531630Y-57933536D01*
X-571178Y-57873616D01*
X-632045Y-57803611D01*
X-676287Y-57756206D01*
X-756054Y-57665260D01*
X-827145Y-57573514D01*
X-878048Y-57496213D01*
X-889956Y-57473244D01*
X-931568Y-57325208D01*
X-930907Y-57169649D01*
X-892983Y-57036008D01*
X-866017Y-56968758D01*
X-861843Y-56923924D01*
X-879703Y-56878909D01*
X-887263Y-56865429D01*
X-912165Y-56813974D01*
X-907499Y-56780616D01*
X-881949Y-56751062D01*
X-845720Y-56722078D01*
X-810312Y-56723667D01*
X-767685Y-56745412D01*
X-721042Y-56767526D01*
X-678912Y-56769569D01*
X-620683Y-56750438D01*
X-586216Y-56735714D01*
X-479401Y-56702056D01*
X-366232Y-56698062D01*
X-341424Y-56700263D01*
X-341424Y-56700263D01*
G37*
X-341424Y-56700263D02*
X-238771Y-56717271D01*
X-147911Y-56749473D01*
X-56917Y-56803482D01*
X46138Y-56885906D01*
X127994Y-56960434D01*
X207906Y-57033924D01*
X270330Y-57082993D01*
X330269Y-57114416D01*
X402725Y-57134972D01*
X502700Y-57151437D01*
X571416Y-57160747D01*
X667059Y-57190592D01*
X722891Y-57247664D01*
X736600Y-57309140D01*
X719895Y-57349556D01*
X675697Y-57413001D01*
X612876Y-57487034D01*
X599695Y-57501135D01*
X531627Y-57574279D01*
X493948Y-57621824D01*
X481475Y-57654436D01*
X489022Y-57682778D01*
X501559Y-57703000D01*
X532401Y-57785795D01*
X537823Y-57888037D01*
X518064Y-57985328D01*
X498409Y-58025118D01*
X418715Y-58107872D01*
X316698Y-58159090D01*
X206688Y-58175120D01*
X103014Y-58152312D01*
X70400Y-58134159D01*
X39323Y-58116757D01*
X10624Y-58116145D01*
X-26361Y-58137506D01*
X-82299Y-58186026D01*
X-131465Y-58232295D01*
X-223613Y-58313041D01*
X-294160Y-58356356D01*
X-351910Y-58365502D01*
X-405666Y-58343746D01*
X-414826Y-58337366D01*
X-446128Y-58292697D01*
X-468846Y-58222140D01*
X-471853Y-58204016D01*
X-488871Y-58083612D01*
X-506495Y-57998493D01*
X-531630Y-57933536D01*
X-571178Y-57873616D01*
X-632045Y-57803611D01*
X-676287Y-57756206D01*
X-756054Y-57665260D01*
X-827145Y-57573514D01*
X-878048Y-57496213D01*
X-889956Y-57473244D01*
X-931568Y-57325208D01*
X-930907Y-57169649D01*
X-892983Y-57036008D01*
X-866017Y-56968758D01*
X-861843Y-56923924D01*
X-879703Y-56878909D01*
X-887263Y-56865429D01*
X-912165Y-56813974D01*
X-907499Y-56780616D01*
X-881949Y-56751062D01*
X-845720Y-56722078D01*
X-810312Y-56723667D01*
X-767685Y-56745412D01*
X-721042Y-56767526D01*
X-678912Y-56769569D01*
X-620683Y-56750438D01*
X-586216Y-56735714D01*
X-479401Y-56702056D01*
X-366232Y-56698062D01*
X-341424Y-56700263D01*
G36*
X-11417965Y-56462541D02*
G01*
X-11320064Y-56510518D01*
X-11224775Y-56584341D01*
X-11139920Y-56677186D01*
X-11073324Y-56782226D01*
X-11032810Y-56892639D01*
X-11024158Y-56965264D01*
X-11044475Y-57044643D01*
X-11108015Y-57101988D01*
X-11216802Y-57139086D01*
X-11222307Y-57140211D01*
X-11287017Y-57159320D01*
X-11316457Y-57180027D01*
X-11306091Y-57195901D01*
X-11265064Y-57200800D01*
X-11205072Y-57206325D01*
X-11119212Y-57220692D01*
X-11022339Y-57240588D01*
X-10929305Y-57262698D01*
X-10854967Y-57283708D01*
X-10814179Y-57300304D01*
X-10812280Y-57301809D01*
X-10817710Y-57327413D01*
X-10854723Y-57371116D01*
X-10885686Y-57398852D01*
X-10941824Y-57448111D01*
X-10965655Y-57485976D01*
X-10964716Y-57532563D01*
X-10953620Y-57580108D01*
X-10941510Y-57646561D01*
X-10942574Y-57689372D01*
X-10946502Y-57695544D01*
X-10974975Y-57688916D01*
X-11039193Y-57662353D01*
X-11130121Y-57619911D01*
X-11238727Y-57565648D01*
X-11258158Y-57555612D01*
X-11380298Y-57493263D01*
X-11465672Y-57452903D01*
X-11521909Y-57431829D01*
X-11556638Y-57427337D01*
X-11577487Y-57436725D01*
X-11581514Y-57441031D01*
X-11597194Y-57479491D01*
X-11591197Y-57536614D01*
X-11561464Y-57618394D01*
X-11505932Y-57730822D01*
X-11442569Y-57845072D01*
X-11391957Y-57936225D01*
X-11352851Y-58011591D01*
X-11331036Y-58059787D01*
X-11328400Y-58069706D01*
X-11351564Y-58082162D01*
X-11415138Y-58081746D01*
X-11452770Y-58077461D01*
X-11528297Y-58069323D01*
X-11571913Y-58076085D01*
X-11601811Y-58104266D01*
X-11623347Y-58138578D01*
X-11669775Y-58196713D01*
X-11712966Y-58216038D01*
X-11744288Y-58193329D01*
X-11747814Y-58185050D01*
X-11768487Y-58114031D01*
X-11791720Y-58014470D01*
X-11813661Y-57905556D01*
X-11830456Y-57806477D01*
X-11838254Y-57736422D01*
X-11838333Y-57734200D01*
X-11840912Y-57688855D01*
X-11846927Y-57681426D01*
X-11859497Y-57715833D01*
X-11878775Y-57785000D01*
X-11921606Y-57907402D01*
X-11972014Y-57982276D01*
X-12032194Y-58012608D01*
X-12046940Y-58013600D01*
X-12160681Y-57995690D01*
X-12273463Y-57946955D01*
X-12378515Y-57874882D01*
X-12469063Y-57786959D01*
X-12538333Y-57690674D01*
X-12579553Y-57593516D01*
X-12585948Y-57502972D01*
X-12563162Y-57442902D01*
X-12501782Y-57383788D01*
X-12402261Y-57326821D01*
X-12277116Y-57277947D01*
X-12145162Y-57244292D01*
X-12054645Y-57222905D01*
X-11998976Y-57196139D01*
X-11962296Y-57155532D01*
X-11954389Y-57142496D01*
X-11911694Y-57087717D01*
X-11866949Y-57057127D01*
X-11865718Y-57056784D01*
X-11833264Y-57031474D01*
X-11807926Y-56969524D01*
X-11792199Y-56899086D01*
X-11757453Y-56762205D01*
X-11708753Y-56637199D01*
X-11652086Y-56536752D01*
X-11593440Y-56473547D01*
X-11590305Y-56471422D01*
X-11510653Y-56447234D01*
X-11417965Y-56462541D01*
X-11417965Y-56462541D01*
G37*
X-11417965Y-56462541D02*
X-11320064Y-56510518D01*
X-11224775Y-56584341D01*
X-11139920Y-56677186D01*
X-11073324Y-56782226D01*
X-11032810Y-56892639D01*
X-11024158Y-56965264D01*
X-11044475Y-57044643D01*
X-11108015Y-57101988D01*
X-11216802Y-57139086D01*
X-11222307Y-57140211D01*
X-11287017Y-57159320D01*
X-11316457Y-57180027D01*
X-11306091Y-57195901D01*
X-11265064Y-57200800D01*
X-11205072Y-57206325D01*
X-11119212Y-57220692D01*
X-11022339Y-57240588D01*
X-10929305Y-57262698D01*
X-10854967Y-57283708D01*
X-10814179Y-57300304D01*
X-10812280Y-57301809D01*
X-10817710Y-57327413D01*
X-10854723Y-57371116D01*
X-10885686Y-57398852D01*
X-10941824Y-57448111D01*
X-10965655Y-57485976D01*
X-10964716Y-57532563D01*
X-10953620Y-57580108D01*
X-10941510Y-57646561D01*
X-10942574Y-57689372D01*
X-10946502Y-57695544D01*
X-10974975Y-57688916D01*
X-11039193Y-57662353D01*
X-11130121Y-57619911D01*
X-11238727Y-57565648D01*
X-11258158Y-57555612D01*
X-11380298Y-57493263D01*
X-11465672Y-57452903D01*
X-11521909Y-57431829D01*
X-11556638Y-57427337D01*
X-11577487Y-57436725D01*
X-11581514Y-57441031D01*
X-11597194Y-57479491D01*
X-11591197Y-57536614D01*
X-11561464Y-57618394D01*
X-11505932Y-57730822D01*
X-11442569Y-57845072D01*
X-11391957Y-57936225D01*
X-11352851Y-58011591D01*
X-11331036Y-58059787D01*
X-11328400Y-58069706D01*
X-11351564Y-58082162D01*
X-11415138Y-58081746D01*
X-11452770Y-58077461D01*
X-11528297Y-58069323D01*
X-11571913Y-58076085D01*
X-11601811Y-58104266D01*
X-11623347Y-58138578D01*
X-11669775Y-58196713D01*
X-11712966Y-58216038D01*
X-11744288Y-58193329D01*
X-11747814Y-58185050D01*
X-11768487Y-58114031D01*
X-11791720Y-58014470D01*
X-11813661Y-57905556D01*
X-11830456Y-57806477D01*
X-11838254Y-57736422D01*
X-11838333Y-57734200D01*
X-11840912Y-57688855D01*
X-11846927Y-57681426D01*
X-11859497Y-57715833D01*
X-11878775Y-57785000D01*
X-11921606Y-57907402D01*
X-11972014Y-57982276D01*
X-12032194Y-58012608D01*
X-12046940Y-58013600D01*
X-12160681Y-57995690D01*
X-12273463Y-57946955D01*
X-12378515Y-57874882D01*
X-12469063Y-57786959D01*
X-12538333Y-57690674D01*
X-12579553Y-57593516D01*
X-12585948Y-57502972D01*
X-12563162Y-57442902D01*
X-12501782Y-57383788D01*
X-12402261Y-57326821D01*
X-12277116Y-57277947D01*
X-12145162Y-57244292D01*
X-12054645Y-57222905D01*
X-11998976Y-57196139D01*
X-11962296Y-57155532D01*
X-11954389Y-57142496D01*
X-11911694Y-57087717D01*
X-11866949Y-57057127D01*
X-11865718Y-57056784D01*
X-11833264Y-57031474D01*
X-11807926Y-56969524D01*
X-11792199Y-56899086D01*
X-11757453Y-56762205D01*
X-11708753Y-56637199D01*
X-11652086Y-56536752D01*
X-11593440Y-56473547D01*
X-11590305Y-56471422D01*
X-11510653Y-56447234D01*
X-11417965Y-56462541D01*
G36*
X11760910Y-56462683D02*
G01*
X11829243Y-56528565D01*
X11891056Y-56627793D01*
X11941144Y-56751714D01*
X11974303Y-56891676D01*
X11977699Y-56915050D01*
X11993306Y-56992919D01*
X12013539Y-57040084D01*
X12025744Y-57048400D01*
X12064766Y-57066795D01*
X12113112Y-57109775D01*
X12152888Y-57159028D01*
X12166600Y-57192549D01*
X12189409Y-57210400D01*
X12247737Y-57226932D01*
X12293574Y-57234162D01*
X12423177Y-57260404D01*
X12545497Y-57304573D01*
X12650824Y-57361025D01*
X12729448Y-57424116D01*
X12771661Y-57488202D01*
X12776200Y-57514708D01*
X12753960Y-57617782D01*
X12693863Y-57726902D01*
X12605842Y-57830888D01*
X12499831Y-57918561D01*
X12385762Y-57978740D01*
X12354981Y-57988793D01*
X12246219Y-58006739D01*
X12168533Y-57987455D01*
X12115124Y-57927566D01*
X12087487Y-57856018D01*
X12059605Y-57771693D01*
X12036252Y-57726374D01*
X12020196Y-57723440D01*
X12014200Y-57766269D01*
X12014200Y-57766498D01*
X12008334Y-57840010D01*
X11992956Y-57931378D01*
X11971390Y-58027605D01*
X11946962Y-58115690D01*
X11922997Y-58182638D01*
X11902820Y-58215448D01*
X11898996Y-58216800D01*
X11865392Y-58198132D01*
X11818832Y-58151397D01*
X11802477Y-58131118D01*
X11758230Y-58077945D01*
X11721122Y-58058205D01*
X11668688Y-58064049D01*
X11635162Y-58072652D01*
X11568407Y-58086305D01*
X11524518Y-58087597D01*
X11518173Y-58084840D01*
X11523822Y-58058134D01*
X11549873Y-57995596D01*
X11592342Y-57905959D01*
X11647247Y-57797957D01*
X11660429Y-57772920D01*
X11724137Y-57651167D01*
X11766000Y-57565865D01*
X11788815Y-57509042D01*
X11795380Y-57472728D01*
X11788494Y-57448952D01*
X11778432Y-57436746D01*
X11758373Y-57422684D01*
X11730820Y-57420340D01*
X11687722Y-57432492D01*
X11621031Y-57461921D01*
X11522696Y-57511406D01*
X11445492Y-57551705D01*
X11335426Y-57607378D01*
X11241978Y-57650612D01*
X11173887Y-57677661D01*
X11139890Y-57684779D01*
X11137970Y-57683513D01*
X11132807Y-57645940D01*
X11137280Y-57580637D01*
X11140019Y-57561569D01*
X11146150Y-57493298D01*
X11129694Y-57450298D01*
X11081004Y-57408713D01*
X11077066Y-57405898D01*
X11020902Y-57359748D01*
X11002266Y-57324053D01*
X11024326Y-57295139D01*
X11090247Y-57269329D01*
X11203196Y-57242951D01*
X11220450Y-57239495D01*
X11350008Y-57213296D01*
X11433916Y-57193961D01*
X11476468Y-57179070D01*
X11481957Y-57166202D01*
X11454677Y-57152936D01*
X11401370Y-57137506D01*
X11312555Y-57111764D01*
X11260687Y-57088395D01*
X11233139Y-57058679D01*
X11217284Y-57013891D01*
X11216191Y-57009588D01*
X11214235Y-56905701D01*
X11250981Y-56792670D01*
X11318087Y-56680519D01*
X11407209Y-56579271D01*
X11510006Y-56498950D01*
X11618133Y-56449579D01*
X11691260Y-56438800D01*
X11760910Y-56462683D01*
X11760910Y-56462683D01*
G37*
X11760910Y-56462683D02*
X11829243Y-56528565D01*
X11891056Y-56627793D01*
X11941144Y-56751714D01*
X11974303Y-56891676D01*
X11977699Y-56915050D01*
X11993306Y-56992919D01*
X12013539Y-57040084D01*
X12025744Y-57048400D01*
X12064766Y-57066795D01*
X12113112Y-57109775D01*
X12152888Y-57159028D01*
X12166600Y-57192549D01*
X12189409Y-57210400D01*
X12247737Y-57226932D01*
X12293574Y-57234162D01*
X12423177Y-57260404D01*
X12545497Y-57304573D01*
X12650824Y-57361025D01*
X12729448Y-57424116D01*
X12771661Y-57488202D01*
X12776200Y-57514708D01*
X12753960Y-57617782D01*
X12693863Y-57726902D01*
X12605842Y-57830888D01*
X12499831Y-57918561D01*
X12385762Y-57978740D01*
X12354981Y-57988793D01*
X12246219Y-58006739D01*
X12168533Y-57987455D01*
X12115124Y-57927566D01*
X12087487Y-57856018D01*
X12059605Y-57771693D01*
X12036252Y-57726374D01*
X12020196Y-57723440D01*
X12014200Y-57766269D01*
X12014200Y-57766498D01*
X12008334Y-57840010D01*
X11992956Y-57931378D01*
X11971390Y-58027605D01*
X11946962Y-58115690D01*
X11922997Y-58182638D01*
X11902820Y-58215448D01*
X11898996Y-58216800D01*
X11865392Y-58198132D01*
X11818832Y-58151397D01*
X11802477Y-58131118D01*
X11758230Y-58077945D01*
X11721122Y-58058205D01*
X11668688Y-58064049D01*
X11635162Y-58072652D01*
X11568407Y-58086305D01*
X11524518Y-58087597D01*
X11518173Y-58084840D01*
X11523822Y-58058134D01*
X11549873Y-57995596D01*
X11592342Y-57905959D01*
X11647247Y-57797957D01*
X11660429Y-57772920D01*
X11724137Y-57651167D01*
X11766000Y-57565865D01*
X11788815Y-57509042D01*
X11795380Y-57472728D01*
X11788494Y-57448952D01*
X11778432Y-57436746D01*
X11758373Y-57422684D01*
X11730820Y-57420340D01*
X11687722Y-57432492D01*
X11621031Y-57461921D01*
X11522696Y-57511406D01*
X11445492Y-57551705D01*
X11335426Y-57607378D01*
X11241978Y-57650612D01*
X11173887Y-57677661D01*
X11139890Y-57684779D01*
X11137970Y-57683513D01*
X11132807Y-57645940D01*
X11137280Y-57580637D01*
X11140019Y-57561569D01*
X11146150Y-57493298D01*
X11129694Y-57450298D01*
X11081004Y-57408713D01*
X11077066Y-57405898D01*
X11020902Y-57359748D01*
X11002266Y-57324053D01*
X11024326Y-57295139D01*
X11090247Y-57269329D01*
X11203196Y-57242951D01*
X11220450Y-57239495D01*
X11350008Y-57213296D01*
X11433916Y-57193961D01*
X11476468Y-57179070D01*
X11481957Y-57166202D01*
X11454677Y-57152936D01*
X11401370Y-57137506D01*
X11312555Y-57111764D01*
X11260687Y-57088395D01*
X11233139Y-57058679D01*
X11217284Y-57013891D01*
X11216191Y-57009588D01*
X11214235Y-56905701D01*
X11250981Y-56792670D01*
X11318087Y-56680519D01*
X11407209Y-56579271D01*
X11510006Y-56498950D01*
X11618133Y-56449579D01*
X11691260Y-56438800D01*
X11760910Y-56462683D01*
G36*
X-11511448Y-21351137D02*
G01*
X-11414776Y-21380344D01*
X-11335300Y-21407813D01*
X-11285647Y-21414954D01*
X-11249714Y-21403160D01*
X-11238471Y-21395606D01*
X-11173415Y-21364122D01*
X-11124260Y-21379505D01*
X-11098670Y-21414312D01*
X-11084610Y-21464828D01*
X-11110650Y-21511706D01*
X-11113729Y-21515157D01*
X-11140586Y-21552059D01*
X-11141372Y-21589064D01*
X-11117857Y-21646394D01*
X-11065438Y-21801723D01*
X-11059428Y-21950858D01*
X-11100787Y-22098006D01*
X-11190478Y-22247373D01*
X-11279231Y-22352000D01*
X-11374271Y-22456745D01*
X-11438888Y-22539926D01*
X-11480153Y-22614253D01*
X-11505138Y-22692436D01*
X-11520787Y-22786177D01*
X-11546664Y-22908438D01*
X-11587861Y-22982675D01*
X-11645326Y-23009142D01*
X-11720008Y-22988093D01*
X-11812855Y-22919782D01*
X-11858166Y-22876380D01*
X-11992496Y-22740360D01*
X-12085898Y-22788603D01*
X-12202486Y-22823015D01*
X-12317370Y-22811384D01*
X-12419255Y-22757557D01*
X-12496851Y-22665376D01*
X-12507312Y-22645123D01*
X-12542215Y-22542679D01*
X-12538511Y-22448672D01*
X-12505766Y-22360418D01*
X-12463932Y-22272259D01*
X-12594666Y-22139881D01*
X-12682371Y-22037250D01*
X-12723073Y-21953589D01*
X-12716429Y-21887777D01*
X-12662097Y-21838694D01*
X-12559732Y-21805220D01*
X-12488561Y-21793753D01*
X-12404960Y-21782272D01*
X-12342352Y-21767686D01*
X-12288398Y-21743240D01*
X-12230759Y-21702179D01*
X-12157093Y-21637745D01*
X-12089662Y-21575378D01*
X-11936964Y-21450998D01*
X-11793671Y-21373313D01*
X-11653820Y-21340600D01*
X-11511448Y-21351137D01*
X-11511448Y-21351137D01*
G37*
X-11511448Y-21351137D02*
X-11414776Y-21380344D01*
X-11335300Y-21407813D01*
X-11285647Y-21414954D01*
X-11249714Y-21403160D01*
X-11238471Y-21395606D01*
X-11173415Y-21364122D01*
X-11124260Y-21379505D01*
X-11098670Y-21414312D01*
X-11084610Y-21464828D01*
X-11110650Y-21511706D01*
X-11113729Y-21515157D01*
X-11140586Y-21552059D01*
X-11141372Y-21589064D01*
X-11117857Y-21646394D01*
X-11065438Y-21801723D01*
X-11059428Y-21950858D01*
X-11100787Y-22098006D01*
X-11190478Y-22247373D01*
X-11279231Y-22352000D01*
X-11374271Y-22456745D01*
X-11438888Y-22539926D01*
X-11480153Y-22614253D01*
X-11505138Y-22692436D01*
X-11520787Y-22786177D01*
X-11546664Y-22908438D01*
X-11587861Y-22982675D01*
X-11645326Y-23009142D01*
X-11720008Y-22988093D01*
X-11812855Y-22919782D01*
X-11858166Y-22876380D01*
X-11992496Y-22740360D01*
X-12085898Y-22788603D01*
X-12202486Y-22823015D01*
X-12317370Y-22811384D01*
X-12419255Y-22757557D01*
X-12496851Y-22665376D01*
X-12507312Y-22645123D01*
X-12542215Y-22542679D01*
X-12538511Y-22448672D01*
X-12505766Y-22360418D01*
X-12463932Y-22272259D01*
X-12594666Y-22139881D01*
X-12682371Y-22037250D01*
X-12723073Y-21953589D01*
X-12716429Y-21887777D01*
X-12662097Y-21838694D01*
X-12559732Y-21805220D01*
X-12488561Y-21793753D01*
X-12404960Y-21782272D01*
X-12342352Y-21767686D01*
X-12288398Y-21743240D01*
X-12230759Y-21702179D01*
X-12157093Y-21637745D01*
X-12089662Y-21575378D01*
X-11936964Y-21450998D01*
X-11793671Y-21373313D01*
X-11653820Y-21340600D01*
X-11511448Y-21351137D01*
G36*
X11499478Y-21354640D02*
G01*
X11610178Y-21377018D01*
X11651731Y-21394389D01*
X11708765Y-21432461D01*
X11787347Y-21494495D01*
X11872855Y-21568779D01*
X11895268Y-21589449D01*
X12003347Y-21684577D01*
X12091604Y-21746037D01*
X12171737Y-21780001D01*
X12255440Y-21792641D01*
X12281358Y-21793200D01*
X12388295Y-21808066D01*
X12467258Y-21848269D01*
X12511665Y-21907216D01*
X12514931Y-21978312D01*
X12500913Y-22013084D01*
X12469350Y-22055597D01*
X12414022Y-22117419D01*
X12362960Y-22169304D01*
X12250612Y-22278709D01*
X12299720Y-22377964D01*
X12330232Y-22491047D01*
X12315485Y-22602146D01*
X12260363Y-22701136D01*
X12169750Y-22777890D01*
X12090247Y-22812246D01*
X12018245Y-22827873D01*
X11958215Y-22820368D01*
X11891950Y-22791991D01*
X11791661Y-22742372D01*
X11651164Y-22877386D01*
X11559844Y-22957960D01*
X11489490Y-23000560D01*
X11431343Y-23008409D01*
X11376647Y-22984730D01*
X11370774Y-22980566D01*
X11339472Y-22935897D01*
X11316754Y-22865340D01*
X11313747Y-22847216D01*
X11296714Y-22726741D01*
X11279156Y-22641677D01*
X11254295Y-22577023D01*
X11215354Y-22517776D01*
X11155557Y-22448935D01*
X11113434Y-22403794D01*
X11035396Y-22316634D01*
X10966209Y-22232115D01*
X10917210Y-22164339D01*
X10906414Y-22146232D01*
X10875433Y-22053591D01*
X10860803Y-21935321D01*
X10862755Y-21811836D01*
X10881521Y-21703552D01*
X10900839Y-21654570D01*
X10926347Y-21597979D01*
X10923707Y-21557217D01*
X10903633Y-21521416D01*
X10880351Y-21455855D01*
X10892863Y-21402348D01*
X10930940Y-21371516D01*
X10984354Y-21373977D01*
X11022236Y-21398266D01*
X11057240Y-21424498D01*
X11090892Y-21425670D01*
X11144228Y-21401397D01*
X11154640Y-21395852D01*
X11250647Y-21364119D01*
X11372613Y-21350361D01*
X11499478Y-21354640D01*
X11499478Y-21354640D01*
G37*
X11499478Y-21354640D02*
X11610178Y-21377018D01*
X11651731Y-21394389D01*
X11708765Y-21432461D01*
X11787347Y-21494495D01*
X11872855Y-21568779D01*
X11895268Y-21589449D01*
X12003347Y-21684577D01*
X12091604Y-21746037D01*
X12171737Y-21780001D01*
X12255440Y-21792641D01*
X12281358Y-21793200D01*
X12388295Y-21808066D01*
X12467258Y-21848269D01*
X12511665Y-21907216D01*
X12514931Y-21978312D01*
X12500913Y-22013084D01*
X12469350Y-22055597D01*
X12414022Y-22117419D01*
X12362960Y-22169304D01*
X12250612Y-22278709D01*
X12299720Y-22377964D01*
X12330232Y-22491047D01*
X12315485Y-22602146D01*
X12260363Y-22701136D01*
X12169750Y-22777890D01*
X12090247Y-22812246D01*
X12018245Y-22827873D01*
X11958215Y-22820368D01*
X11891950Y-22791991D01*
X11791661Y-22742372D01*
X11651164Y-22877386D01*
X11559844Y-22957960D01*
X11489490Y-23000560D01*
X11431343Y-23008409D01*
X11376647Y-22984730D01*
X11370774Y-22980566D01*
X11339472Y-22935897D01*
X11316754Y-22865340D01*
X11313747Y-22847216D01*
X11296714Y-22726741D01*
X11279156Y-22641677D01*
X11254295Y-22577023D01*
X11215354Y-22517776D01*
X11155557Y-22448935D01*
X11113434Y-22403794D01*
X11035396Y-22316634D01*
X10966209Y-22232115D01*
X10917210Y-22164339D01*
X10906414Y-22146232D01*
X10875433Y-22053591D01*
X10860803Y-21935321D01*
X10862755Y-21811836D01*
X10881521Y-21703552D01*
X10900839Y-21654570D01*
X10926347Y-21597979D01*
X10923707Y-21557217D01*
X10903633Y-21521416D01*
X10880351Y-21455855D01*
X10892863Y-21402348D01*
X10930940Y-21371516D01*
X10984354Y-21373977D01*
X11022236Y-21398266D01*
X11057240Y-21424498D01*
X11090892Y-21425670D01*
X11144228Y-21401397D01*
X11154640Y-21395852D01*
X11250647Y-21364119D01*
X11372613Y-21350361D01*
X11499478Y-21354640D01*
G36*
X-62251Y-21092099D02*
G01*
X-12278Y-21118042D01*
X-11476Y-21118566D01*
X52390Y-21184845D01*
X111103Y-21292038D01*
X160055Y-21430262D01*
X186659Y-21543403D01*
X205917Y-21622166D01*
X227263Y-21675911D01*
X242683Y-21691600D01*
X279484Y-21709726D01*
X326614Y-21751958D01*
X366310Y-21800076D01*
X381000Y-21833475D01*
X403799Y-21850719D01*
X462976Y-21870778D01*
X529196Y-21885940D01*
X683636Y-21925013D01*
X814159Y-21977165D01*
X910882Y-22037788D01*
X954033Y-22084075D01*
X980497Y-22166977D01*
X966502Y-22261429D01*
X918717Y-22360009D01*
X843807Y-22455297D01*
X748441Y-22539874D01*
X639284Y-22606317D01*
X523005Y-22647207D01*
X439590Y-22656658D01*
X377804Y-22633040D01*
X326037Y-22568187D01*
X291561Y-22471586D01*
X289344Y-22460544D01*
X271064Y-22395841D01*
X250495Y-22364485D01*
X234197Y-22371582D01*
X228600Y-22413279D01*
X222624Y-22487377D01*
X206959Y-22578918D01*
X185002Y-22674880D01*
X160147Y-22762242D01*
X135790Y-22827982D01*
X115326Y-22859081D01*
X112111Y-22860000D01*
X77362Y-22840942D01*
X32977Y-22793897D01*
X24008Y-22781845D01*
X-13058Y-22735437D01*
X-49375Y-22715168D01*
X-104387Y-22714418D01*
X-155522Y-22720729D01*
X-226563Y-22727722D01*
X-271375Y-22726793D01*
X-279400Y-22722508D01*
X-268152Y-22695529D01*
X-237416Y-22632754D01*
X-191707Y-22543158D01*
X-135541Y-22435718D01*
X-127414Y-22420354D01*
X-65189Y-22301672D01*
X-24569Y-22219255D01*
X-2798Y-22164791D01*
X2884Y-22129969D01*
X-4767Y-22106476D01*
X-18075Y-22090811D01*
X-38462Y-22074775D01*
X-63781Y-22069859D01*
X-102325Y-22078792D01*
X-162386Y-22104305D01*
X-252258Y-22149129D01*
X-349964Y-22200081D01*
X-459443Y-22257082D01*
X-552009Y-22304332D01*
X-618787Y-22337369D01*
X-650902Y-22351731D01*
X-652186Y-22352000D01*
X-656530Y-22329439D01*
X-653302Y-22271830D01*
X-648130Y-22228121D01*
X-640213Y-22152118D01*
X-647772Y-22106691D01*
X-677425Y-22072394D01*
X-709246Y-22048591D01*
X-760250Y-22004360D01*
X-786466Y-21966157D01*
X-787400Y-21960488D01*
X-764465Y-21941056D01*
X-704302Y-21917167D01*
X-619880Y-21892180D01*
X-524168Y-21869457D01*
X-430133Y-21852360D01*
X-350743Y-21844248D01*
X-337945Y-21844000D01*
X-292287Y-21838711D01*
X-295975Y-21823028D01*
X-348687Y-21797225D01*
X-425394Y-21769659D01*
X-517030Y-21726745D01*
X-566178Y-21668240D01*
X-576971Y-21585429D01*
X-558804Y-21488414D01*
X-508456Y-21378749D01*
X-423737Y-21270046D01*
X-319148Y-21177131D01*
X-209190Y-21114827D01*
X-185302Y-21106575D01*
X-112077Y-21088819D01*
X-62251Y-21092099D01*
X-62251Y-21092099D01*
G37*
X-62251Y-21092099D02*
X-12278Y-21118042D01*
X-11476Y-21118566D01*
X52390Y-21184845D01*
X111103Y-21292038D01*
X160055Y-21430262D01*
X186659Y-21543403D01*
X205917Y-21622166D01*
X227263Y-21675911D01*
X242683Y-21691600D01*
X279484Y-21709726D01*
X326614Y-21751958D01*
X366310Y-21800076D01*
X381000Y-21833475D01*
X403799Y-21850719D01*
X462976Y-21870778D01*
X529196Y-21885940D01*
X683636Y-21925013D01*
X814159Y-21977165D01*
X910882Y-22037788D01*
X954033Y-22084075D01*
X980497Y-22166977D01*
X966502Y-22261429D01*
X918717Y-22360009D01*
X843807Y-22455297D01*
X748441Y-22539874D01*
X639284Y-22606317D01*
X523005Y-22647207D01*
X439590Y-22656658D01*
X377804Y-22633040D01*
X326037Y-22568187D01*
X291561Y-22471586D01*
X289344Y-22460544D01*
X271064Y-22395841D01*
X250495Y-22364485D01*
X234197Y-22371582D01*
X228600Y-22413279D01*
X222624Y-22487377D01*
X206959Y-22578918D01*
X185002Y-22674880D01*
X160147Y-22762242D01*
X135790Y-22827982D01*
X115326Y-22859081D01*
X112111Y-22860000D01*
X77362Y-22840942D01*
X32977Y-22793897D01*
X24008Y-22781845D01*
X-13058Y-22735437D01*
X-49375Y-22715168D01*
X-104387Y-22714418D01*
X-155522Y-22720729D01*
X-226563Y-22727722D01*
X-271375Y-22726793D01*
X-279400Y-22722508D01*
X-268152Y-22695529D01*
X-237416Y-22632754D01*
X-191707Y-22543158D01*
X-135541Y-22435718D01*
X-127414Y-22420354D01*
X-65189Y-22301672D01*
X-24569Y-22219255D01*
X-2798Y-22164791D01*
X2884Y-22129969D01*
X-4767Y-22106476D01*
X-18075Y-22090811D01*
X-38462Y-22074775D01*
X-63781Y-22069859D01*
X-102325Y-22078792D01*
X-162386Y-22104305D01*
X-252258Y-22149129D01*
X-349964Y-22200081D01*
X-459443Y-22257082D01*
X-552009Y-22304332D01*
X-618787Y-22337369D01*
X-650902Y-22351731D01*
X-652186Y-22352000D01*
X-656530Y-22329439D01*
X-653302Y-22271830D01*
X-648130Y-22228121D01*
X-640213Y-22152118D01*
X-647772Y-22106691D01*
X-677425Y-22072394D01*
X-709246Y-22048591D01*
X-760250Y-22004360D01*
X-786466Y-21966157D01*
X-787400Y-21960488D01*
X-764465Y-21941056D01*
X-704302Y-21917167D01*
X-619880Y-21892180D01*
X-524168Y-21869457D01*
X-430133Y-21852360D01*
X-350743Y-21844248D01*
X-337945Y-21844000D01*
X-292287Y-21838711D01*
X-295975Y-21823028D01*
X-348687Y-21797225D01*
X-425394Y-21769659D01*
X-517030Y-21726745D01*
X-566178Y-21668240D01*
X-576971Y-21585429D01*
X-558804Y-21488414D01*
X-508456Y-21378749D01*
X-423737Y-21270046D01*
X-319148Y-21177131D01*
X-209190Y-21114827D01*
X-185302Y-21106575D01*
X-112077Y-21088819D01*
X-62251Y-21092099D01*
G36*
X-233327Y-9574527D02*
G01*
X-144002Y-9613498D01*
X-37291Y-9688539D01*
X55116Y-9768521D01*
X163662Y-9865138D01*
X248949Y-9931539D01*
X322799Y-9974250D01*
X397031Y-9999799D01*
X483468Y-10014713D01*
X505584Y-10017246D01*
X623714Y-10042700D01*
X701624Y-10087857D01*
X735455Y-10150234D01*
X736600Y-10165822D01*
X719843Y-10206351D01*
X675412Y-10270076D01*
X612066Y-10344790D01*
X595367Y-10362639D01*
X531920Y-10434089D01*
X490638Y-10490592D01*
X477815Y-10523184D01*
X480126Y-10526771D01*
X503792Y-10560249D01*
X527615Y-10621152D01*
X530412Y-10630817D01*
X540426Y-10749117D01*
X509044Y-10856302D01*
X444708Y-10945085D01*
X355863Y-11008181D01*
X250954Y-11038305D01*
X138424Y-11028170D01*
X90812Y-11010105D01*
X-1113Y-10966483D01*
X-138737Y-11096641D01*
X-229252Y-11175139D01*
X-298789Y-11215942D01*
X-356502Y-11222256D01*
X-411545Y-11197282D01*
X-416413Y-11193806D01*
X-451477Y-11139949D01*
X-475918Y-11038597D01*
X-479850Y-11009656D01*
X-496111Y-10907020D01*
X-521414Y-10825215D01*
X-563386Y-10749772D01*
X-629655Y-10666219D01*
X-703055Y-10586174D01*
X-822817Y-10442238D01*
X-898132Y-10308240D01*
X-932295Y-10176751D01*
X-932293Y-10069198D01*
X-916949Y-9976894D01*
X-893647Y-9894095D01*
X-881261Y-9865054D01*
X-858008Y-9809173D01*
X-863880Y-9766997D01*
X-881967Y-9735816D01*
X-905249Y-9670255D01*
X-892737Y-9616748D01*
X-854660Y-9585916D01*
X-801246Y-9588377D01*
X-763364Y-9612666D01*
X-726521Y-9639583D01*
X-690490Y-9639358D01*
X-637748Y-9615320D01*
X-503086Y-9569785D01*
X-352830Y-9557489D01*
X-233327Y-9574527D01*
X-233327Y-9574527D01*
G37*
X-233327Y-9574527D02*
X-144002Y-9613498D01*
X-37291Y-9688539D01*
X55116Y-9768521D01*
X163662Y-9865138D01*
X248949Y-9931539D01*
X322799Y-9974250D01*
X397031Y-9999799D01*
X483468Y-10014713D01*
X505584Y-10017246D01*
X623714Y-10042700D01*
X701624Y-10087857D01*
X735455Y-10150234D01*
X736600Y-10165822D01*
X719843Y-10206351D01*
X675412Y-10270076D01*
X612066Y-10344790D01*
X595367Y-10362639D01*
X531920Y-10434089D01*
X490638Y-10490592D01*
X477815Y-10523184D01*
X480126Y-10526771D01*
X503792Y-10560249D01*
X527615Y-10621152D01*
X530412Y-10630817D01*
X540426Y-10749117D01*
X509044Y-10856302D01*
X444708Y-10945085D01*
X355863Y-11008181D01*
X250954Y-11038305D01*
X138424Y-11028170D01*
X90812Y-11010105D01*
X-1113Y-10966483D01*
X-138737Y-11096641D01*
X-229252Y-11175139D01*
X-298789Y-11215942D01*
X-356502Y-11222256D01*
X-411545Y-11197282D01*
X-416413Y-11193806D01*
X-451477Y-11139949D01*
X-475918Y-11038597D01*
X-479850Y-11009656D01*
X-496111Y-10907020D01*
X-521414Y-10825215D01*
X-563386Y-10749772D01*
X-629655Y-10666219D01*
X-703055Y-10586174D01*
X-822817Y-10442238D01*
X-898132Y-10308240D01*
X-932295Y-10176751D01*
X-932293Y-10069198D01*
X-916949Y-9976894D01*
X-893647Y-9894095D01*
X-881261Y-9865054D01*
X-858008Y-9809173D01*
X-863880Y-9766997D01*
X-881967Y-9735816D01*
X-905249Y-9670255D01*
X-892737Y-9616748D01*
X-854660Y-9585916D01*
X-801246Y-9588377D01*
X-763364Y-9612666D01*
X-726521Y-9639583D01*
X-690490Y-9639358D01*
X-637748Y-9615320D01*
X-503086Y-9569785D01*
X-352830Y-9557489D01*
X-233327Y-9574527D01*
G36*
X-11403889Y-9325648D02*
G01*
X-11304584Y-9379173D01*
X-11209048Y-9457093D01*
X-11125544Y-9552123D01*
X-11062333Y-9656979D01*
X-11027678Y-9764377D01*
X-11023600Y-9812151D01*
X-11044346Y-9902866D01*
X-11106880Y-9965142D01*
X-11211567Y-9999409D01*
X-11283239Y-10016849D01*
X-11315099Y-10036308D01*
X-11304097Y-10052585D01*
X-11247350Y-10060472D01*
X-11170165Y-10067968D01*
X-11076102Y-10084939D01*
X-10978709Y-10107860D01*
X-10891535Y-10133208D01*
X-10828130Y-10157458D01*
X-10802257Y-10176247D01*
X-10815778Y-10206212D01*
X-10861211Y-10246537D01*
X-10882718Y-10260869D01*
X-10946297Y-10307993D01*
X-10969479Y-10355475D01*
X-10958250Y-10421504D01*
X-10946457Y-10454582D01*
X-10934052Y-10511002D01*
X-10941433Y-10545192D01*
X-10970649Y-10542095D01*
X-11035447Y-10518492D01*
X-11126781Y-10478150D01*
X-11235605Y-10424833D01*
X-11256696Y-10413970D01*
X-11379306Y-10351390D01*
X-11465111Y-10310830D01*
X-11521690Y-10289590D01*
X-11556621Y-10284975D01*
X-11577479Y-10294286D01*
X-11581318Y-10298395D01*
X-11597281Y-10328341D01*
X-11597770Y-10368248D01*
X-11580173Y-10425734D01*
X-11541874Y-10508417D01*
X-11480259Y-10623918D01*
X-11452477Y-10673909D01*
X-11399887Y-10770601D01*
X-11358350Y-10852064D01*
X-11333289Y-10907372D01*
X-11328400Y-10923942D01*
X-11351157Y-10940245D01*
X-11420235Y-10939426D01*
X-11449050Y-10936010D01*
X-11523832Y-10928682D01*
X-11567930Y-10937148D01*
X-11600672Y-10968288D01*
X-11620500Y-10997054D01*
X-11671300Y-11055732D01*
X-11715726Y-11073035D01*
X-11746922Y-11046563D01*
X-11748845Y-11041955D01*
X-11758794Y-11004023D01*
X-11775234Y-10928955D01*
X-11795424Y-10829569D01*
X-11807078Y-10769480D01*
X-11852862Y-10529450D01*
X-11884639Y-10655875D01*
X-11921788Y-10770081D01*
X-11969162Y-10838639D01*
X-12035265Y-10866671D01*
X-12128601Y-10859300D01*
X-12193974Y-10842207D01*
X-12319963Y-10782806D01*
X-12429871Y-10690693D01*
X-12514309Y-10577354D01*
X-12563887Y-10454272D01*
X-12573000Y-10378641D01*
X-12559968Y-10302725D01*
X-12512279Y-10247493D01*
X-12502130Y-10239994D01*
X-12432185Y-10200973D01*
X-12334599Y-10159464D01*
X-12227546Y-10121845D01*
X-12129199Y-10094498D01*
X-12057730Y-10083801D01*
X-12057179Y-10083800D01*
X-11996295Y-10060725D01*
X-11967852Y-10019925D01*
X-11923244Y-9960646D01*
X-11877624Y-9928201D01*
X-11837652Y-9898385D01*
X-11809799Y-9844060D01*
X-11788081Y-9757125D01*
X-11755112Y-9630742D01*
X-11709951Y-9511024D01*
X-11658448Y-9410279D01*
X-11606453Y-9340813D01*
X-11580759Y-9320921D01*
X-11498702Y-9303802D01*
X-11403889Y-9325648D01*
X-11403889Y-9325648D01*
G37*
X-11403889Y-9325648D02*
X-11304584Y-9379173D01*
X-11209048Y-9457093D01*
X-11125544Y-9552123D01*
X-11062333Y-9656979D01*
X-11027678Y-9764377D01*
X-11023600Y-9812151D01*
X-11044346Y-9902866D01*
X-11106880Y-9965142D01*
X-11211567Y-9999409D01*
X-11283239Y-10016849D01*
X-11315099Y-10036308D01*
X-11304097Y-10052585D01*
X-11247350Y-10060472D01*
X-11170165Y-10067968D01*
X-11076102Y-10084939D01*
X-10978709Y-10107860D01*
X-10891535Y-10133208D01*
X-10828130Y-10157458D01*
X-10802257Y-10176247D01*
X-10815778Y-10206212D01*
X-10861211Y-10246537D01*
X-10882718Y-10260869D01*
X-10946297Y-10307993D01*
X-10969479Y-10355475D01*
X-10958250Y-10421504D01*
X-10946457Y-10454582D01*
X-10934052Y-10511002D01*
X-10941433Y-10545192D01*
X-10970649Y-10542095D01*
X-11035447Y-10518492D01*
X-11126781Y-10478150D01*
X-11235605Y-10424833D01*
X-11256696Y-10413970D01*
X-11379306Y-10351390D01*
X-11465111Y-10310830D01*
X-11521690Y-10289590D01*
X-11556621Y-10284975D01*
X-11577479Y-10294286D01*
X-11581318Y-10298395D01*
X-11597281Y-10328341D01*
X-11597770Y-10368248D01*
X-11580173Y-10425734D01*
X-11541874Y-10508417D01*
X-11480259Y-10623918D01*
X-11452477Y-10673909D01*
X-11399887Y-10770601D01*
X-11358350Y-10852064D01*
X-11333289Y-10907372D01*
X-11328400Y-10923942D01*
X-11351157Y-10940245D01*
X-11420235Y-10939426D01*
X-11449050Y-10936010D01*
X-11523832Y-10928682D01*
X-11567930Y-10937148D01*
X-11600672Y-10968288D01*
X-11620500Y-10997054D01*
X-11671300Y-11055732D01*
X-11715726Y-11073035D01*
X-11746922Y-11046563D01*
X-11748845Y-11041955D01*
X-11758794Y-11004023D01*
X-11775234Y-10928955D01*
X-11795424Y-10829569D01*
X-11807078Y-10769480D01*
X-11852862Y-10529450D01*
X-11884639Y-10655875D01*
X-11921788Y-10770081D01*
X-11969162Y-10838639D01*
X-12035265Y-10866671D01*
X-12128601Y-10859300D01*
X-12193974Y-10842207D01*
X-12319963Y-10782806D01*
X-12429871Y-10690693D01*
X-12514309Y-10577354D01*
X-12563887Y-10454272D01*
X-12573000Y-10378641D01*
X-12559968Y-10302725D01*
X-12512279Y-10247493D01*
X-12502130Y-10239994D01*
X-12432185Y-10200973D01*
X-12334599Y-10159464D01*
X-12227546Y-10121845D01*
X-12129199Y-10094498D01*
X-12057730Y-10083801D01*
X-12057179Y-10083800D01*
X-11996295Y-10060725D01*
X-11967852Y-10019925D01*
X-11923244Y-9960646D01*
X-11877624Y-9928201D01*
X-11837652Y-9898385D01*
X-11809799Y-9844060D01*
X-11788081Y-9757125D01*
X-11755112Y-9630742D01*
X-11709951Y-9511024D01*
X-11658448Y-9410279D01*
X-11606453Y-9340813D01*
X-11580759Y-9320921D01*
X-11498702Y-9303802D01*
X-11403889Y-9325648D01*
G36*
X11743436Y-9302546D02*
G01*
X11816153Y-9347906D01*
X11836780Y-9373134D01*
X11885819Y-9459138D01*
X11932023Y-9568690D01*
X11968270Y-9681679D01*
X11987436Y-9777995D01*
X11988800Y-9802379D01*
X12002880Y-9867248D01*
X12053851Y-9908958D01*
X12058418Y-9911195D01*
X12121724Y-9959639D01*
X12161404Y-10014181D01*
X12203763Y-10068618D01*
X12265609Y-10083800D01*
X12347259Y-10095269D01*
X12453456Y-10125094D01*
X12564658Y-10166404D01*
X12661318Y-10212324D01*
X12700982Y-10236899D01*
X12759015Y-10295466D01*
X12776199Y-10365939D01*
X12776200Y-10365941D01*
X12753341Y-10478197D01*
X12691192Y-10593090D01*
X12599389Y-10699599D01*
X12487571Y-10786701D01*
X12365376Y-10843373D01*
X12356442Y-10845984D01*
X12253304Y-10860381D01*
X12176086Y-10835084D01*
X12119033Y-10766491D01*
X12083084Y-10674818D01*
X12067613Y-10622454D01*
X12055969Y-10591732D01*
X12045534Y-10587599D01*
X12033689Y-10615001D01*
X12017816Y-10678886D01*
X11995297Y-10784198D01*
X11975785Y-10877550D01*
X11948170Y-10989628D01*
X11920543Y-11053179D01*
X11889561Y-11070368D01*
X11851884Y-11043358D01*
X11810455Y-10984618D01*
X11758812Y-10920698D01*
X11713882Y-10906999D01*
X11713133Y-10907212D01*
X11618584Y-10932979D01*
X11562772Y-10941336D01*
X11536822Y-10932585D01*
X11531600Y-10913414D01*
X11543853Y-10872565D01*
X11575963Y-10803581D01*
X11620547Y-10722156D01*
X11676326Y-10621898D01*
X11729630Y-10517775D01*
X11761248Y-10449653D01*
X11790317Y-10375764D01*
X11797914Y-10331795D01*
X11785490Y-10302334D01*
X11776076Y-10291991D01*
X11755877Y-10279344D01*
X11725934Y-10279164D01*
X11678376Y-10294246D01*
X11605333Y-10327382D01*
X11498935Y-10381364D01*
X11445492Y-10409305D01*
X11335344Y-10464852D01*
X11241679Y-10507739D01*
X11173267Y-10534269D01*
X11138879Y-10540746D01*
X11136877Y-10539345D01*
X11130808Y-10497142D01*
X11136260Y-10464572D01*
X11155584Y-10396276D01*
X11164181Y-10365816D01*
X11159452Y-10323581D01*
X11115382Y-10280207D01*
X11087981Y-10262144D01*
X11031764Y-10219862D01*
X11000491Y-10181704D01*
X10998200Y-10172664D01*
X11021072Y-10151794D01*
X11080792Y-10126773D01*
X11164009Y-10101268D01*
X11257376Y-10078941D01*
X11347542Y-10063456D01*
X11414465Y-10058400D01*
X11474545Y-10049444D01*
X11489142Y-10028910D01*
X11456675Y-10006297D01*
X11424565Y-9997623D01*
X11318302Y-9964407D01*
X11255046Y-9912591D01*
X11228547Y-9836011D01*
X11226800Y-9802553D01*
X11250841Y-9666548D01*
X11318037Y-9536389D01*
X11420995Y-9422986D01*
X11536938Y-9344873D01*
X11651423Y-9301635D01*
X11743436Y-9302546D01*
X11743436Y-9302546D01*
G37*
X11743436Y-9302546D02*
X11816153Y-9347906D01*
X11836780Y-9373134D01*
X11885819Y-9459138D01*
X11932023Y-9568690D01*
X11968270Y-9681679D01*
X11987436Y-9777995D01*
X11988800Y-9802379D01*
X12002880Y-9867248D01*
X12053851Y-9908958D01*
X12058418Y-9911195D01*
X12121724Y-9959639D01*
X12161404Y-10014181D01*
X12203763Y-10068618D01*
X12265609Y-10083800D01*
X12347259Y-10095269D01*
X12453456Y-10125094D01*
X12564658Y-10166404D01*
X12661318Y-10212324D01*
X12700982Y-10236899D01*
X12759015Y-10295466D01*
X12776199Y-10365939D01*
X12776200Y-10365941D01*
X12753341Y-10478197D01*
X12691192Y-10593090D01*
X12599389Y-10699599D01*
X12487571Y-10786701D01*
X12365376Y-10843373D01*
X12356442Y-10845984D01*
X12253304Y-10860381D01*
X12176086Y-10835084D01*
X12119033Y-10766491D01*
X12083084Y-10674818D01*
X12067613Y-10622454D01*
X12055969Y-10591732D01*
X12045534Y-10587599D01*
X12033689Y-10615001D01*
X12017816Y-10678886D01*
X11995297Y-10784198D01*
X11975785Y-10877550D01*
X11948170Y-10989628D01*
X11920543Y-11053179D01*
X11889561Y-11070368D01*
X11851884Y-11043358D01*
X11810455Y-10984618D01*
X11758812Y-10920698D01*
X11713882Y-10906999D01*
X11713133Y-10907212D01*
X11618584Y-10932979D01*
X11562772Y-10941336D01*
X11536822Y-10932585D01*
X11531600Y-10913414D01*
X11543853Y-10872565D01*
X11575963Y-10803581D01*
X11620547Y-10722156D01*
X11676326Y-10621898D01*
X11729630Y-10517775D01*
X11761248Y-10449653D01*
X11790317Y-10375764D01*
X11797914Y-10331795D01*
X11785490Y-10302334D01*
X11776076Y-10291991D01*
X11755877Y-10279344D01*
X11725934Y-10279164D01*
X11678376Y-10294246D01*
X11605333Y-10327382D01*
X11498935Y-10381364D01*
X11445492Y-10409305D01*
X11335344Y-10464852D01*
X11241679Y-10507739D01*
X11173267Y-10534269D01*
X11138879Y-10540746D01*
X11136877Y-10539345D01*
X11130808Y-10497142D01*
X11136260Y-10464572D01*
X11155584Y-10396276D01*
X11164181Y-10365816D01*
X11159452Y-10323581D01*
X11115382Y-10280207D01*
X11087981Y-10262144D01*
X11031764Y-10219862D01*
X11000491Y-10181704D01*
X10998200Y-10172664D01*
X11021072Y-10151794D01*
X11080792Y-10126773D01*
X11164009Y-10101268D01*
X11257376Y-10078941D01*
X11347542Y-10063456D01*
X11414465Y-10058400D01*
X11474545Y-10049444D01*
X11489142Y-10028910D01*
X11456675Y-10006297D01*
X11424565Y-9997623D01*
X11318302Y-9964407D01*
X11255046Y-9912591D01*
X11228547Y-9836011D01*
X11226800Y-9802553D01*
X11250841Y-9666548D01*
X11318037Y-9536389D01*
X11420995Y-9422986D01*
X11536938Y-9344873D01*
X11651423Y-9301635D01*
X11743436Y-9302546D01*
G36*
X-11502604Y2212910D02*
G01*
X-11394656Y2183677D01*
X-11383356Y2178315D01*
X-11322732Y2151945D01*
X-11281439Y2151639D01*
X-11240885Y2173129D01*
X-11171761Y2197462D01*
X-11117559Y2181693D01*
X-11088784Y2136326D01*
X-11095942Y2071868D01*
X-11111072Y2043316D01*
X-11133617Y1999060D01*
X-11130878Y1956988D01*
X-11105797Y1900845D01*
X-11075618Y1802781D01*
X-11064608Y1679941D01*
X-11072634Y1554541D01*
X-11099566Y1448796D01*
X-11108587Y1429269D01*
X-11146207Y1371897D01*
X-11207685Y1293171D01*
X-11281257Y1207952D01*
X-11299607Y1187969D01*
X-11387799Y1090642D01*
X-11446833Y1015821D01*
X-11483779Y950401D01*
X-11505705Y881275D01*
X-11519680Y795336D01*
X-11522086Y775465D01*
X-11546610Y655648D01*
X-11587024Y583559D01*
X-11644281Y558958D01*
X-11719334Y581602D01*
X-11813134Y651249D01*
X-11854843Y690939D01*
X-11986981Y823077D01*
X-12077653Y779839D01*
X-12151750Y751281D01*
X-12216691Y736982D01*
X-12225009Y736600D01*
X-12315276Y757456D01*
X-12407531Y811517D01*
X-12482130Y886024D01*
X-12501188Y915967D01*
X-12541000Y1020176D01*
X-12539053Y1118898D01*
X-12505766Y1210782D01*
X-12463932Y1298941D01*
X-12594666Y1431319D01*
X-12663667Y1508663D01*
X-12709958Y1575669D01*
X-12725400Y1618235D01*
X-12702833Y1689953D01*
X-12643585Y1738318D01*
X-12575223Y1752600D01*
X-12422442Y1775140D01*
X-12272748Y1844063D01*
X-12122026Y1961331D01*
X-12107000Y1975541D01*
X-12022447Y2052196D01*
X-11939238Y2120073D01*
X-11872741Y2166795D01*
X-11861686Y2173109D01*
X-11758426Y2207383D01*
X-11631296Y2220731D01*
X-11502604Y2212910D01*
X-11502604Y2212910D01*
G37*
X-11502604Y2212910D02*
X-11394656Y2183677D01*
X-11383356Y2178315D01*
X-11322732Y2151945D01*
X-11281439Y2151639D01*
X-11240885Y2173129D01*
X-11171761Y2197462D01*
X-11117559Y2181693D01*
X-11088784Y2136326D01*
X-11095942Y2071868D01*
X-11111072Y2043316D01*
X-11133617Y1999060D01*
X-11130878Y1956988D01*
X-11105797Y1900845D01*
X-11075618Y1802781D01*
X-11064608Y1679941D01*
X-11072634Y1554541D01*
X-11099566Y1448796D01*
X-11108587Y1429269D01*
X-11146207Y1371897D01*
X-11207685Y1293171D01*
X-11281257Y1207952D01*
X-11299607Y1187969D01*
X-11387799Y1090642D01*
X-11446833Y1015821D01*
X-11483779Y950401D01*
X-11505705Y881275D01*
X-11519680Y795336D01*
X-11522086Y775465D01*
X-11546610Y655648D01*
X-11587024Y583559D01*
X-11644281Y558958D01*
X-11719334Y581602D01*
X-11813134Y651249D01*
X-11854843Y690939D01*
X-11986981Y823077D01*
X-12077653Y779839D01*
X-12151750Y751281D01*
X-12216691Y736982D01*
X-12225009Y736600D01*
X-12315276Y757456D01*
X-12407531Y811517D01*
X-12482130Y886024D01*
X-12501188Y915967D01*
X-12541000Y1020176D01*
X-12539053Y1118898D01*
X-12505766Y1210782D01*
X-12463932Y1298941D01*
X-12594666Y1431319D01*
X-12663667Y1508663D01*
X-12709958Y1575669D01*
X-12725400Y1618235D01*
X-12702833Y1689953D01*
X-12643585Y1738318D01*
X-12575223Y1752600D01*
X-12422442Y1775140D01*
X-12272748Y1844063D01*
X-12122026Y1961331D01*
X-12107000Y1975541D01*
X-12022447Y2052196D01*
X-11939238Y2120073D01*
X-11872741Y2166795D01*
X-11861686Y2173109D01*
X-11758426Y2207383D01*
X-11631296Y2220731D01*
X-11502604Y2212910D01*
G36*
X11618559Y2189110D02*
G01*
X11767220Y2097016D01*
X11863584Y2015923D01*
X11987455Y1909209D01*
X12090931Y1837751D01*
X12184128Y1796187D01*
X12277162Y1779158D01*
X12312532Y1778000D01*
X12415254Y1762047D01*
X12487253Y1717815D01*
X12520752Y1650745D01*
X12522200Y1631309D01*
X12505097Y1571852D01*
X12451198Y1495729D01*
X12392887Y1432759D01*
X12263575Y1301820D01*
X12303987Y1223672D01*
X12338330Y1108524D01*
X12329941Y992001D01*
X12282341Y887489D01*
X12199048Y808377D01*
X12194020Y805334D01*
X12111136Y774909D01*
X12011294Y763419D01*
X11915874Y771318D01*
X11847689Y797991D01*
X11819800Y813115D01*
X11790682Y810150D01*
X11750245Y783797D01*
X11688400Y728758D01*
X11654220Y696391D01*
X11570786Y620037D01*
X11511201Y577079D01*
X11464801Y563637D01*
X11420923Y575829D01*
X11384851Y598341D01*
X11336965Y661021D01*
X11328400Y714093D01*
X11315036Y852224D01*
X11271052Y976799D01*
X11190608Y1100699D01*
X11112075Y1191161D01*
X11034647Y1278069D01*
X10966160Y1362964D01*
X10918153Y1431280D01*
X10908723Y1447800D01*
X10874087Y1557347D01*
X10863843Y1688950D01*
X10878057Y1820070D01*
X10907386Y1910113D01*
X10934180Y1973850D01*
X10936949Y2014874D01*
X10916476Y2054802D01*
X10912814Y2060090D01*
X10891308Y2121249D01*
X10906207Y2173129D01*
X10945481Y2205582D01*
X10997101Y2208462D01*
X11047406Y2173621D01*
X11072793Y2154079D01*
X11109718Y2156142D01*
X11173729Y2181193D01*
X11183866Y2185763D01*
X11331513Y2232326D01*
X11474867Y2233827D01*
X11618559Y2189110D01*
X11618559Y2189110D01*
G37*
X11618559Y2189110D02*
X11767220Y2097016D01*
X11863584Y2015923D01*
X11987455Y1909209D01*
X12090931Y1837751D01*
X12184128Y1796187D01*
X12277162Y1779158D01*
X12312532Y1778000D01*
X12415254Y1762047D01*
X12487253Y1717815D01*
X12520752Y1650745D01*
X12522200Y1631309D01*
X12505097Y1571852D01*
X12451198Y1495729D01*
X12392887Y1432759D01*
X12263575Y1301820D01*
X12303987Y1223672D01*
X12338330Y1108524D01*
X12329941Y992001D01*
X12282341Y887489D01*
X12199048Y808377D01*
X12194020Y805334D01*
X12111136Y774909D01*
X12011294Y763419D01*
X11915874Y771318D01*
X11847689Y797991D01*
X11819800Y813115D01*
X11790682Y810150D01*
X11750245Y783797D01*
X11688400Y728758D01*
X11654220Y696391D01*
X11570786Y620037D01*
X11511201Y577079D01*
X11464801Y563637D01*
X11420923Y575829D01*
X11384851Y598341D01*
X11336965Y661021D01*
X11328400Y714093D01*
X11315036Y852224D01*
X11271052Y976799D01*
X11190608Y1100699D01*
X11112075Y1191161D01*
X11034647Y1278069D01*
X10966160Y1362964D01*
X10918153Y1431280D01*
X10908723Y1447800D01*
X10874087Y1557347D01*
X10863843Y1688950D01*
X10878057Y1820070D01*
X10907386Y1910113D01*
X10934180Y1973850D01*
X10936949Y2014874D01*
X10916476Y2054802D01*
X10912814Y2060090D01*
X10891308Y2121249D01*
X10906207Y2173129D01*
X10945481Y2205582D01*
X10997101Y2208462D01*
X11047406Y2173621D01*
X11072793Y2154079D01*
X11109718Y2156142D01*
X11173729Y2181193D01*
X11183866Y2185763D01*
X11331513Y2232326D01*
X11474867Y2233827D01*
X11618559Y2189110D01*
G36*
X-22023Y2469416D02*
G01*
X37614Y2423824D01*
X84393Y2353729D01*
X131079Y2252167D01*
X170839Y2138021D01*
X196837Y2030174D01*
X203200Y1966322D01*
X211702Y1905504D01*
X244892Y1875971D01*
X266057Y1869331D01*
X323686Y1835825D01*
X364521Y1785600D01*
X394447Y1744844D01*
X441794Y1716539D01*
X520499Y1693548D01*
X561573Y1684712D01*
X707718Y1645677D01*
X830815Y1594776D01*
X921978Y1536646D01*
X972320Y1475925D01*
X975099Y1468961D01*
X983893Y1372178D01*
X951923Y1266861D01*
X886168Y1161834D01*
X793608Y1065920D01*
X681222Y987943D01*
X555989Y936724D01*
X553585Y936082D01*
X478257Y918944D01*
X431981Y919614D01*
X395606Y939857D01*
X381620Y951939D01*
X342328Y1005262D01*
X305486Y1083283D01*
X294459Y1115653D01*
X279893Y1165457D01*
X269117Y1195365D01*
X259537Y1200211D01*
X248558Y1174828D01*
X233583Y1114049D01*
X212019Y1012708D01*
X190185Y908050D01*
X162570Y795972D01*
X134943Y732421D01*
X103961Y715232D01*
X66284Y742242D01*
X24855Y800982D01*
X-21303Y861223D01*
X-62859Y879578D01*
X-78817Y877182D01*
X-146246Y858133D01*
X-177573Y849261D01*
X-230551Y841852D01*
X-252966Y861001D01*
X-244790Y910712D01*
X-206000Y994993D01*
X-176294Y1049265D01*
X-95081Y1196225D01*
X-38961Y1306476D01*
X-5649Y1386103D01*
X7138Y1441192D01*
X1684Y1477826D01*
X-9524Y1493609D01*
X-29723Y1506256D01*
X-59666Y1506436D01*
X-107224Y1491354D01*
X-180267Y1458218D01*
X-286665Y1404236D01*
X-340108Y1376295D01*
X-450256Y1320748D01*
X-543921Y1277861D01*
X-612333Y1251331D01*
X-646721Y1244854D01*
X-648723Y1246255D01*
X-654792Y1288458D01*
X-649340Y1321028D01*
X-630016Y1389324D01*
X-621419Y1419784D01*
X-626148Y1462019D01*
X-670218Y1505393D01*
X-697619Y1523456D01*
X-753836Y1565738D01*
X-785109Y1603896D01*
X-787400Y1612936D01*
X-764528Y1633806D01*
X-704808Y1658827D01*
X-621591Y1684332D01*
X-528224Y1706659D01*
X-438058Y1722144D01*
X-371135Y1727200D01*
X-310466Y1736149D01*
X-296710Y1756683D01*
X-330548Y1779338D01*
X-366710Y1788726D01*
X-475091Y1827790D01*
X-541856Y1895352D01*
X-566083Y1989507D01*
X-546853Y2108348D01*
X-536029Y2139386D01*
X-479426Y2238647D01*
X-392928Y2333609D01*
X-289774Y2413921D01*
X-183200Y2469230D01*
X-88700Y2489200D01*
X-22023Y2469416D01*
X-22023Y2469416D01*
G37*
X-22023Y2469416D02*
X37614Y2423824D01*
X84393Y2353729D01*
X131079Y2252167D01*
X170839Y2138021D01*
X196837Y2030174D01*
X203200Y1966322D01*
X211702Y1905504D01*
X244892Y1875971D01*
X266057Y1869331D01*
X323686Y1835825D01*
X364521Y1785600D01*
X394447Y1744844D01*
X441794Y1716539D01*
X520499Y1693548D01*
X561573Y1684712D01*
X707718Y1645677D01*
X830815Y1594776D01*
X921978Y1536646D01*
X972320Y1475925D01*
X975099Y1468961D01*
X983893Y1372178D01*
X951923Y1266861D01*
X886168Y1161834D01*
X793608Y1065920D01*
X681222Y987943D01*
X555989Y936724D01*
X553585Y936082D01*
X478257Y918944D01*
X431981Y919614D01*
X395606Y939857D01*
X381620Y951939D01*
X342328Y1005262D01*
X305486Y1083283D01*
X294459Y1115653D01*
X279893Y1165457D01*
X269117Y1195365D01*
X259537Y1200211D01*
X248558Y1174828D01*
X233583Y1114049D01*
X212019Y1012708D01*
X190185Y908050D01*
X162570Y795972D01*
X134943Y732421D01*
X103961Y715232D01*
X66284Y742242D01*
X24855Y800982D01*
X-21303Y861223D01*
X-62859Y879578D01*
X-78817Y877182D01*
X-146246Y858133D01*
X-177573Y849261D01*
X-230551Y841852D01*
X-252966Y861001D01*
X-244790Y910712D01*
X-206000Y994993D01*
X-176294Y1049265D01*
X-95081Y1196225D01*
X-38961Y1306476D01*
X-5649Y1386103D01*
X7138Y1441192D01*
X1684Y1477826D01*
X-9524Y1493609D01*
X-29723Y1506256D01*
X-59666Y1506436D01*
X-107224Y1491354D01*
X-180267Y1458218D01*
X-286665Y1404236D01*
X-340108Y1376295D01*
X-450256Y1320748D01*
X-543921Y1277861D01*
X-612333Y1251331D01*
X-646721Y1244854D01*
X-648723Y1246255D01*
X-654792Y1288458D01*
X-649340Y1321028D01*
X-630016Y1389324D01*
X-621419Y1419784D01*
X-626148Y1462019D01*
X-670218Y1505393D01*
X-697619Y1523456D01*
X-753836Y1565738D01*
X-785109Y1603896D01*
X-787400Y1612936D01*
X-764528Y1633806D01*
X-704808Y1658827D01*
X-621591Y1684332D01*
X-528224Y1706659D01*
X-438058Y1722144D01*
X-371135Y1727200D01*
X-310466Y1736149D01*
X-296710Y1756683D01*
X-330548Y1779338D01*
X-366710Y1788726D01*
X-475091Y1827790D01*
X-541856Y1895352D01*
X-566083Y1989507D01*
X-546853Y2108348D01*
X-536029Y2139386D01*
X-479426Y2238647D01*
X-392928Y2333609D01*
X-289774Y2413921D01*
X-183200Y2469230D01*
X-88700Y2489200D01*
X-22023Y2469416D01*
G36*
X-214493Y37566206D02*
G01*
X-213967Y37566059D01*
X-125135Y37528622D01*
X-24656Y37460484D01*
X81283Y37369696D01*
X205020Y37263367D01*
X308760Y37192499D01*
X402713Y37151710D01*
X497090Y37135617D01*
X526932Y37134800D01*
X629654Y37118847D01*
X701653Y37074615D01*
X735152Y37007545D01*
X736600Y36988109D01*
X719497Y36928652D01*
X665598Y36852529D01*
X607287Y36789559D01*
X477975Y36658620D01*
X518387Y36580472D01*
X555023Y36461863D01*
X546723Y36347909D01*
X499169Y36247543D01*
X418046Y36169702D01*
X309036Y36123319D01*
X221872Y36114307D01*
X141665Y36124627D01*
X74749Y36148157D01*
X67533Y36152545D01*
X37420Y36168625D01*
X8291Y36167495D01*
X-30349Y36143879D01*
X-88995Y36092499D01*
X-131465Y36052505D01*
X-214975Y35976428D01*
X-274594Y35933691D01*
X-321016Y35920425D01*
X-364939Y35932764D01*
X-400749Y35955141D01*
X-444758Y36008001D01*
X-457200Y36085544D01*
X-470510Y36215399D01*
X-514201Y36334969D01*
X-593917Y36456270D01*
X-675258Y36549798D01*
X-752343Y36636397D01*
X-820502Y36721076D01*
X-868082Y36789105D01*
X-876877Y36804600D01*
X-911387Y36913055D01*
X-921922Y37042368D01*
X-908427Y37169546D01*
X-877962Y37258909D01*
X-850353Y37324872D01*
X-851414Y37373470D01*
X-863665Y37401621D01*
X-884019Y37464507D01*
X-884896Y37506112D01*
X-855879Y37547770D01*
X-804120Y37561290D01*
X-751357Y37543075D01*
X-738173Y37530395D01*
X-710176Y37506405D01*
X-675050Y37509818D01*
X-632883Y37529595D01*
X-503834Y37572948D01*
X-356442Y37585841D01*
X-214493Y37566206D01*
X-214493Y37566206D01*
G37*
X-214493Y37566206D02*
X-213967Y37566059D01*
X-125135Y37528622D01*
X-24656Y37460484D01*
X81283Y37369696D01*
X205020Y37263367D01*
X308760Y37192499D01*
X402713Y37151710D01*
X497090Y37135617D01*
X526932Y37134800D01*
X629654Y37118847D01*
X701653Y37074615D01*
X735152Y37007545D01*
X736600Y36988109D01*
X719497Y36928652D01*
X665598Y36852529D01*
X607287Y36789559D01*
X477975Y36658620D01*
X518387Y36580472D01*
X555023Y36461863D01*
X546723Y36347909D01*
X499169Y36247543D01*
X418046Y36169702D01*
X309036Y36123319D01*
X221872Y36114307D01*
X141665Y36124627D01*
X74749Y36148157D01*
X67533Y36152545D01*
X37420Y36168625D01*
X8291Y36167495D01*
X-30349Y36143879D01*
X-88995Y36092499D01*
X-131465Y36052505D01*
X-214975Y35976428D01*
X-274594Y35933691D01*
X-321016Y35920425D01*
X-364939Y35932764D01*
X-400749Y35955141D01*
X-444758Y36008001D01*
X-457200Y36085544D01*
X-470510Y36215399D01*
X-514201Y36334969D01*
X-593917Y36456270D01*
X-675258Y36549798D01*
X-752343Y36636397D01*
X-820502Y36721076D01*
X-868082Y36789105D01*
X-876877Y36804600D01*
X-911387Y36913055D01*
X-921922Y37042368D01*
X-908427Y37169546D01*
X-877962Y37258909D01*
X-850353Y37324872D01*
X-851414Y37373470D01*
X-863665Y37401621D01*
X-884019Y37464507D01*
X-884896Y37506112D01*
X-855879Y37547770D01*
X-804120Y37561290D01*
X-751357Y37543075D01*
X-738173Y37530395D01*
X-710176Y37506405D01*
X-675050Y37509818D01*
X-632883Y37529595D01*
X-503834Y37572948D01*
X-356442Y37585841D01*
X-214493Y37566206D01*
G36*
X-11826346Y37836234D02*
G01*
X-11776686Y37801961D01*
X-11722842Y37730094D01*
X-11670937Y37632782D01*
X-11627096Y37522174D01*
X-11597443Y37410420D01*
X-11591091Y37369526D01*
X-11576567Y37291439D01*
X-11557055Y37244474D01*
X-11545190Y37236400D01*
X-11506335Y37218010D01*
X-11458109Y37175047D01*
X-11418370Y37125823D01*
X-11404600Y37092251D01*
X-11381773Y37074498D01*
X-11323311Y37057941D01*
X-11275640Y37050403D01*
X-11167286Y37027751D01*
X-11049333Y36987862D01*
X-10939835Y36938175D01*
X-10856840Y36886134D01*
X-10839039Y36870410D01*
X-10800319Y36799793D01*
X-10801032Y36713600D01*
X-10835209Y36619045D01*
X-10896880Y36523342D01*
X-10980075Y36433705D01*
X-11078827Y36357347D01*
X-11187166Y36301482D01*
X-11299123Y36273323D01*
X-11334750Y36271342D01*
X-11398516Y36294690D01*
X-11452708Y36357796D01*
X-11488613Y36449623D01*
X-11493065Y36471822D01*
X-11511847Y36537364D01*
X-11533826Y36559814D01*
X-11551342Y36537682D01*
X-11557000Y36484266D01*
X-11563028Y36413692D01*
X-11578731Y36325577D01*
X-11600539Y36233436D01*
X-11624879Y36150783D01*
X-11648182Y36091133D01*
X-11666875Y36068003D01*
X-11666986Y36068001D01*
X-11699789Y36086363D01*
X-11747142Y36132536D01*
X-11766573Y36155572D01*
X-11813514Y36209246D01*
X-11849915Y36229028D01*
X-11894359Y36222649D01*
X-11912941Y36216476D01*
X-11979200Y36202084D01*
X-12029291Y36205103D01*
X-12052158Y36220459D01*
X-12048821Y36248925D01*
X-12018955Y36302949D01*
X-11984647Y36363236D01*
X-11936245Y36453147D01*
X-11882237Y36556802D01*
X-11861496Y36597507D01*
X-11811733Y36698228D01*
X-11783451Y36764320D01*
X-11773916Y36805813D01*
X-11780397Y36832736D01*
X-11793139Y36848424D01*
X-11813201Y36862271D01*
X-11841081Y36864299D01*
X-11884804Y36851724D01*
X-11952398Y36821765D01*
X-12051886Y36771636D01*
X-12125708Y36733095D01*
X-12235830Y36677507D01*
X-12329425Y36634509D01*
X-12397734Y36607813D01*
X-12431996Y36601129D01*
X-12433972Y36602487D01*
X-12437403Y36640669D01*
X-12426914Y36703922D01*
X-12423811Y36715811D01*
X-12411560Y36774605D01*
X-12421676Y36814333D01*
X-12462194Y36855545D01*
X-12486023Y36874902D01*
X-12539261Y36923243D01*
X-12569998Y36962501D01*
X-12573000Y36972133D01*
X-12550139Y36989272D01*
X-12490348Y37011394D01*
X-12406814Y37035185D01*
X-12312724Y37057331D01*
X-12221267Y37074518D01*
X-12145630Y37083434D01*
X-12127779Y37084000D01*
X-12080391Y37092786D01*
X-12065000Y37109400D01*
X-12085069Y37133099D01*
X-12096750Y37134942D01*
X-12188940Y37149306D01*
X-12273392Y37185650D01*
X-12331300Y37235058D01*
X-12340401Y37250465D01*
X-12357234Y37344415D01*
X-12334985Y37449630D01*
X-12281281Y37557418D01*
X-12203755Y37659082D01*
X-12110037Y37745928D01*
X-12007755Y37809261D01*
X-11904542Y37840387D01*
X-11826346Y37836234D01*
X-11826346Y37836234D01*
G37*
X-11826346Y37836234D02*
X-11776686Y37801961D01*
X-11722842Y37730094D01*
X-11670937Y37632782D01*
X-11627096Y37522174D01*
X-11597443Y37410420D01*
X-11591091Y37369526D01*
X-11576567Y37291439D01*
X-11557055Y37244474D01*
X-11545190Y37236400D01*
X-11506335Y37218010D01*
X-11458109Y37175047D01*
X-11418370Y37125823D01*
X-11404600Y37092251D01*
X-11381773Y37074498D01*
X-11323311Y37057941D01*
X-11275640Y37050403D01*
X-11167286Y37027751D01*
X-11049333Y36987862D01*
X-10939835Y36938175D01*
X-10856840Y36886134D01*
X-10839039Y36870410D01*
X-10800319Y36799793D01*
X-10801032Y36713600D01*
X-10835209Y36619045D01*
X-10896880Y36523342D01*
X-10980075Y36433705D01*
X-11078827Y36357347D01*
X-11187166Y36301482D01*
X-11299123Y36273323D01*
X-11334750Y36271342D01*
X-11398516Y36294690D01*
X-11452708Y36357796D01*
X-11488613Y36449623D01*
X-11493065Y36471822D01*
X-11511847Y36537364D01*
X-11533826Y36559814D01*
X-11551342Y36537682D01*
X-11557000Y36484266D01*
X-11563028Y36413692D01*
X-11578731Y36325577D01*
X-11600539Y36233436D01*
X-11624879Y36150783D01*
X-11648182Y36091133D01*
X-11666875Y36068003D01*
X-11666986Y36068001D01*
X-11699789Y36086363D01*
X-11747142Y36132536D01*
X-11766573Y36155572D01*
X-11813514Y36209246D01*
X-11849915Y36229028D01*
X-11894359Y36222649D01*
X-11912941Y36216476D01*
X-11979200Y36202084D01*
X-12029291Y36205103D01*
X-12052158Y36220459D01*
X-12048821Y36248925D01*
X-12018955Y36302949D01*
X-11984647Y36363236D01*
X-11936245Y36453147D01*
X-11882237Y36556802D01*
X-11861496Y36597507D01*
X-11811733Y36698228D01*
X-11783451Y36764320D01*
X-11773916Y36805813D01*
X-11780397Y36832736D01*
X-11793139Y36848424D01*
X-11813201Y36862271D01*
X-11841081Y36864299D01*
X-11884804Y36851724D01*
X-11952398Y36821765D01*
X-12051886Y36771636D01*
X-12125708Y36733095D01*
X-12235830Y36677507D01*
X-12329425Y36634509D01*
X-12397734Y36607813D01*
X-12431996Y36601129D01*
X-12433972Y36602487D01*
X-12437403Y36640669D01*
X-12426914Y36703922D01*
X-12423811Y36715811D01*
X-12411560Y36774605D01*
X-12421676Y36814333D01*
X-12462194Y36855545D01*
X-12486023Y36874902D01*
X-12539261Y36923243D01*
X-12569998Y36962501D01*
X-12573000Y36972133D01*
X-12550139Y36989272D01*
X-12490348Y37011394D01*
X-12406814Y37035185D01*
X-12312724Y37057331D01*
X-12221267Y37074518D01*
X-12145630Y37083434D01*
X-12127779Y37084000D01*
X-12080391Y37092786D01*
X-12065000Y37109400D01*
X-12085069Y37133099D01*
X-12096750Y37134942D01*
X-12188940Y37149306D01*
X-12273392Y37185650D01*
X-12331300Y37235058D01*
X-12340401Y37250465D01*
X-12357234Y37344415D01*
X-12334985Y37449630D01*
X-12281281Y37557418D01*
X-12203755Y37659082D01*
X-12110037Y37745928D01*
X-12007755Y37809261D01*
X-11904542Y37840387D01*
X-11826346Y37836234D01*
G36*
X12129176Y37837805D02*
G01*
X12224128Y37803596D01*
X12320581Y37742642D01*
X12411030Y37660952D01*
X12487972Y37564532D01*
X12543902Y37459391D01*
X12571316Y37351535D01*
X12572858Y37322376D01*
X12550827Y37262586D01*
X12494087Y37204540D01*
X12417511Y37161037D01*
X12369591Y37147465D01*
X12305109Y37128649D01*
X12284398Y37106562D01*
X12308668Y37089174D01*
X12359934Y37084000D01*
X12430508Y37077973D01*
X12518623Y37062270D01*
X12610764Y37040462D01*
X12693417Y37016122D01*
X12753067Y36992819D01*
X12776197Y36974126D01*
X12776199Y36974015D01*
X12757837Y36941212D01*
X12711664Y36893859D01*
X12688628Y36874428D01*
X12634954Y36827487D01*
X12615172Y36791086D01*
X12621551Y36746642D01*
X12627724Y36728060D01*
X12642116Y36661801D01*
X12639097Y36611710D01*
X12623741Y36588843D01*
X12595275Y36592180D01*
X12541251Y36622046D01*
X12480964Y36656354D01*
X12391053Y36704756D01*
X12287398Y36758764D01*
X12246693Y36779505D01*
X12145972Y36829268D01*
X12079880Y36857550D01*
X12038387Y36867085D01*
X12011464Y36860604D01*
X11995776Y36847862D01*
X11981929Y36827800D01*
X11979901Y36799920D01*
X11992476Y36756197D01*
X12022435Y36688603D01*
X12072564Y36589115D01*
X12111105Y36515293D01*
X12166693Y36405171D01*
X12209691Y36311576D01*
X12236387Y36243267D01*
X12243071Y36209005D01*
X12241713Y36207029D01*
X12203531Y36203598D01*
X12140278Y36214087D01*
X12128389Y36217190D01*
X12069595Y36229441D01*
X12029867Y36219325D01*
X11988655Y36178807D01*
X11969298Y36154978D01*
X11920795Y36101722D01*
X11881171Y36070990D01*
X11871388Y36068001D01*
X11854166Y36091168D01*
X11832132Y36153168D01*
X11808956Y36242744D01*
X11798895Y36290250D01*
X11772690Y36419802D01*
X11753309Y36503501D01*
X11738272Y36545434D01*
X11725100Y36549690D01*
X11711314Y36520355D01*
X11694615Y36462191D01*
X11651413Y36351773D01*
X11593691Y36287844D01*
X11536042Y36271200D01*
X11422803Y36291192D01*
X11308415Y36345405D01*
X11201228Y36425197D01*
X11109592Y36521927D01*
X11041856Y36626951D01*
X11006371Y36731629D01*
X11008581Y36817105D01*
X11042346Y36865178D01*
X11113545Y36917876D01*
X11209961Y36969097D01*
X11319373Y37012737D01*
X11429562Y37042692D01*
X11474674Y37049910D01*
X11552761Y37064434D01*
X11599726Y37083946D01*
X11607800Y37095811D01*
X11626190Y37134666D01*
X11669153Y37182892D01*
X11718377Y37222631D01*
X11751949Y37236400D01*
X11769702Y37259228D01*
X11786259Y37317690D01*
X11793797Y37365361D01*
X11816449Y37473715D01*
X11856338Y37591668D01*
X11906025Y37701166D01*
X11958066Y37784161D01*
X11973790Y37801962D01*
X12043229Y37839263D01*
X12129176Y37837805D01*
X12129176Y37837805D01*
G37*
X12129176Y37837805D02*
X12224128Y37803596D01*
X12320581Y37742642D01*
X12411030Y37660952D01*
X12487972Y37564532D01*
X12543902Y37459391D01*
X12571316Y37351535D01*
X12572858Y37322376D01*
X12550827Y37262586D01*
X12494087Y37204540D01*
X12417511Y37161037D01*
X12369591Y37147465D01*
X12305109Y37128649D01*
X12284398Y37106562D01*
X12308668Y37089174D01*
X12359934Y37084000D01*
X12430508Y37077973D01*
X12518623Y37062270D01*
X12610764Y37040462D01*
X12693417Y37016122D01*
X12753067Y36992819D01*
X12776197Y36974126D01*
X12776199Y36974015D01*
X12757837Y36941212D01*
X12711664Y36893859D01*
X12688628Y36874428D01*
X12634954Y36827487D01*
X12615172Y36791086D01*
X12621551Y36746642D01*
X12627724Y36728060D01*
X12642116Y36661801D01*
X12639097Y36611710D01*
X12623741Y36588843D01*
X12595275Y36592180D01*
X12541251Y36622046D01*
X12480964Y36656354D01*
X12391053Y36704756D01*
X12287398Y36758764D01*
X12246693Y36779505D01*
X12145972Y36829268D01*
X12079880Y36857550D01*
X12038387Y36867085D01*
X12011464Y36860604D01*
X11995776Y36847862D01*
X11981929Y36827800D01*
X11979901Y36799920D01*
X11992476Y36756197D01*
X12022435Y36688603D01*
X12072564Y36589115D01*
X12111105Y36515293D01*
X12166693Y36405171D01*
X12209691Y36311576D01*
X12236387Y36243267D01*
X12243071Y36209005D01*
X12241713Y36207029D01*
X12203531Y36203598D01*
X12140278Y36214087D01*
X12128389Y36217190D01*
X12069595Y36229441D01*
X12029867Y36219325D01*
X11988655Y36178807D01*
X11969298Y36154978D01*
X11920795Y36101722D01*
X11881171Y36070990D01*
X11871388Y36068001D01*
X11854166Y36091168D01*
X11832132Y36153168D01*
X11808956Y36242744D01*
X11798895Y36290250D01*
X11772690Y36419802D01*
X11753309Y36503501D01*
X11738272Y36545434D01*
X11725100Y36549690D01*
X11711314Y36520355D01*
X11694615Y36462191D01*
X11651413Y36351773D01*
X11593691Y36287844D01*
X11536042Y36271200D01*
X11422803Y36291192D01*
X11308415Y36345405D01*
X11201228Y36425197D01*
X11109592Y36521927D01*
X11041856Y36626951D01*
X11006371Y36731629D01*
X11008581Y36817105D01*
X11042346Y36865178D01*
X11113545Y36917876D01*
X11209961Y36969097D01*
X11319373Y37012737D01*
X11429562Y37042692D01*
X11474674Y37049910D01*
X11552761Y37064434D01*
X11599726Y37083946D01*
X11607800Y37095811D01*
X11626190Y37134666D01*
X11669153Y37182892D01*
X11718377Y37222631D01*
X11751949Y37236400D01*
X11769702Y37259228D01*
X11786259Y37317690D01*
X11793797Y37365361D01*
X11816449Y37473715D01*
X11856338Y37591668D01*
X11906025Y37701166D01*
X11958066Y37784161D01*
X11973790Y37801962D01*
X12043229Y37839263D01*
X12129176Y37837805D01*
G36*
X-11490127Y49364582D02*
G01*
X-11381722Y49325771D01*
X-11312488Y49296594D01*
X-11271265Y49289194D01*
X-11240652Y49302570D01*
X-11223918Y49316709D01*
X-11166940Y49345165D01*
X-11118002Y49333789D01*
X-11087702Y49293485D01*
X-11086637Y49235155D01*
X-11105328Y49194689D01*
X-11127645Y49149628D01*
X-11122678Y49105286D01*
X-11103446Y49062282D01*
X-11078186Y48989839D01*
X-11058952Y48896174D01*
X-11054125Y48854856D01*
X-11061368Y48716858D01*
X-11108643Y48581475D01*
X-11199045Y48441858D01*
X-11285953Y48341826D01*
X-11388596Y48225192D01*
X-11455552Y48126460D01*
X-11492697Y48034327D01*
X-11505910Y47937492D01*
X-11506200Y47918362D01*
X-11522418Y47814484D01*
X-11567214Y47740179D01*
X-11634808Y47703604D01*
X-11660121Y47701200D01*
X-11703520Y47717925D01*
X-11768750Y47761959D01*
X-11842332Y47824095D01*
X-11848494Y47829874D01*
X-11984547Y47958547D01*
X-12091885Y47922263D01*
X-12221275Y47900078D01*
X-12336698Y47920590D01*
X-12430419Y47978721D01*
X-12494702Y48069392D01*
X-12521810Y48187526D01*
X-12522200Y48204747D01*
X-12514724Y48288332D01*
X-12495867Y48357055D01*
X-12485598Y48375796D01*
X-12469330Y48404900D01*
X-12472512Y48434382D01*
X-12500538Y48475273D01*
X-12558801Y48538599D01*
X-12571822Y48552100D01*
X-12656045Y48645755D01*
X-12702300Y48717097D01*
X-12713128Y48774463D01*
X-12691071Y48826192D01*
X-12664632Y48856478D01*
X-12595652Y48904734D01*
X-12507894Y48920286D01*
X-12497139Y48920400D01*
X-12403358Y48928465D01*
X-12315846Y48956392D01*
X-12223930Y49009777D01*
X-12116933Y49094218D01*
X-12047577Y49156120D01*
X-11898390Y49276142D01*
X-11759891Y49349839D01*
X-11625873Y49378792D01*
X-11490127Y49364582D01*
X-11490127Y49364582D01*
G37*
X-11490127Y49364582D02*
X-11381722Y49325771D01*
X-11312488Y49296594D01*
X-11271265Y49289194D01*
X-11240652Y49302570D01*
X-11223918Y49316709D01*
X-11166940Y49345165D01*
X-11118002Y49333789D01*
X-11087702Y49293485D01*
X-11086637Y49235155D01*
X-11105328Y49194689D01*
X-11127645Y49149628D01*
X-11122678Y49105286D01*
X-11103446Y49062282D01*
X-11078186Y48989839D01*
X-11058952Y48896174D01*
X-11054125Y48854856D01*
X-11061368Y48716858D01*
X-11108643Y48581475D01*
X-11199045Y48441858D01*
X-11285953Y48341826D01*
X-11388596Y48225192D01*
X-11455552Y48126460D01*
X-11492697Y48034327D01*
X-11505910Y47937492D01*
X-11506200Y47918362D01*
X-11522418Y47814484D01*
X-11567214Y47740179D01*
X-11634808Y47703604D01*
X-11660121Y47701200D01*
X-11703520Y47717925D01*
X-11768750Y47761959D01*
X-11842332Y47824095D01*
X-11848494Y47829874D01*
X-11984547Y47958547D01*
X-12091885Y47922263D01*
X-12221275Y47900078D01*
X-12336698Y47920590D01*
X-12430419Y47978721D01*
X-12494702Y48069392D01*
X-12521810Y48187526D01*
X-12522200Y48204747D01*
X-12514724Y48288332D01*
X-12495867Y48357055D01*
X-12485598Y48375796D01*
X-12469330Y48404900D01*
X-12472512Y48434382D01*
X-12500538Y48475273D01*
X-12558801Y48538599D01*
X-12571822Y48552100D01*
X-12656045Y48645755D01*
X-12702300Y48717097D01*
X-12713128Y48774463D01*
X-12691071Y48826192D01*
X-12664632Y48856478D01*
X-12595652Y48904734D01*
X-12507894Y48920286D01*
X-12497139Y48920400D01*
X-12403358Y48928465D01*
X-12315846Y48956392D01*
X-12223930Y49009777D01*
X-12116933Y49094218D01*
X-12047577Y49156120D01*
X-11898390Y49276142D01*
X-11759891Y49349839D01*
X-11625873Y49378792D01*
X-11490127Y49364582D01*
G36*
X11541035Y49361920D02*
G01*
X11574727Y49354316D01*
X11665200Y49313802D01*
X11775966Y49234533D01*
X11863264Y49158617D01*
X11987149Y49051865D01*
X12090602Y48980350D01*
X12183728Y48938712D01*
X12276636Y48921593D01*
X12312532Y48920400D01*
X12415254Y48904447D01*
X12487253Y48860215D01*
X12520752Y48793145D01*
X12522200Y48773709D01*
X12505097Y48714252D01*
X12451198Y48638129D01*
X12392887Y48575159D01*
X12263575Y48444220D01*
X12303987Y48366072D01*
X12340167Y48249223D01*
X12333907Y48133080D01*
X12288547Y48029812D01*
X12207420Y47951586D01*
X12187158Y47939997D01*
X12089888Y47908556D01*
X11982573Y47902152D01*
X11887168Y47920906D01*
X11853133Y47938145D01*
X11823020Y47954225D01*
X11793891Y47953095D01*
X11755251Y47929479D01*
X11696605Y47878099D01*
X11654135Y47838105D01*
X11570625Y47762028D01*
X11511006Y47719291D01*
X11464584Y47706025D01*
X11420661Y47718364D01*
X11384851Y47740741D01*
X11340842Y47793601D01*
X11328400Y47871144D01*
X11315665Y47998831D01*
X11273658Y48116088D01*
X11196676Y48234946D01*
X11106936Y48338360D01*
X11030067Y48425488D01*
X10963513Y48511075D01*
X10918266Y48580632D01*
X10909419Y48598696D01*
X10881939Y48702712D01*
X10872504Y48825646D01*
X10881007Y48946182D01*
X10907336Y49043007D01*
X10911740Y49052121D01*
X10936985Y49116190D01*
X10931784Y49166172D01*
X10921935Y49187221D01*
X10901581Y49250107D01*
X10900704Y49291712D01*
X10929721Y49333370D01*
X10981480Y49346890D01*
X11034243Y49328675D01*
X11047427Y49315995D01*
X11074964Y49292125D01*
X11109321Y49294998D01*
X11154520Y49316128D01*
X11270312Y49355344D01*
X11407460Y49371363D01*
X11541035Y49361920D01*
X11541035Y49361920D01*
G37*
X11541035Y49361920D02*
X11574727Y49354316D01*
X11665200Y49313802D01*
X11775966Y49234533D01*
X11863264Y49158617D01*
X11987149Y49051865D01*
X12090602Y48980350D01*
X12183728Y48938712D01*
X12276636Y48921593D01*
X12312532Y48920400D01*
X12415254Y48904447D01*
X12487253Y48860215D01*
X12520752Y48793145D01*
X12522200Y48773709D01*
X12505097Y48714252D01*
X12451198Y48638129D01*
X12392887Y48575159D01*
X12263575Y48444220D01*
X12303987Y48366072D01*
X12340167Y48249223D01*
X12333907Y48133080D01*
X12288547Y48029812D01*
X12207420Y47951586D01*
X12187158Y47939997D01*
X12089888Y47908556D01*
X11982573Y47902152D01*
X11887168Y47920906D01*
X11853133Y47938145D01*
X11823020Y47954225D01*
X11793891Y47953095D01*
X11755251Y47929479D01*
X11696605Y47878099D01*
X11654135Y47838105D01*
X11570625Y47762028D01*
X11511006Y47719291D01*
X11464584Y47706025D01*
X11420661Y47718364D01*
X11384851Y47740741D01*
X11340842Y47793601D01*
X11328400Y47871144D01*
X11315665Y47998831D01*
X11273658Y48116088D01*
X11196676Y48234946D01*
X11106936Y48338360D01*
X11030067Y48425488D01*
X10963513Y48511075D01*
X10918266Y48580632D01*
X10909419Y48598696D01*
X10881939Y48702712D01*
X10872504Y48825646D01*
X10881007Y48946182D01*
X10907336Y49043007D01*
X10911740Y49052121D01*
X10936985Y49116190D01*
X10931784Y49166172D01*
X10921935Y49187221D01*
X10901581Y49250107D01*
X10900704Y49291712D01*
X10929721Y49333370D01*
X10981480Y49346890D01*
X11034243Y49328675D01*
X11047427Y49315995D01*
X11074964Y49292125D01*
X11109321Y49294998D01*
X11154520Y49316128D01*
X11270312Y49355344D01*
X11407460Y49371363D01*
X11541035Y49361920D01*
G36*
X12234093Y61368628D02*
G01*
X12337392Y61298195D01*
X12430319Y61205474D01*
X12504582Y61099266D01*
X12551889Y60988368D01*
X12563948Y60881581D01*
X12558208Y60846412D01*
X12542729Y60800110D01*
X12516523Y60769547D01*
X12466966Y60746001D01*
X12381429Y60720749D01*
X12373029Y60718494D01*
X12318223Y60702553D01*
X12292046Y60689344D01*
X12298793Y60676444D01*
X12342756Y60661435D01*
X12428230Y60641896D01*
X12553950Y60616505D01*
X12667583Y60590539D01*
X12743386Y60565660D01*
X12775504Y60543865D01*
X12776200Y60540677D01*
X12757507Y60506803D01*
X12710602Y60459813D01*
X12688699Y60442090D01*
X12634774Y60396850D01*
X12615173Y60361194D01*
X12621971Y60316502D01*
X12627795Y60299058D01*
X12646930Y60233230D01*
X12646407Y60193083D01*
X12621585Y60178687D01*
X12567822Y60190109D01*
X12480477Y60227418D01*
X12354907Y60290682D01*
X12330540Y60303438D01*
X12209040Y60366452D01*
X12124025Y60407743D01*
X12067480Y60430089D01*
X12031388Y60436269D01*
X12007733Y60429059D01*
X11996057Y60419343D01*
X11982082Y60399325D01*
X11979812Y60371730D01*
X11992026Y60328541D01*
X12021500Y60261743D01*
X12071013Y60163319D01*
X12111962Y60084860D01*
X12179457Y59952631D01*
X12220985Y59859381D01*
X12236615Y59800470D01*
X12226416Y59771255D01*
X12190455Y59767094D01*
X12128802Y59783346D01*
X12116342Y59787605D01*
X12065498Y59800617D01*
X12029127Y59789548D01*
X11988612Y59746469D01*
X11973310Y59726701D01*
X11925397Y59672804D01*
X11884826Y59641994D01*
X11874723Y59639200D01*
X11853635Y59663480D01*
X11829131Y59732418D01*
X11803208Y59840161D01*
X11798895Y59861450D01*
X11772690Y59991002D01*
X11753309Y60074701D01*
X11738272Y60116634D01*
X11725100Y60120890D01*
X11711314Y60091555D01*
X11694615Y60033391D01*
X11650851Y59921838D01*
X11592008Y59858426D01*
X11533095Y59842542D01*
X11418262Y59862894D01*
X11303037Y59917407D01*
X11195747Y59997465D01*
X11104717Y60094454D01*
X11038275Y60199758D01*
X11004748Y60304763D01*
X11007966Y60385855D01*
X11042239Y60435515D01*
X11114106Y60489359D01*
X11211418Y60541264D01*
X11322026Y60585105D01*
X11433780Y60614758D01*
X11474674Y60621110D01*
X11552761Y60635634D01*
X11599726Y60655146D01*
X11607800Y60667011D01*
X11626190Y60705866D01*
X11669153Y60754092D01*
X11718377Y60793831D01*
X11751949Y60807600D01*
X11769503Y60830466D01*
X11786105Y60889199D01*
X11794290Y60940726D01*
X11816822Y61049669D01*
X11855907Y61162160D01*
X11905422Y61266049D01*
X11959243Y61349187D01*
X12011246Y61399424D01*
X12029545Y61407434D01*
X12128713Y61407974D01*
X12234093Y61368628D01*
X12234093Y61368628D01*
G37*
X12234093Y61368628D02*
X12337392Y61298195D01*
X12430319Y61205474D01*
X12504582Y61099266D01*
X12551889Y60988368D01*
X12563948Y60881581D01*
X12558208Y60846412D01*
X12542729Y60800110D01*
X12516523Y60769547D01*
X12466966Y60746001D01*
X12381429Y60720749D01*
X12373029Y60718494D01*
X12318223Y60702553D01*
X12292046Y60689344D01*
X12298793Y60676444D01*
X12342756Y60661435D01*
X12428230Y60641896D01*
X12553950Y60616505D01*
X12667583Y60590539D01*
X12743386Y60565660D01*
X12775504Y60543865D01*
X12776200Y60540677D01*
X12757507Y60506803D01*
X12710602Y60459813D01*
X12688699Y60442090D01*
X12634774Y60396850D01*
X12615173Y60361194D01*
X12621971Y60316502D01*
X12627795Y60299058D01*
X12646930Y60233230D01*
X12646407Y60193083D01*
X12621585Y60178687D01*
X12567822Y60190109D01*
X12480477Y60227418D01*
X12354907Y60290682D01*
X12330540Y60303438D01*
X12209040Y60366452D01*
X12124025Y60407743D01*
X12067480Y60430089D01*
X12031388Y60436269D01*
X12007733Y60429059D01*
X11996057Y60419343D01*
X11982082Y60399325D01*
X11979812Y60371730D01*
X11992026Y60328541D01*
X12021500Y60261743D01*
X12071013Y60163319D01*
X12111962Y60084860D01*
X12179457Y59952631D01*
X12220985Y59859381D01*
X12236615Y59800470D01*
X12226416Y59771255D01*
X12190455Y59767094D01*
X12128802Y59783346D01*
X12116342Y59787605D01*
X12065498Y59800617D01*
X12029127Y59789548D01*
X11988612Y59746469D01*
X11973310Y59726701D01*
X11925397Y59672804D01*
X11884826Y59641994D01*
X11874723Y59639200D01*
X11853635Y59663480D01*
X11829131Y59732418D01*
X11803208Y59840161D01*
X11798895Y59861450D01*
X11772690Y59991002D01*
X11753309Y60074701D01*
X11738272Y60116634D01*
X11725100Y60120890D01*
X11711314Y60091555D01*
X11694615Y60033391D01*
X11650851Y59921838D01*
X11592008Y59858426D01*
X11533095Y59842542D01*
X11418262Y59862894D01*
X11303037Y59917407D01*
X11195747Y59997465D01*
X11104717Y60094454D01*
X11038275Y60199758D01*
X11004748Y60304763D01*
X11007966Y60385855D01*
X11042239Y60435515D01*
X11114106Y60489359D01*
X11211418Y60541264D01*
X11322026Y60585105D01*
X11433780Y60614758D01*
X11474674Y60621110D01*
X11552761Y60635634D01*
X11599726Y60655146D01*
X11607800Y60667011D01*
X11626190Y60705866D01*
X11669153Y60754092D01*
X11718377Y60793831D01*
X11751949Y60807600D01*
X11769503Y60830466D01*
X11786105Y60889199D01*
X11794290Y60940726D01*
X11816822Y61049669D01*
X11855907Y61162160D01*
X11905422Y61266049D01*
X11959243Y61349187D01*
X12011246Y61399424D01*
X12029545Y61407434D01*
X12128713Y61407974D01*
X12234093Y61368628D01*
D11*
G36*
X-12023569Y62991334D02*
G01*
X-11848837Y62965415D01*
X-11677488Y62922494D01*
X-11511170Y62862984D01*
X-11351486Y62787459D01*
X-11199974Y62696646D01*
X-11058092Y62591420D01*
X-10927208Y62472793D01*
X-10808581Y62341909D01*
X-10703355Y62200027D01*
X-10612542Y62048515D01*
X-10537017Y61888831D01*
X-10477507Y61722513D01*
X-10434586Y61551164D01*
X-10408667Y61376432D01*
X-10400000Y61200001D01*
X-10400000Y61199999D01*
X-10408667Y61023568D01*
X-10434586Y60848836D01*
X-10477507Y60677487D01*
X-10537017Y60511169D01*
X-10612542Y60351485D01*
X-10703355Y60199973D01*
X-10808581Y60058091D01*
X-10927208Y59927207D01*
X-11058092Y59808580D01*
X-11199974Y59703354D01*
X-11351486Y59612541D01*
X-11511170Y59537016D01*
X-11677488Y59477506D01*
X-11848837Y59434585D01*
X-12023569Y59408666D01*
X-12200000Y59399999D01*
X-13000000Y59399999D01*
X-13176431Y59408666D01*
X-13351163Y59434585D01*
X-13522512Y59477506D01*
X-13688830Y59537016D01*
X-13848514Y59612541D01*
X-14000026Y59703354D01*
X-14141908Y59808580D01*
X-14272792Y59927207D01*
X-14391419Y60058091D01*
X-14496645Y60199973D01*
X-14587458Y60351485D01*
X-14662983Y60511169D01*
X-14722493Y60677487D01*
X-14765414Y60848836D01*
X-14791333Y61023568D01*
X-14800000Y61199999D01*
X-14800000Y61200001D01*
X-14791333Y61376432D01*
X-14765414Y61551164D01*
X-14722493Y61722513D01*
X-14662983Y61888831D01*
X-14587458Y62048515D01*
X-14496645Y62200027D01*
X-14391419Y62341909D01*
X-14272792Y62472793D01*
X-14141908Y62591420D01*
X-14000026Y62696646D01*
X-13848514Y62787459D01*
X-13688830Y62862984D01*
X-13522512Y62922494D01*
X-13351163Y62965415D01*
X-13176431Y62991334D01*
X-13000000Y63000001D01*
X-12200000Y63000001D01*
X-12023569Y62991334D01*
X-12023569Y62991334D01*
G37*
D12*
X-12600000Y61200000D03*
D11*
G36*
X-12023569Y-59408666D02*
G01*
X-11848837Y-59434585D01*
X-11677488Y-59477506D01*
X-11511170Y-59537016D01*
X-11351486Y-59612541D01*
X-11199974Y-59703354D01*
X-11058092Y-59808580D01*
X-10927208Y-59927207D01*
X-10808581Y-60058091D01*
X-10703355Y-60199973D01*
X-10612542Y-60351485D01*
X-10537017Y-60511169D01*
X-10477507Y-60677487D01*
X-10434586Y-60848836D01*
X-10408667Y-61023568D01*
X-10400000Y-61199999D01*
X-10400000Y-61200001D01*
X-10408667Y-61376432D01*
X-10434586Y-61551164D01*
X-10477507Y-61722513D01*
X-10537017Y-61888831D01*
X-10612542Y-62048515D01*
X-10703355Y-62200027D01*
X-10808581Y-62341909D01*
X-10927208Y-62472793D01*
X-11058092Y-62591420D01*
X-11199974Y-62696646D01*
X-11351486Y-62787459D01*
X-11511170Y-62862984D01*
X-11677488Y-62922494D01*
X-11848837Y-62965415D01*
X-12023569Y-62991334D01*
X-12200000Y-63000001D01*
X-13000000Y-63000001D01*
X-13176431Y-62991334D01*
X-13351163Y-62965415D01*
X-13522512Y-62922494D01*
X-13688830Y-62862984D01*
X-13848514Y-62787459D01*
X-14000026Y-62696646D01*
X-14141908Y-62591420D01*
X-14272792Y-62472793D01*
X-14391419Y-62341909D01*
X-14496645Y-62200027D01*
X-14587458Y-62048515D01*
X-14662983Y-61888831D01*
X-14722493Y-61722513D01*
X-14765414Y-61551164D01*
X-14791333Y-61376432D01*
X-14800000Y-61200001D01*
X-14800000Y-61199999D01*
X-14791333Y-61023568D01*
X-14765414Y-60848836D01*
X-14722493Y-60677487D01*
X-14662983Y-60511169D01*
X-14587458Y-60351485D01*
X-14496645Y-60199973D01*
X-14391419Y-60058091D01*
X-14272792Y-59927207D01*
X-14141908Y-59808580D01*
X-14000026Y-59703354D01*
X-13848514Y-59612541D01*
X-13688830Y-59537016D01*
X-13522512Y-59477506D01*
X-13351163Y-59434585D01*
X-13176431Y-59408666D01*
X-13000000Y-59399999D01*
X-12200000Y-59399999D01*
X-12023569Y-59408666D01*
X-12023569Y-59408666D01*
G37*
D12*
X-12600000Y-61200000D03*
M02*
