G04 #@! TF.GenerationSoftware,KiCad,Pcbnew,(5.1.2)-2*
G04 #@! TF.CreationDate,2020-04-17T14:25:20-07:00*
G04 #@! TF.ProjectId,panel,70616e65-6c2e-46b6-9963-61645f706362,rev?*
G04 #@! TF.SameCoordinates,Original*
G04 #@! TF.FileFunction,Soldermask,Bot*
G04 #@! TF.FilePolarity,Negative*
%FSLAX46Y46*%
G04 Gerber Fmt 4.6, Leading zero omitted, Abs format (unit mm)*
G04 Created by KiCad (PCBNEW (5.1.2)-2) date 2020-04-17 14:25:20*
%MOMM*%
%LPD*%
G04 APERTURE LIST*
%ADD10C,0.010000*%
%ADD11C,0.100000*%
%ADD12C,3.600000*%
G04 APERTURE END LIST*
D10*
G36*
X-11671552Y-56612138D02*
G01*
X-11627858Y-56657430D01*
X-11620500Y-56668064D01*
X-11585898Y-56714641D01*
X-11550499Y-56734694D01*
X-11494987Y-56735153D01*
X-11449050Y-56729589D01*
X-11379132Y-56724434D01*
X-11335585Y-56729322D01*
X-11328400Y-56736020D01*
X-11340075Y-56766070D01*
X-11371765Y-56830508D01*
X-11418469Y-56919511D01*
X-11468626Y-57011454D01*
X-11544774Y-57156778D01*
X-11588944Y-57263184D01*
X-11599686Y-57332108D01*
X-11575552Y-57364986D01*
X-11515091Y-57363255D01*
X-11416855Y-57328350D01*
X-11279394Y-57261710D01*
X-11238084Y-57239914D01*
X-11132402Y-57185545D01*
X-11042503Y-57143162D01*
X-10977951Y-57117012D01*
X-10948383Y-57111293D01*
X-10938734Y-57143839D01*
X-10948793Y-57205639D01*
X-10949272Y-57207324D01*
X-10968170Y-57286208D01*
X-10963563Y-57335622D01*
X-10929288Y-57373843D01*
X-10882718Y-57404730D01*
X-10829014Y-57445467D01*
X-10802613Y-57480690D01*
X-10802257Y-57489352D01*
X-10830904Y-57509722D01*
X-10896749Y-57534304D01*
X-10986759Y-57559763D01*
X-11087896Y-57582762D01*
X-11187126Y-57599963D01*
X-11264900Y-57607771D01*
X-11366500Y-57612489D01*
X-11239500Y-57650670D01*
X-11127869Y-57692493D01*
X-11059901Y-57740598D01*
X-11028462Y-57801461D01*
X-11024158Y-57846086D01*
X-11047840Y-57968724D01*
X-11110985Y-58092910D01*
X-11204247Y-58206108D01*
X-11318282Y-58295781D01*
X-11384735Y-58329812D01*
X-11467840Y-58359879D01*
X-11525635Y-58365709D01*
X-11576850Y-58348383D01*
X-11589046Y-58341600D01*
X-11636234Y-58293495D01*
X-11686834Y-58208397D01*
X-11734762Y-58099215D01*
X-11773936Y-57978860D01*
X-11788305Y-57918687D01*
X-11812192Y-57824353D01*
X-11839415Y-57768304D01*
X-11876203Y-57738103D01*
X-11879555Y-57736518D01*
X-11936842Y-57692040D01*
X-11965997Y-57649743D01*
X-11995103Y-57611054D01*
X-12048564Y-57584272D01*
X-12138455Y-57562935D01*
X-12271675Y-57529243D01*
X-12394762Y-57482024D01*
X-12494790Y-57427315D01*
X-12558833Y-57371151D01*
X-12563648Y-57364356D01*
X-12587600Y-57284995D01*
X-12572343Y-57192123D01*
X-12524703Y-57093702D01*
X-12451509Y-56997692D01*
X-12359590Y-56912056D01*
X-12255774Y-56844755D01*
X-12146889Y-56803750D01*
X-12075287Y-56794957D01*
X-12003834Y-56808152D01*
X-11948967Y-56853656D01*
X-11904211Y-56938605D01*
X-11879871Y-57010300D01*
X-11857592Y-57082527D01*
X-11845715Y-57109723D01*
X-11840128Y-57095539D01*
X-11836972Y-57048400D01*
X-11826478Y-56953682D01*
X-11806509Y-56850091D01*
X-11780632Y-56750205D01*
X-11752412Y-56666601D01*
X-11725416Y-56611856D01*
X-11709103Y-56597432D01*
X-11671552Y-56612138D01*
X-11671552Y-56612138D01*
G37*
X-11671552Y-56612138D02*
X-11627858Y-56657430D01*
X-11620500Y-56668064D01*
X-11585898Y-56714641D01*
X-11550499Y-56734694D01*
X-11494987Y-56735153D01*
X-11449050Y-56729589D01*
X-11379132Y-56724434D01*
X-11335585Y-56729322D01*
X-11328400Y-56736020D01*
X-11340075Y-56766070D01*
X-11371765Y-56830508D01*
X-11418469Y-56919511D01*
X-11468626Y-57011454D01*
X-11544774Y-57156778D01*
X-11588944Y-57263184D01*
X-11599686Y-57332108D01*
X-11575552Y-57364986D01*
X-11515091Y-57363255D01*
X-11416855Y-57328350D01*
X-11279394Y-57261710D01*
X-11238084Y-57239914D01*
X-11132402Y-57185545D01*
X-11042503Y-57143162D01*
X-10977951Y-57117012D01*
X-10948383Y-57111293D01*
X-10938734Y-57143839D01*
X-10948793Y-57205639D01*
X-10949272Y-57207324D01*
X-10968170Y-57286208D01*
X-10963563Y-57335622D01*
X-10929288Y-57373843D01*
X-10882718Y-57404730D01*
X-10829014Y-57445467D01*
X-10802613Y-57480690D01*
X-10802257Y-57489352D01*
X-10830904Y-57509722D01*
X-10896749Y-57534304D01*
X-10986759Y-57559763D01*
X-11087896Y-57582762D01*
X-11187126Y-57599963D01*
X-11264900Y-57607771D01*
X-11366500Y-57612489D01*
X-11239500Y-57650670D01*
X-11127869Y-57692493D01*
X-11059901Y-57740598D01*
X-11028462Y-57801461D01*
X-11024158Y-57846086D01*
X-11047840Y-57968724D01*
X-11110985Y-58092910D01*
X-11204247Y-58206108D01*
X-11318282Y-58295781D01*
X-11384735Y-58329812D01*
X-11467840Y-58359879D01*
X-11525635Y-58365709D01*
X-11576850Y-58348383D01*
X-11589046Y-58341600D01*
X-11636234Y-58293495D01*
X-11686834Y-58208397D01*
X-11734762Y-58099215D01*
X-11773936Y-57978860D01*
X-11788305Y-57918687D01*
X-11812192Y-57824353D01*
X-11839415Y-57768304D01*
X-11876203Y-57738103D01*
X-11879555Y-57736518D01*
X-11936842Y-57692040D01*
X-11965997Y-57649743D01*
X-11995103Y-57611054D01*
X-12048564Y-57584272D01*
X-12138455Y-57562935D01*
X-12271675Y-57529243D01*
X-12394762Y-57482024D01*
X-12494790Y-57427315D01*
X-12558833Y-57371151D01*
X-12563648Y-57364356D01*
X-12587600Y-57284995D01*
X-12572343Y-57192123D01*
X-12524703Y-57093702D01*
X-12451509Y-56997692D01*
X-12359590Y-56912056D01*
X-12255774Y-56844755D01*
X-12146889Y-56803750D01*
X-12075287Y-56794957D01*
X-12003834Y-56808152D01*
X-11948967Y-56853656D01*
X-11904211Y-56938605D01*
X-11879871Y-57010300D01*
X-11857592Y-57082527D01*
X-11845715Y-57109723D01*
X-11840128Y-57095539D01*
X-11836972Y-57048400D01*
X-11826478Y-56953682D01*
X-11806509Y-56850091D01*
X-11780632Y-56750205D01*
X-11752412Y-56666601D01*
X-11725416Y-56611856D01*
X-11709103Y-56597432D01*
X-11671552Y-56612138D01*
G36*
X11917033Y-56614117D02*
G01*
X11940904Y-56674188D01*
X11965927Y-56758393D01*
X11988708Y-56853709D01*
X12005851Y-56947116D01*
X12013960Y-57025594D01*
X12014200Y-57037920D01*
X12021418Y-57082846D01*
X12038733Y-57084577D01*
X12059635Y-57047930D01*
X12074788Y-56993106D01*
X12112375Y-56880798D01*
X12170918Y-56814533D01*
X12244201Y-56794400D01*
X12371942Y-56817552D01*
X12499689Y-56881123D01*
X12614987Y-56976285D01*
X12705382Y-57094208D01*
X12727943Y-57137300D01*
X12766024Y-57238526D01*
X12769565Y-57313983D01*
X12737231Y-57376346D01*
X12698837Y-57413780D01*
X12628691Y-57457446D01*
X12527283Y-57502791D01*
X12413453Y-57543102D01*
X12306040Y-57571664D01*
X12227424Y-57581800D01*
X12180933Y-57593765D01*
X12166600Y-57615472D01*
X12147791Y-57657568D01*
X12103653Y-57707478D01*
X12052616Y-57747217D01*
X12018912Y-57759600D01*
X11995936Y-57781218D01*
X11988800Y-57820424D01*
X11977514Y-57904455D01*
X11948132Y-58012709D01*
X11907371Y-58126346D01*
X11861943Y-58226526D01*
X11820780Y-58291837D01*
X11760757Y-58346626D01*
X11695477Y-58365354D01*
X11612159Y-58349374D01*
X11542882Y-58321292D01*
X11437406Y-58254675D01*
X11344376Y-58161761D01*
X11270640Y-58053852D01*
X11223045Y-57942255D01*
X11208438Y-57838275D01*
X11218082Y-57785030D01*
X11253674Y-57734088D01*
X11326512Y-57693722D01*
X11360206Y-57681540D01*
X11451678Y-57647882D01*
X11494381Y-57624128D01*
X11487994Y-57610550D01*
X11447655Y-57607200D01*
X11372681Y-57601255D01*
X11280506Y-57585662D01*
X11184098Y-57563782D01*
X11096426Y-57538976D01*
X11030456Y-57514604D01*
X10999158Y-57494028D01*
X10998200Y-57490711D01*
X11017257Y-57455962D01*
X11064302Y-57411577D01*
X11076354Y-57402608D01*
X11122762Y-57365542D01*
X11143031Y-57329225D01*
X11143781Y-57274213D01*
X11137470Y-57223078D01*
X11130524Y-57144153D01*
X11141819Y-57106574D01*
X11178030Y-57107207D01*
X11245832Y-57142919D01*
X11272694Y-57159603D01*
X11358490Y-57210498D01*
X11456263Y-57263551D01*
X11553715Y-57312690D01*
X11638546Y-57351844D01*
X11698459Y-57374940D01*
X11716295Y-57378600D01*
X11763007Y-57362011D01*
X11780163Y-57348476D01*
X11787665Y-57324810D01*
X11777853Y-57280222D01*
X11748280Y-57208295D01*
X11696498Y-57102612D01*
X11658243Y-57028874D01*
X11601217Y-56919348D01*
X11553940Y-56826733D01*
X11520873Y-56759899D01*
X11506474Y-56727718D01*
X11506200Y-56726414D01*
X11528760Y-56722070D01*
X11586369Y-56725298D01*
X11630078Y-56730470D01*
X11706081Y-56738387D01*
X11751508Y-56730828D01*
X11785805Y-56701175D01*
X11809608Y-56669354D01*
X11853839Y-56618350D01*
X11892042Y-56592134D01*
X11897711Y-56591200D01*
X11917033Y-56614117D01*
X11917033Y-56614117D01*
G37*
X11917033Y-56614117D02*
X11940904Y-56674188D01*
X11965927Y-56758393D01*
X11988708Y-56853709D01*
X12005851Y-56947116D01*
X12013960Y-57025594D01*
X12014200Y-57037920D01*
X12021418Y-57082846D01*
X12038733Y-57084577D01*
X12059635Y-57047930D01*
X12074788Y-56993106D01*
X12112375Y-56880798D01*
X12170918Y-56814533D01*
X12244201Y-56794400D01*
X12371942Y-56817552D01*
X12499689Y-56881123D01*
X12614987Y-56976285D01*
X12705382Y-57094208D01*
X12727943Y-57137300D01*
X12766024Y-57238526D01*
X12769565Y-57313983D01*
X12737231Y-57376346D01*
X12698837Y-57413780D01*
X12628691Y-57457446D01*
X12527283Y-57502791D01*
X12413453Y-57543102D01*
X12306040Y-57571664D01*
X12227424Y-57581800D01*
X12180933Y-57593765D01*
X12166600Y-57615472D01*
X12147791Y-57657568D01*
X12103653Y-57707478D01*
X12052616Y-57747217D01*
X12018912Y-57759600D01*
X11995936Y-57781218D01*
X11988800Y-57820424D01*
X11977514Y-57904455D01*
X11948132Y-58012709D01*
X11907371Y-58126346D01*
X11861943Y-58226526D01*
X11820780Y-58291837D01*
X11760757Y-58346626D01*
X11695477Y-58365354D01*
X11612159Y-58349374D01*
X11542882Y-58321292D01*
X11437406Y-58254675D01*
X11344376Y-58161761D01*
X11270640Y-58053852D01*
X11223045Y-57942255D01*
X11208438Y-57838275D01*
X11218082Y-57785030D01*
X11253674Y-57734088D01*
X11326512Y-57693722D01*
X11360206Y-57681540D01*
X11451678Y-57647882D01*
X11494381Y-57624128D01*
X11487994Y-57610550D01*
X11447655Y-57607200D01*
X11372681Y-57601255D01*
X11280506Y-57585662D01*
X11184098Y-57563782D01*
X11096426Y-57538976D01*
X11030456Y-57514604D01*
X10999158Y-57494028D01*
X10998200Y-57490711D01*
X11017257Y-57455962D01*
X11064302Y-57411577D01*
X11076354Y-57402608D01*
X11122762Y-57365542D01*
X11143031Y-57329225D01*
X11143781Y-57274213D01*
X11137470Y-57223078D01*
X11130524Y-57144153D01*
X11141819Y-57106574D01*
X11178030Y-57107207D01*
X11245832Y-57142919D01*
X11272694Y-57159603D01*
X11358490Y-57210498D01*
X11456263Y-57263551D01*
X11553715Y-57312690D01*
X11638546Y-57351844D01*
X11698459Y-57374940D01*
X11716295Y-57378600D01*
X11763007Y-57362011D01*
X11780163Y-57348476D01*
X11787665Y-57324810D01*
X11777853Y-57280222D01*
X11748280Y-57208295D01*
X11696498Y-57102612D01*
X11658243Y-57028874D01*
X11601217Y-56919348D01*
X11553940Y-56826733D01*
X11520873Y-56759899D01*
X11506474Y-56727718D01*
X11506200Y-56726414D01*
X11528760Y-56722070D01*
X11586369Y-56725298D01*
X11630078Y-56730470D01*
X11706081Y-56738387D01*
X11751508Y-56730828D01*
X11785805Y-56701175D01*
X11809608Y-56669354D01*
X11853839Y-56618350D01*
X11892042Y-56592134D01*
X11897711Y-56591200D01*
X11917033Y-56614117D01*
G36*
X-238982Y-56480194D02*
G01*
X-148587Y-56557159D01*
X-135919Y-56569534D01*
X-3541Y-56700268D01*
X84618Y-56658434D01*
X159284Y-56630391D01*
X225798Y-56616908D01*
X232438Y-56616694D01*
X312113Y-56635944D01*
X399591Y-56685144D01*
X474761Y-56751798D01*
X497383Y-56781315D01*
X530566Y-56867690D01*
X538344Y-56970977D01*
X520406Y-57067028D01*
X501559Y-57104999D01*
X484157Y-57136076D01*
X483545Y-57164775D01*
X504906Y-57201760D01*
X553426Y-57257698D01*
X599695Y-57306864D01*
X665050Y-57381637D01*
X713437Y-57448338D01*
X735973Y-57494451D01*
X736600Y-57499777D01*
X713771Y-57562163D01*
X655435Y-57614778D01*
X576813Y-57645193D01*
X555148Y-57647916D01*
X443665Y-57659851D01*
X356080Y-57682787D01*
X276542Y-57724160D01*
X189202Y-57791403D01*
X122600Y-57850798D01*
X35123Y-57927892D01*
X-47572Y-57995265D01*
X-112520Y-58042565D01*
X-132814Y-58054706D01*
X-219820Y-58084288D01*
X-330906Y-58102106D01*
X-442647Y-58105953D01*
X-531615Y-58093622D01*
X-534884Y-58092594D01*
X-609669Y-58063394D01*
X-657647Y-58040473D01*
X-708591Y-58023354D01*
X-752089Y-58043324D01*
X-765600Y-58054957D01*
X-814095Y-58084811D01*
X-858440Y-58073624D01*
X-858737Y-58073438D01*
X-900127Y-58024142D01*
X-907160Y-57963181D01*
X-879447Y-57914611D01*
X-858936Y-57889373D01*
X-859765Y-57854152D01*
X-883192Y-57793097D01*
X-890363Y-57777133D01*
X-933146Y-57624398D01*
X-927624Y-57466741D01*
X-875245Y-57309499D01*
X-777459Y-57158006D01*
X-699384Y-57073800D01*
X-582462Y-56942704D01*
X-511677Y-56815182D01*
X-483454Y-56684340D01*
X-482600Y-56655711D01*
X-471354Y-56557904D01*
X-434849Y-56492733D01*
X-431800Y-56489600D01*
X-373295Y-56448385D01*
X-311453Y-56444593D01*
X-238982Y-56480194D01*
X-238982Y-56480194D01*
G37*
X-238982Y-56480194D02*
X-148587Y-56557159D01*
X-135919Y-56569534D01*
X-3541Y-56700268D01*
X84618Y-56658434D01*
X159284Y-56630391D01*
X225798Y-56616908D01*
X232438Y-56616694D01*
X312113Y-56635944D01*
X399591Y-56685144D01*
X474761Y-56751798D01*
X497383Y-56781315D01*
X530566Y-56867690D01*
X538344Y-56970977D01*
X520406Y-57067028D01*
X501559Y-57104999D01*
X484157Y-57136076D01*
X483545Y-57164775D01*
X504906Y-57201760D01*
X553426Y-57257698D01*
X599695Y-57306864D01*
X665050Y-57381637D01*
X713437Y-57448338D01*
X735973Y-57494451D01*
X736600Y-57499777D01*
X713771Y-57562163D01*
X655435Y-57614778D01*
X576813Y-57645193D01*
X555148Y-57647916D01*
X443665Y-57659851D01*
X356080Y-57682787D01*
X276542Y-57724160D01*
X189202Y-57791403D01*
X122600Y-57850798D01*
X35123Y-57927892D01*
X-47572Y-57995265D01*
X-112520Y-58042565D01*
X-132814Y-58054706D01*
X-219820Y-58084288D01*
X-330906Y-58102106D01*
X-442647Y-58105953D01*
X-531615Y-58093622D01*
X-534884Y-58092594D01*
X-609669Y-58063394D01*
X-657647Y-58040473D01*
X-708591Y-58023354D01*
X-752089Y-58043324D01*
X-765600Y-58054957D01*
X-814095Y-58084811D01*
X-858440Y-58073624D01*
X-858737Y-58073438D01*
X-900127Y-58024142D01*
X-907160Y-57963181D01*
X-879447Y-57914611D01*
X-858936Y-57889373D01*
X-859765Y-57854152D01*
X-883192Y-57793097D01*
X-890363Y-57777133D01*
X-933146Y-57624398D01*
X-927624Y-57466741D01*
X-875245Y-57309499D01*
X-777459Y-57158006D01*
X-699384Y-57073800D01*
X-582462Y-56942704D01*
X-511677Y-56815182D01*
X-483454Y-56684340D01*
X-482600Y-56655711D01*
X-471354Y-56557904D01*
X-434849Y-56492733D01*
X-431800Y-56489600D01*
X-373295Y-56448385D01*
X-311453Y-56444593D01*
X-238982Y-56480194D01*
G36*
X132203Y-21257325D02*
G01*
X155579Y-21317434D01*
X180197Y-21401731D01*
X202732Y-21497215D01*
X219860Y-21590889D01*
X228254Y-21669754D01*
X228600Y-21684701D01*
X234580Y-21727648D01*
X250638Y-21724874D01*
X273948Y-21679791D01*
X301413Y-21596764D01*
X343649Y-21502927D01*
X407457Y-21453655D01*
X498599Y-21445238D01*
X529724Y-21449682D01*
X654352Y-21494103D01*
X774386Y-21575047D01*
X877588Y-21680655D01*
X951721Y-21799063D01*
X980404Y-21886519D01*
X984127Y-21959477D01*
X956180Y-22015874D01*
X940394Y-22033867D01*
X860988Y-22094632D01*
X748529Y-22150629D01*
X620691Y-22194390D01*
X506426Y-22217221D01*
X432023Y-22231587D01*
X387677Y-22251327D01*
X381000Y-22262210D01*
X362273Y-22302027D01*
X318388Y-22350355D01*
X267788Y-22389637D01*
X233312Y-22402800D01*
X210336Y-22424418D01*
X203200Y-22463624D01*
X191914Y-22547655D01*
X162532Y-22655909D01*
X121771Y-22769546D01*
X76343Y-22869726D01*
X35180Y-22935037D01*
X-35427Y-22994074D01*
X-116111Y-23009528D01*
X-214824Y-22982142D01*
X-255863Y-22962172D01*
X-365698Y-22885980D01*
X-459176Y-22787163D01*
X-529843Y-22676610D01*
X-571246Y-22565210D01*
X-576929Y-22463849D01*
X-569435Y-22433194D01*
X-538430Y-22382748D01*
X-478035Y-22345611D01*
X-425442Y-22326600D01*
X-345865Y-22296632D01*
X-309574Y-22272170D01*
X-318520Y-22255880D01*
X-369636Y-22250400D01*
X-446620Y-22244120D01*
X-538372Y-22227714D01*
X-631594Y-22204831D01*
X-712984Y-22179119D01*
X-769243Y-22154226D01*
X-787400Y-22135793D01*
X-768300Y-22099764D01*
X-721164Y-22054695D01*
X-709246Y-22045808D01*
X-662838Y-22008742D01*
X-642569Y-21972425D01*
X-641819Y-21917413D01*
X-648130Y-21866278D01*
X-655539Y-21795217D01*
X-655665Y-21750408D01*
X-652186Y-21742400D01*
X-626045Y-21753536D01*
X-563911Y-21783971D01*
X-474689Y-21829237D01*
X-367284Y-21884872D01*
X-351352Y-21893209D01*
X-229751Y-21955810D01*
X-144305Y-21996349D01*
X-86920Y-22017711D01*
X-49499Y-22022781D01*
X-23945Y-22014443D01*
X-19571Y-22011439D01*
X-196Y-21992423D01*
X4829Y-21966727D01*
X-6938Y-21924125D01*
X-37939Y-21854393D01*
X-75311Y-21778080D01*
X-128630Y-21673000D01*
X-181286Y-21573114D01*
X-223767Y-21496371D01*
X-231907Y-21482533D01*
X-262736Y-21421143D01*
X-273415Y-21378019D01*
X-270616Y-21369549D01*
X-236854Y-21364168D01*
X-174464Y-21372759D01*
X-150438Y-21378547D01*
X-84223Y-21393121D01*
X-43169Y-21385548D01*
X-4813Y-21347978D01*
X16877Y-21320081D01*
X64272Y-21266845D01*
X104158Y-21236840D01*
X113396Y-21234400D01*
X132203Y-21257325D01*
X132203Y-21257325D01*
G37*
X132203Y-21257325D02*
X155579Y-21317434D01*
X180197Y-21401731D01*
X202732Y-21497215D01*
X219860Y-21590889D01*
X228254Y-21669754D01*
X228600Y-21684701D01*
X234580Y-21727648D01*
X250638Y-21724874D01*
X273948Y-21679791D01*
X301413Y-21596764D01*
X343649Y-21502927D01*
X407457Y-21453655D01*
X498599Y-21445238D01*
X529724Y-21449682D01*
X654352Y-21494103D01*
X774386Y-21575047D01*
X877588Y-21680655D01*
X951721Y-21799063D01*
X980404Y-21886519D01*
X984127Y-21959477D01*
X956180Y-22015874D01*
X940394Y-22033867D01*
X860988Y-22094632D01*
X748529Y-22150629D01*
X620691Y-22194390D01*
X506426Y-22217221D01*
X432023Y-22231587D01*
X387677Y-22251327D01*
X381000Y-22262210D01*
X362273Y-22302027D01*
X318388Y-22350355D01*
X267788Y-22389637D01*
X233312Y-22402800D01*
X210336Y-22424418D01*
X203200Y-22463624D01*
X191914Y-22547655D01*
X162532Y-22655909D01*
X121771Y-22769546D01*
X76343Y-22869726D01*
X35180Y-22935037D01*
X-35427Y-22994074D01*
X-116111Y-23009528D01*
X-214824Y-22982142D01*
X-255863Y-22962172D01*
X-365698Y-22885980D01*
X-459176Y-22787163D01*
X-529843Y-22676610D01*
X-571246Y-22565210D01*
X-576929Y-22463849D01*
X-569435Y-22433194D01*
X-538430Y-22382748D01*
X-478035Y-22345611D01*
X-425442Y-22326600D01*
X-345865Y-22296632D01*
X-309574Y-22272170D01*
X-318520Y-22255880D01*
X-369636Y-22250400D01*
X-446620Y-22244120D01*
X-538372Y-22227714D01*
X-631594Y-22204831D01*
X-712984Y-22179119D01*
X-769243Y-22154226D01*
X-787400Y-22135793D01*
X-768300Y-22099764D01*
X-721164Y-22054695D01*
X-709246Y-22045808D01*
X-662838Y-22008742D01*
X-642569Y-21972425D01*
X-641819Y-21917413D01*
X-648130Y-21866278D01*
X-655539Y-21795217D01*
X-655665Y-21750408D01*
X-652186Y-21742400D01*
X-626045Y-21753536D01*
X-563911Y-21783971D01*
X-474689Y-21829237D01*
X-367284Y-21884872D01*
X-351352Y-21893209D01*
X-229751Y-21955810D01*
X-144305Y-21996349D01*
X-86920Y-22017711D01*
X-49499Y-22022781D01*
X-23945Y-22014443D01*
X-19571Y-22011439D01*
X-196Y-21992423D01*
X4829Y-21966727D01*
X-6938Y-21924125D01*
X-37939Y-21854393D01*
X-75311Y-21778080D01*
X-128630Y-21673000D01*
X-181286Y-21573114D01*
X-223767Y-21496371D01*
X-231907Y-21482533D01*
X-262736Y-21421143D01*
X-273415Y-21378019D01*
X-270616Y-21369549D01*
X-236854Y-21364168D01*
X-174464Y-21372759D01*
X-150438Y-21378547D01*
X-84223Y-21393121D01*
X-43169Y-21385548D01*
X-4813Y-21347978D01*
X16877Y-21320081D01*
X64272Y-21266845D01*
X104158Y-21236840D01*
X113396Y-21234400D01*
X132203Y-21257325D01*
G36*
X-11599457Y-21105794D02*
G01*
X-11552067Y-21176695D01*
X-11522711Y-21293981D01*
X-11520787Y-21308222D01*
X-11505087Y-21401786D01*
X-11480127Y-21480338D01*
X-11439190Y-21555951D01*
X-11375561Y-21640699D01*
X-11282523Y-21746655D01*
X-11268155Y-21762358D01*
X-11185272Y-21856627D01*
X-11131150Y-21930612D01*
X-11097167Y-21998424D01*
X-11074700Y-22074177D01*
X-11072935Y-22081925D01*
X-11057099Y-22166363D01*
X-11055728Y-22233737D01*
X-11070430Y-22307198D01*
X-11093841Y-22382861D01*
X-11121116Y-22470022D01*
X-11131922Y-22523523D01*
X-11127035Y-22557491D01*
X-11107228Y-22586051D01*
X-11105102Y-22588436D01*
X-11078363Y-22636148D01*
X-11090762Y-22677336D01*
X-11140471Y-22718975D01*
X-11201839Y-22725348D01*
X-11250628Y-22696794D01*
X-11277897Y-22673228D01*
X-11312159Y-22675855D01*
X-11360474Y-22698351D01*
X-11431207Y-22723548D01*
X-11525683Y-22743361D01*
X-11580169Y-22749845D01*
X-11685525Y-22751207D01*
X-11774160Y-22731541D01*
X-11849100Y-22699243D01*
X-11938681Y-22644865D01*
X-12034353Y-22570639D01*
X-12090400Y-22517983D01*
X-12221496Y-22401061D01*
X-12349018Y-22330276D01*
X-12479860Y-22302053D01*
X-12508489Y-22301200D01*
X-12606296Y-22289953D01*
X-12671467Y-22253448D01*
X-12674600Y-22250400D01*
X-12716000Y-22191259D01*
X-12719316Y-22128644D01*
X-12682653Y-22055338D01*
X-12604117Y-21964126D01*
X-12597681Y-21957571D01*
X-12469962Y-21828246D01*
X-12508781Y-21735338D01*
X-12541526Y-21632187D01*
X-12540636Y-21543673D01*
X-12505801Y-21446096D01*
X-12504980Y-21444360D01*
X-12436418Y-21354998D01*
X-12337758Y-21296292D01*
X-12223532Y-21274641D01*
X-12142567Y-21284831D01*
X-12075183Y-21307930D01*
X-12031158Y-21332127D01*
X-12025527Y-21338223D01*
X-12000890Y-21334617D01*
X-11949663Y-21300276D01*
X-11880377Y-21241172D01*
X-11861240Y-21223232D01*
X-11785714Y-21156710D01*
X-11718306Y-21107042D01*
X-11671224Y-21082988D01*
X-11664423Y-21082000D01*
X-11599457Y-21105794D01*
X-11599457Y-21105794D01*
G37*
X-11599457Y-21105794D02*
X-11552067Y-21176695D01*
X-11522711Y-21293981D01*
X-11520787Y-21308222D01*
X-11505087Y-21401786D01*
X-11480127Y-21480338D01*
X-11439190Y-21555951D01*
X-11375561Y-21640699D01*
X-11282523Y-21746655D01*
X-11268155Y-21762358D01*
X-11185272Y-21856627D01*
X-11131150Y-21930612D01*
X-11097167Y-21998424D01*
X-11074700Y-22074177D01*
X-11072935Y-22081925D01*
X-11057099Y-22166363D01*
X-11055728Y-22233737D01*
X-11070430Y-22307198D01*
X-11093841Y-22382861D01*
X-11121116Y-22470022D01*
X-11131922Y-22523523D01*
X-11127035Y-22557491D01*
X-11107228Y-22586051D01*
X-11105102Y-22588436D01*
X-11078363Y-22636148D01*
X-11090762Y-22677336D01*
X-11140471Y-22718975D01*
X-11201839Y-22725348D01*
X-11250628Y-22696794D01*
X-11277897Y-22673228D01*
X-11312159Y-22675855D01*
X-11360474Y-22698351D01*
X-11431207Y-22723548D01*
X-11525683Y-22743361D01*
X-11580169Y-22749845D01*
X-11685525Y-22751207D01*
X-11774160Y-22731541D01*
X-11849100Y-22699243D01*
X-11938681Y-22644865D01*
X-12034353Y-22570639D01*
X-12090400Y-22517983D01*
X-12221496Y-22401061D01*
X-12349018Y-22330276D01*
X-12479860Y-22302053D01*
X-12508489Y-22301200D01*
X-12606296Y-22289953D01*
X-12671467Y-22253448D01*
X-12674600Y-22250400D01*
X-12716000Y-22191259D01*
X-12719316Y-22128644D01*
X-12682653Y-22055338D01*
X-12604117Y-21964126D01*
X-12597681Y-21957571D01*
X-12469962Y-21828246D01*
X-12508781Y-21735338D01*
X-12541526Y-21632187D01*
X-12540636Y-21543673D01*
X-12505801Y-21446096D01*
X-12504980Y-21444360D01*
X-12436418Y-21354998D01*
X-12337758Y-21296292D01*
X-12223532Y-21274641D01*
X-12142567Y-21284831D01*
X-12075183Y-21307930D01*
X-12031158Y-21332127D01*
X-12025527Y-21338223D01*
X-12000890Y-21334617D01*
X-11949663Y-21300276D01*
X-11880377Y-21241172D01*
X-11861240Y-21223232D01*
X-11785714Y-21156710D01*
X-11718306Y-21107042D01*
X-11671224Y-21082988D01*
X-11664423Y-21082000D01*
X-11599457Y-21105794D01*
G36*
X11503185Y-21098806D02*
G01*
X11566470Y-21143207D01*
X11639729Y-21206173D01*
X11651164Y-21217013D01*
X11791661Y-21352027D01*
X11889340Y-21303700D01*
X12002130Y-21270223D01*
X12109606Y-21286021D01*
X12216312Y-21351683D01*
X12298230Y-21449142D01*
X12332093Y-21561712D01*
X12317434Y-21686731D01*
X12287931Y-21761039D01*
X12277371Y-21794401D01*
X12285348Y-21828837D01*
X12317618Y-21875239D01*
X12379933Y-21944498D01*
X12391127Y-21956369D01*
X12477777Y-22060916D01*
X12518498Y-22144482D01*
X12512691Y-22209023D01*
X12459753Y-22256496D01*
X12359085Y-22288854D01*
X12285360Y-22300646D01*
X12202588Y-22311965D01*
X12140448Y-22326272D01*
X12086884Y-22350220D01*
X12029843Y-22390463D01*
X11957273Y-22453654D01*
X11881949Y-22523324D01*
X11719785Y-22651626D01*
X11562184Y-22729765D01*
X11407992Y-22758056D01*
X11256051Y-22736812D01*
X11189008Y-22711582D01*
X11121758Y-22684616D01*
X11076924Y-22680442D01*
X11031909Y-22698302D01*
X11018429Y-22705862D01*
X10966973Y-22730758D01*
X10933574Y-22726050D01*
X10903857Y-22700342D01*
X10874901Y-22664774D01*
X10875560Y-22630565D01*
X10899473Y-22583790D01*
X10925280Y-22529165D01*
X10922584Y-22485361D01*
X10900200Y-22438611D01*
X10871754Y-22350212D01*
X10859995Y-22234246D01*
X10864666Y-22111038D01*
X10885508Y-22000914D01*
X10906414Y-21948167D01*
X10945002Y-21890228D01*
X11007998Y-21810294D01*
X11084065Y-21722469D01*
X11113434Y-21690605D01*
X11186924Y-21610693D01*
X11235993Y-21548269D01*
X11267416Y-21488330D01*
X11287972Y-21415874D01*
X11304437Y-21315899D01*
X11313747Y-21247183D01*
X11343614Y-21151482D01*
X11400785Y-21095690D01*
X11462488Y-21082000D01*
X11503185Y-21098806D01*
X11503185Y-21098806D01*
G37*
X11503185Y-21098806D02*
X11566470Y-21143207D01*
X11639729Y-21206173D01*
X11651164Y-21217013D01*
X11791661Y-21352027D01*
X11889340Y-21303700D01*
X12002130Y-21270223D01*
X12109606Y-21286021D01*
X12216312Y-21351683D01*
X12298230Y-21449142D01*
X12332093Y-21561712D01*
X12317434Y-21686731D01*
X12287931Y-21761039D01*
X12277371Y-21794401D01*
X12285348Y-21828837D01*
X12317618Y-21875239D01*
X12379933Y-21944498D01*
X12391127Y-21956369D01*
X12477777Y-22060916D01*
X12518498Y-22144482D01*
X12512691Y-22209023D01*
X12459753Y-22256496D01*
X12359085Y-22288854D01*
X12285360Y-22300646D01*
X12202588Y-22311965D01*
X12140448Y-22326272D01*
X12086884Y-22350220D01*
X12029843Y-22390463D01*
X11957273Y-22453654D01*
X11881949Y-22523324D01*
X11719785Y-22651626D01*
X11562184Y-22729765D01*
X11407992Y-22758056D01*
X11256051Y-22736812D01*
X11189008Y-22711582D01*
X11121758Y-22684616D01*
X11076924Y-22680442D01*
X11031909Y-22698302D01*
X11018429Y-22705862D01*
X10966973Y-22730758D01*
X10933574Y-22726050D01*
X10903857Y-22700342D01*
X10874901Y-22664774D01*
X10875560Y-22630565D01*
X10899473Y-22583790D01*
X10925280Y-22529165D01*
X10922584Y-22485361D01*
X10900200Y-22438611D01*
X10871754Y-22350212D01*
X10859995Y-22234246D01*
X10864666Y-22111038D01*
X10885508Y-22000914D01*
X10906414Y-21948167D01*
X10945002Y-21890228D01*
X11007998Y-21810294D01*
X11084065Y-21722469D01*
X11113434Y-21690605D01*
X11186924Y-21610693D01*
X11235993Y-21548269D01*
X11267416Y-21488330D01*
X11287972Y-21415874D01*
X11304437Y-21315899D01*
X11313747Y-21247183D01*
X11343614Y-21151482D01*
X11400785Y-21095690D01*
X11462488Y-21082000D01*
X11503185Y-21098806D01*
G36*
X-11669913Y-9452911D02*
G01*
X-11630646Y-9507652D01*
X-11629147Y-9509990D01*
X-11590374Y-9565642D01*
X-11555228Y-9590552D01*
X-11503603Y-9593314D01*
X-11449050Y-9586953D01*
X-11365706Y-9581451D01*
X-11329934Y-9593249D01*
X-11328400Y-9599016D01*
X-11340316Y-9631723D01*
X-11372445Y-9697550D01*
X-11419357Y-9785763D01*
X-11456558Y-9852403D01*
X-11533862Y-9998754D01*
X-11578128Y-10108349D01*
X-11589732Y-10182698D01*
X-11569046Y-10223311D01*
X-11550183Y-10230807D01*
X-11511119Y-10223037D01*
X-11438191Y-10194988D01*
X-11341906Y-10151116D01*
X-11235226Y-10097180D01*
X-11129152Y-10043547D01*
X-11039036Y-10002685D01*
X-10974302Y-9978545D01*
X-10944375Y-9975075D01*
X-10944219Y-9975221D01*
X-10937623Y-10010771D01*
X-10947329Y-10072988D01*
X-10952534Y-10091595D01*
X-10968658Y-10156403D01*
X-10962830Y-10193623D01*
X-10932858Y-10222236D01*
X-10855061Y-10279494D01*
X-10812350Y-10315750D01*
X-10797799Y-10338561D01*
X-10804481Y-10355482D01*
X-10807700Y-10358771D01*
X-10846049Y-10377073D01*
X-10920154Y-10399717D01*
X-11015550Y-10423391D01*
X-11117773Y-10444788D01*
X-11212358Y-10460596D01*
X-11282615Y-10467444D01*
X-11327091Y-10470086D01*
X-11333361Y-10476517D01*
X-11297569Y-10490392D01*
X-11239500Y-10508270D01*
X-11129145Y-10549236D01*
X-11061746Y-10596196D01*
X-11029477Y-10656501D01*
X-11023600Y-10711048D01*
X-11046235Y-10828176D01*
X-11107894Y-10948415D01*
X-11199214Y-11059413D01*
X-11310832Y-11148818D01*
X-11384735Y-11187412D01*
X-11473687Y-11218657D01*
X-11536098Y-11221607D01*
X-11588502Y-11194891D01*
X-11618049Y-11168060D01*
X-11667118Y-11099135D01*
X-11716949Y-10996141D01*
X-11760950Y-10875275D01*
X-11792530Y-10752732D01*
X-11796939Y-10728465D01*
X-11820498Y-10647942D01*
X-11862707Y-10602699D01*
X-11876547Y-10595489D01*
X-11935551Y-10550229D01*
X-11966966Y-10505218D01*
X-11997804Y-10463308D01*
X-12052203Y-10438591D01*
X-12117011Y-10426533D01*
X-12219232Y-10403625D01*
X-12327884Y-10365150D01*
X-12429999Y-10317414D01*
X-12512608Y-10266725D01*
X-12562744Y-10219389D01*
X-12569654Y-10206407D01*
X-12581019Y-10107596D01*
X-12551556Y-10002587D01*
X-12489297Y-9899088D01*
X-12402273Y-9804808D01*
X-12298518Y-9727452D01*
X-12186062Y-9674729D01*
X-12072939Y-9654346D01*
X-12002505Y-9662178D01*
X-11963545Y-9681292D01*
X-11932278Y-9723524D01*
X-11901290Y-9800303D01*
X-11889464Y-9836423D01*
X-11864572Y-9906817D01*
X-11846159Y-9943419D01*
X-11837934Y-9939028D01*
X-11837827Y-9936679D01*
X-11830557Y-9862322D01*
X-11813912Y-9766112D01*
X-11791329Y-9662502D01*
X-11766244Y-9565941D01*
X-11742096Y-9490881D01*
X-11722548Y-9452003D01*
X-11696996Y-9436566D01*
X-11669913Y-9452911D01*
X-11669913Y-9452911D01*
G37*
X-11669913Y-9452911D02*
X-11630646Y-9507652D01*
X-11629147Y-9509990D01*
X-11590374Y-9565642D01*
X-11555228Y-9590552D01*
X-11503603Y-9593314D01*
X-11449050Y-9586953D01*
X-11365706Y-9581451D01*
X-11329934Y-9593249D01*
X-11328400Y-9599016D01*
X-11340316Y-9631723D01*
X-11372445Y-9697550D01*
X-11419357Y-9785763D01*
X-11456558Y-9852403D01*
X-11533862Y-9998754D01*
X-11578128Y-10108349D01*
X-11589732Y-10182698D01*
X-11569046Y-10223311D01*
X-11550183Y-10230807D01*
X-11511119Y-10223037D01*
X-11438191Y-10194988D01*
X-11341906Y-10151116D01*
X-11235226Y-10097180D01*
X-11129152Y-10043547D01*
X-11039036Y-10002685D01*
X-10974302Y-9978545D01*
X-10944375Y-9975075D01*
X-10944219Y-9975221D01*
X-10937623Y-10010771D01*
X-10947329Y-10072988D01*
X-10952534Y-10091595D01*
X-10968658Y-10156403D01*
X-10962830Y-10193623D01*
X-10932858Y-10222236D01*
X-10855061Y-10279494D01*
X-10812350Y-10315750D01*
X-10797799Y-10338561D01*
X-10804481Y-10355482D01*
X-10807700Y-10358771D01*
X-10846049Y-10377073D01*
X-10920154Y-10399717D01*
X-11015550Y-10423391D01*
X-11117773Y-10444788D01*
X-11212358Y-10460596D01*
X-11282615Y-10467444D01*
X-11327091Y-10470086D01*
X-11333361Y-10476517D01*
X-11297569Y-10490392D01*
X-11239500Y-10508270D01*
X-11129145Y-10549236D01*
X-11061746Y-10596196D01*
X-11029477Y-10656501D01*
X-11023600Y-10711048D01*
X-11046235Y-10828176D01*
X-11107894Y-10948415D01*
X-11199214Y-11059413D01*
X-11310832Y-11148818D01*
X-11384735Y-11187412D01*
X-11473687Y-11218657D01*
X-11536098Y-11221607D01*
X-11588502Y-11194891D01*
X-11618049Y-11168060D01*
X-11667118Y-11099135D01*
X-11716949Y-10996141D01*
X-11760950Y-10875275D01*
X-11792530Y-10752732D01*
X-11796939Y-10728465D01*
X-11820498Y-10647942D01*
X-11862707Y-10602699D01*
X-11876547Y-10595489D01*
X-11935551Y-10550229D01*
X-11966966Y-10505218D01*
X-11997804Y-10463308D01*
X-12052203Y-10438591D01*
X-12117011Y-10426533D01*
X-12219232Y-10403625D01*
X-12327884Y-10365150D01*
X-12429999Y-10317414D01*
X-12512608Y-10266725D01*
X-12562744Y-10219389D01*
X-12569654Y-10206407D01*
X-12581019Y-10107596D01*
X-12551556Y-10002587D01*
X-12489297Y-9899088D01*
X-12402273Y-9804808D01*
X-12298518Y-9727452D01*
X-12186062Y-9674729D01*
X-12072939Y-9654346D01*
X-12002505Y-9662178D01*
X-11963545Y-9681292D01*
X-11932278Y-9723524D01*
X-11901290Y-9800303D01*
X-11889464Y-9836423D01*
X-11864572Y-9906817D01*
X-11846159Y-9943419D01*
X-11837934Y-9939028D01*
X-11837827Y-9936679D01*
X-11830557Y-9862322D01*
X-11813912Y-9766112D01*
X-11791329Y-9662502D01*
X-11766244Y-9565941D01*
X-11742096Y-9490881D01*
X-11722548Y-9452003D01*
X-11696996Y-9436566D01*
X-11669913Y-9452911D01*
G36*
X11919984Y-9473791D02*
G01*
X11947369Y-9539994D01*
X11977206Y-9648557D01*
X12011004Y-9802652D01*
X12031343Y-9905450D01*
X12040359Y-9934119D01*
X12052901Y-9927218D01*
X12073079Y-9879589D01*
X12089480Y-9832516D01*
X12129649Y-9733519D01*
X12171657Y-9676774D01*
X12222558Y-9654003D01*
X12242800Y-9652530D01*
X12365148Y-9673868D01*
X12487525Y-9733100D01*
X12599873Y-9820739D01*
X12692136Y-9927296D01*
X12754256Y-10043282D01*
X12776200Y-10155759D01*
X12760985Y-10224130D01*
X12708111Y-10280988D01*
X12697670Y-10288659D01*
X12621857Y-10330650D01*
X12518362Y-10373230D01*
X12406703Y-10409787D01*
X12306402Y-10433710D01*
X12252608Y-10439400D01*
X12193683Y-10459769D01*
X12167062Y-10501683D01*
X12127719Y-10557875D01*
X12069777Y-10602029D01*
X12022115Y-10635235D01*
X11996021Y-10683095D01*
X11981675Y-10761995D01*
X11956270Y-10884391D01*
X11912623Y-11008069D01*
X11858353Y-11114441D01*
X11812579Y-11174420D01*
X11746010Y-11216700D01*
X11663620Y-11220415D01*
X11557000Y-11186304D01*
X11431311Y-11108892D01*
X11328744Y-11001115D01*
X11257898Y-10875041D01*
X11227370Y-10742735D01*
X11226800Y-10722921D01*
X11237371Y-10641726D01*
X11275146Y-10585858D01*
X11349218Y-10545735D01*
X11414218Y-10525407D01*
X11463780Y-10510580D01*
X11485714Y-10497984D01*
X11475471Y-10485288D01*
X11428502Y-10470160D01*
X11340258Y-10450269D01*
X11220450Y-10426104D01*
X11097716Y-10397548D01*
X11023764Y-10369347D01*
X10996610Y-10339964D01*
X11014270Y-10307860D01*
X11042650Y-10288322D01*
X11117114Y-10240689D01*
X11153481Y-10200257D01*
X11159735Y-10152841D01*
X11148423Y-10100357D01*
X11135310Y-10033641D01*
X11135690Y-9987515D01*
X11137784Y-9982387D01*
X11164585Y-9984373D01*
X11227206Y-10007460D01*
X11317090Y-10048018D01*
X11425682Y-10102418D01*
X11445958Y-10113085D01*
X11567550Y-10176553D01*
X11652729Y-10217939D01*
X11709362Y-10240059D01*
X11745314Y-10245731D01*
X11768451Y-10237773D01*
X11775987Y-10231298D01*
X11795539Y-10203298D01*
X11795624Y-10166623D01*
X11774800Y-10105840D01*
X11761248Y-10073546D01*
X11719569Y-9985052D01*
X11664656Y-9879586D01*
X11620547Y-9801043D01*
X11561998Y-9692664D01*
X11536315Y-9620867D01*
X11544145Y-9582960D01*
X11586135Y-9576249D01*
X11662931Y-9598041D01*
X11668787Y-9600244D01*
X11732593Y-9607074D01*
X11788061Y-9571346D01*
X11837459Y-9497619D01*
X11866537Y-9455775D01*
X11893543Y-9446775D01*
X11919984Y-9473791D01*
X11919984Y-9473791D01*
G37*
X11919984Y-9473791D02*
X11947369Y-9539994D01*
X11977206Y-9648557D01*
X12011004Y-9802652D01*
X12031343Y-9905450D01*
X12040359Y-9934119D01*
X12052901Y-9927218D01*
X12073079Y-9879589D01*
X12089480Y-9832516D01*
X12129649Y-9733519D01*
X12171657Y-9676774D01*
X12222558Y-9654003D01*
X12242800Y-9652530D01*
X12365148Y-9673868D01*
X12487525Y-9733100D01*
X12599873Y-9820739D01*
X12692136Y-9927296D01*
X12754256Y-10043282D01*
X12776200Y-10155759D01*
X12760985Y-10224130D01*
X12708111Y-10280988D01*
X12697670Y-10288659D01*
X12621857Y-10330650D01*
X12518362Y-10373230D01*
X12406703Y-10409787D01*
X12306402Y-10433710D01*
X12252608Y-10439400D01*
X12193683Y-10459769D01*
X12167062Y-10501683D01*
X12127719Y-10557875D01*
X12069777Y-10602029D01*
X12022115Y-10635235D01*
X11996021Y-10683095D01*
X11981675Y-10761995D01*
X11956270Y-10884391D01*
X11912623Y-11008069D01*
X11858353Y-11114441D01*
X11812579Y-11174420D01*
X11746010Y-11216700D01*
X11663620Y-11220415D01*
X11557000Y-11186304D01*
X11431311Y-11108892D01*
X11328744Y-11001115D01*
X11257898Y-10875041D01*
X11227370Y-10742735D01*
X11226800Y-10722921D01*
X11237371Y-10641726D01*
X11275146Y-10585858D01*
X11349218Y-10545735D01*
X11414218Y-10525407D01*
X11463780Y-10510580D01*
X11485714Y-10497984D01*
X11475471Y-10485288D01*
X11428502Y-10470160D01*
X11340258Y-10450269D01*
X11220450Y-10426104D01*
X11097716Y-10397548D01*
X11023764Y-10369347D01*
X10996610Y-10339964D01*
X11014270Y-10307860D01*
X11042650Y-10288322D01*
X11117114Y-10240689D01*
X11153481Y-10200257D01*
X11159735Y-10152841D01*
X11148423Y-10100357D01*
X11135310Y-10033641D01*
X11135690Y-9987515D01*
X11137784Y-9982387D01*
X11164585Y-9984373D01*
X11227206Y-10007460D01*
X11317090Y-10048018D01*
X11425682Y-10102418D01*
X11445958Y-10113085D01*
X11567550Y-10176553D01*
X11652729Y-10217939D01*
X11709362Y-10240059D01*
X11745314Y-10245731D01*
X11768451Y-10237773D01*
X11775987Y-10231298D01*
X11795539Y-10203298D01*
X11795624Y-10166623D01*
X11774800Y-10105840D01*
X11761248Y-10073546D01*
X11719569Y-9985052D01*
X11664656Y-9879586D01*
X11620547Y-9801043D01*
X11561998Y-9692664D01*
X11536315Y-9620867D01*
X11544145Y-9582960D01*
X11586135Y-9576249D01*
X11662931Y-9598041D01*
X11668787Y-9600244D01*
X11732593Y-9607074D01*
X11788061Y-9571346D01*
X11837459Y-9497619D01*
X11866537Y-9455775D01*
X11893543Y-9446775D01*
X11919984Y-9473791D01*
G36*
X-288636Y-9314919D02*
G01*
X-192701Y-9375604D01*
X-138972Y-9424119D01*
X-9647Y-9551838D01*
X83261Y-9513019D01*
X186412Y-9480274D01*
X274926Y-9481164D01*
X372503Y-9515999D01*
X374239Y-9516820D01*
X463601Y-9585382D01*
X522307Y-9684042D01*
X543958Y-9798268D01*
X533768Y-9879233D01*
X510669Y-9946617D01*
X486472Y-9990642D01*
X480376Y-9996273D01*
X483982Y-10020910D01*
X518323Y-10072137D01*
X577427Y-10141423D01*
X595367Y-10160560D01*
X661889Y-10236086D01*
X711557Y-10303494D01*
X735611Y-10350576D01*
X736600Y-10357377D01*
X712941Y-10422145D01*
X643203Y-10468916D01*
X529244Y-10496506D01*
X515715Y-10498139D01*
X406006Y-10517868D01*
X309194Y-10554868D01*
X212451Y-10616219D01*
X102951Y-10708999D01*
X59600Y-10749859D01*
X-56815Y-10850651D01*
X-158979Y-10913812D01*
X-217601Y-10936482D01*
X-315033Y-10961997D01*
X-393026Y-10969200D01*
X-473088Y-10957297D01*
X-576726Y-10925494D01*
X-584155Y-10922939D01*
X-665320Y-10896912D01*
X-714443Y-10888859D01*
X-746674Y-10897961D01*
X-766192Y-10913093D01*
X-812164Y-10937768D01*
X-861488Y-10923130D01*
X-906086Y-10875879D01*
X-908845Y-10816255D01*
X-876969Y-10770155D01*
X-853947Y-10742502D01*
X-858162Y-10706730D01*
X-877395Y-10665882D01*
X-921032Y-10535731D01*
X-933523Y-10387199D01*
X-913299Y-10244964D01*
X-876714Y-10156428D01*
X-811643Y-10060433D01*
X-722921Y-9958850D01*
X-617326Y-9840142D01*
X-546181Y-9742596D01*
X-503938Y-9656059D01*
X-485048Y-9570378D01*
X-482600Y-9519213D01*
X-468897Y-9402833D01*
X-429895Y-9329408D01*
X-368754Y-9299812D01*
X-288636Y-9314919D01*
X-288636Y-9314919D01*
G37*
X-288636Y-9314919D02*
X-192701Y-9375604D01*
X-138972Y-9424119D01*
X-9647Y-9551838D01*
X83261Y-9513019D01*
X186412Y-9480274D01*
X274926Y-9481164D01*
X372503Y-9515999D01*
X374239Y-9516820D01*
X463601Y-9585382D01*
X522307Y-9684042D01*
X543958Y-9798268D01*
X533768Y-9879233D01*
X510669Y-9946617D01*
X486472Y-9990642D01*
X480376Y-9996273D01*
X483982Y-10020910D01*
X518323Y-10072137D01*
X577427Y-10141423D01*
X595367Y-10160560D01*
X661889Y-10236086D01*
X711557Y-10303494D01*
X735611Y-10350576D01*
X736600Y-10357377D01*
X712941Y-10422145D01*
X643203Y-10468916D01*
X529244Y-10496506D01*
X515715Y-10498139D01*
X406006Y-10517868D01*
X309194Y-10554868D01*
X212451Y-10616219D01*
X102951Y-10708999D01*
X59600Y-10749859D01*
X-56815Y-10850651D01*
X-158979Y-10913812D01*
X-217601Y-10936482D01*
X-315033Y-10961997D01*
X-393026Y-10969200D01*
X-473088Y-10957297D01*
X-576726Y-10925494D01*
X-584155Y-10922939D01*
X-665320Y-10896912D01*
X-714443Y-10888859D01*
X-746674Y-10897961D01*
X-766192Y-10913093D01*
X-812164Y-10937768D01*
X-861488Y-10923130D01*
X-906086Y-10875879D01*
X-908845Y-10816255D01*
X-876969Y-10770155D01*
X-853947Y-10742502D01*
X-858162Y-10706730D01*
X-877395Y-10665882D01*
X-921032Y-10535731D01*
X-933523Y-10387199D01*
X-913299Y-10244964D01*
X-876714Y-10156428D01*
X-811643Y-10060433D01*
X-722921Y-9958850D01*
X-617326Y-9840142D01*
X-546181Y-9742596D01*
X-503938Y-9656059D01*
X-485048Y-9570378D01*
X-482600Y-9519213D01*
X-468897Y-9402833D01*
X-429895Y-9329408D01*
X-368754Y-9299812D01*
X-288636Y-9314919D01*
G36*
X120377Y2331723D02*
G01*
X151379Y2280773D01*
X181275Y2180135D01*
X190185Y2139950D01*
X211726Y2037173D01*
X230714Y1946608D01*
X243493Y1885692D01*
X244657Y1880150D01*
X254135Y1851051D01*
X266616Y1856896D01*
X286400Y1902982D01*
X303880Y1953084D01*
X344341Y2054180D01*
X389008Y2111458D01*
X449887Y2131300D01*
X538986Y2120086D01*
X592347Y2106369D01*
X702211Y2055528D01*
X807128Y1971682D01*
X896878Y1867099D01*
X961238Y1754049D01*
X989987Y1644801D01*
X990600Y1628342D01*
X974597Y1560120D01*
X919732Y1502525D01*
X912070Y1496941D01*
X836843Y1455259D01*
X733971Y1412832D01*
X622881Y1376262D01*
X523003Y1352147D01*
X468289Y1346200D01*
X408557Y1324311D01*
X368490Y1270368D01*
X322760Y1212598D01*
X267143Y1178949D01*
X266238Y1178715D01*
X220704Y1156351D01*
X204241Y1109469D01*
X203200Y1081679D01*
X191548Y990336D01*
X161151Y878920D01*
X118842Y766316D01*
X71456Y671407D01*
X37614Y624177D01*
X-38980Y571466D01*
X-131225Y564236D01*
X-242753Y602313D01*
X-257748Y609995D01*
X-359706Y681691D01*
X-448380Y776792D01*
X-517168Y883960D01*
X-559466Y991855D01*
X-568671Y1089138D01*
X-559575Y1128263D01*
X-519297Y1195578D01*
X-452844Y1237220D01*
X-374873Y1257813D01*
X-312818Y1277700D01*
X-296343Y1300172D01*
X-325941Y1316919D01*
X-371135Y1320800D01*
X-441709Y1326828D01*
X-529824Y1342531D01*
X-621965Y1364339D01*
X-704618Y1388679D01*
X-764268Y1411982D01*
X-787398Y1430675D01*
X-787400Y1430786D01*
X-769042Y1463639D01*
X-722912Y1510941D01*
X-700423Y1529899D01*
X-646863Y1576741D01*
X-626627Y1614631D01*
X-631678Y1664119D01*
X-638211Y1688990D01*
X-650916Y1754247D01*
X-650064Y1798471D01*
X-648372Y1802314D01*
X-621826Y1799997D01*
X-559513Y1776939D01*
X-470193Y1736849D01*
X-362626Y1683441D01*
X-340108Y1671706D01*
X-218994Y1608900D01*
X-134335Y1567819D01*
X-78087Y1545682D01*
X-42205Y1539710D01*
X-18647Y1547121D01*
X-7258Y1556658D01*
X6717Y1576676D01*
X8987Y1604271D01*
X-3227Y1647460D01*
X-32701Y1714258D01*
X-82214Y1812682D01*
X-123163Y1891141D01*
X-190657Y2023371D01*
X-232186Y2116623D01*
X-247818Y2175538D01*
X-237625Y2204756D01*
X-201678Y2208920D01*
X-140047Y2192672D01*
X-127684Y2188445D01*
X-59536Y2178226D01*
X-5008Y2206065D01*
X46253Y2277700D01*
X51859Y2287981D01*
X87470Y2333840D01*
X120377Y2331723D01*
X120377Y2331723D01*
G37*
X120377Y2331723D02*
X151379Y2280773D01*
X181275Y2180135D01*
X190185Y2139950D01*
X211726Y2037173D01*
X230714Y1946608D01*
X243493Y1885692D01*
X244657Y1880150D01*
X254135Y1851051D01*
X266616Y1856896D01*
X286400Y1902982D01*
X303880Y1953084D01*
X344341Y2054180D01*
X389008Y2111458D01*
X449887Y2131300D01*
X538986Y2120086D01*
X592347Y2106369D01*
X702211Y2055528D01*
X807128Y1971682D01*
X896878Y1867099D01*
X961238Y1754049D01*
X989987Y1644801D01*
X990600Y1628342D01*
X974597Y1560120D01*
X919732Y1502525D01*
X912070Y1496941D01*
X836843Y1455259D01*
X733971Y1412832D01*
X622881Y1376262D01*
X523003Y1352147D01*
X468289Y1346200D01*
X408557Y1324311D01*
X368490Y1270368D01*
X322760Y1212598D01*
X267143Y1178949D01*
X266238Y1178715D01*
X220704Y1156351D01*
X204241Y1109469D01*
X203200Y1081679D01*
X191548Y990336D01*
X161151Y878920D01*
X118842Y766316D01*
X71456Y671407D01*
X37614Y624177D01*
X-38980Y571466D01*
X-131225Y564236D01*
X-242753Y602313D01*
X-257748Y609995D01*
X-359706Y681691D01*
X-448380Y776792D01*
X-517168Y883960D01*
X-559466Y991855D01*
X-568671Y1089138D01*
X-559575Y1128263D01*
X-519297Y1195578D01*
X-452844Y1237220D01*
X-374873Y1257813D01*
X-312818Y1277700D01*
X-296343Y1300172D01*
X-325941Y1316919D01*
X-371135Y1320800D01*
X-441709Y1326828D01*
X-529824Y1342531D01*
X-621965Y1364339D01*
X-704618Y1388679D01*
X-764268Y1411982D01*
X-787398Y1430675D01*
X-787400Y1430786D01*
X-769042Y1463639D01*
X-722912Y1510941D01*
X-700423Y1529899D01*
X-646863Y1576741D01*
X-626627Y1614631D01*
X-631678Y1664119D01*
X-638211Y1688990D01*
X-650916Y1754247D01*
X-650064Y1798471D01*
X-648372Y1802314D01*
X-621826Y1799997D01*
X-559513Y1776939D01*
X-470193Y1736849D01*
X-362626Y1683441D01*
X-340108Y1671706D01*
X-218994Y1608900D01*
X-134335Y1567819D01*
X-78087Y1545682D01*
X-42205Y1539710D01*
X-18647Y1547121D01*
X-7258Y1556658D01*
X6717Y1576676D01*
X8987Y1604271D01*
X-3227Y1647460D01*
X-32701Y1714258D01*
X-82214Y1812682D01*
X-123163Y1891141D01*
X-190657Y2023371D01*
X-232186Y2116623D01*
X-247818Y2175538D01*
X-237625Y2204756D01*
X-201678Y2208920D01*
X-140047Y2192672D01*
X-127684Y2188445D01*
X-59536Y2178226D01*
X-5008Y2206065D01*
X46253Y2277700D01*
X51859Y2287981D01*
X87470Y2333840D01*
X120377Y2331723D01*
G36*
X-11591717Y2470134D02*
G01*
X-11543035Y2415307D01*
X-11531600Y2352644D01*
X-11512065Y2199212D01*
X-11450998Y2054266D01*
X-11344707Y1909827D01*
X-11308660Y1870800D01*
X-11232005Y1786247D01*
X-11164128Y1703038D01*
X-11117406Y1636541D01*
X-11111092Y1625486D01*
X-11076818Y1522226D01*
X-11063470Y1395096D01*
X-11071291Y1266404D01*
X-11100524Y1158456D01*
X-11105886Y1147156D01*
X-11132256Y1086532D01*
X-11132562Y1045239D01*
X-11111072Y1004685D01*
X-11086739Y935561D01*
X-11102508Y881359D01*
X-11147875Y852584D01*
X-11212333Y859742D01*
X-11240885Y874872D01*
X-11287175Y898225D01*
X-11330765Y894255D01*
X-11375262Y874458D01*
X-11487478Y837587D01*
X-11617175Y823160D01*
X-11739802Y832845D01*
X-11788520Y846390D01*
X-11890997Y894482D01*
X-11991861Y964637D01*
X-12103581Y1065959D01*
X-12140951Y1103663D01*
X-12279751Y1211704D01*
X-12440323Y1276855D01*
X-12589417Y1295400D01*
X-12668440Y1315559D01*
X-12714604Y1373386D01*
X-12725400Y1438982D01*
X-12708411Y1478458D01*
X-12663679Y1539926D01*
X-12600557Y1610671D01*
X-12594666Y1616682D01*
X-12463932Y1749060D01*
X-12508547Y1843078D01*
X-12540249Y1961394D01*
X-12528651Y2077738D01*
X-12477927Y2180287D01*
X-12392249Y2257219D01*
X-12355941Y2275422D01*
X-12252177Y2306780D01*
X-12160167Y2302065D01*
X-12073419Y2269566D01*
X-11985260Y2227732D01*
X-11852882Y2358466D01*
X-11781934Y2422716D01*
X-11719189Y2469368D01*
X-11677358Y2489068D01*
X-11675182Y2489200D01*
X-11591717Y2470134D01*
X-11591717Y2470134D01*
G37*
X-11591717Y2470134D02*
X-11543035Y2415307D01*
X-11531600Y2352644D01*
X-11512065Y2199212D01*
X-11450998Y2054266D01*
X-11344707Y1909827D01*
X-11308660Y1870800D01*
X-11232005Y1786247D01*
X-11164128Y1703038D01*
X-11117406Y1636541D01*
X-11111092Y1625486D01*
X-11076818Y1522226D01*
X-11063470Y1395096D01*
X-11071291Y1266404D01*
X-11100524Y1158456D01*
X-11105886Y1147156D01*
X-11132256Y1086532D01*
X-11132562Y1045239D01*
X-11111072Y1004685D01*
X-11086739Y935561D01*
X-11102508Y881359D01*
X-11147875Y852584D01*
X-11212333Y859742D01*
X-11240885Y874872D01*
X-11287175Y898225D01*
X-11330765Y894255D01*
X-11375262Y874458D01*
X-11487478Y837587D01*
X-11617175Y823160D01*
X-11739802Y832845D01*
X-11788520Y846390D01*
X-11890997Y894482D01*
X-11991861Y964637D01*
X-12103581Y1065959D01*
X-12140951Y1103663D01*
X-12279751Y1211704D01*
X-12440323Y1276855D01*
X-12589417Y1295400D01*
X-12668440Y1315559D01*
X-12714604Y1373386D01*
X-12725400Y1438982D01*
X-12708411Y1478458D01*
X-12663679Y1539926D01*
X-12600557Y1610671D01*
X-12594666Y1616682D01*
X-12463932Y1749060D01*
X-12508547Y1843078D01*
X-12540249Y1961394D01*
X-12528651Y2077738D01*
X-12477927Y2180287D01*
X-12392249Y2257219D01*
X-12355941Y2275422D01*
X-12252177Y2306780D01*
X-12160167Y2302065D01*
X-12073419Y2269566D01*
X-11985260Y2227732D01*
X-11852882Y2358466D01*
X-11781934Y2422716D01*
X-11719189Y2469368D01*
X-11677358Y2489068D01*
X-11675182Y2489200D01*
X-11591717Y2470134D01*
G36*
X11499088Y2474684D02*
G01*
X11560653Y2438873D01*
X11640658Y2367447D01*
X11669533Y2338594D01*
X11735479Y2273416D01*
X11778047Y2239611D01*
X11808749Y2231629D01*
X11839096Y2243920D01*
X11850657Y2251257D01*
X11914841Y2276913D01*
X11996317Y2290110D01*
X12007716Y2290497D01*
X12132355Y2270596D01*
X12232993Y2213138D01*
X12303942Y2127075D01*
X12339515Y2021356D01*
X12334022Y1904932D01*
X12303987Y1824329D01*
X12263575Y1746181D01*
X12392887Y1615242D01*
X12473482Y1524691D01*
X12514690Y1454783D01*
X12522200Y1416692D01*
X12499397Y1344824D01*
X12436176Y1294451D01*
X12340312Y1271013D01*
X12312532Y1270000D01*
X12217083Y1260485D01*
X12125110Y1228364D01*
X12026496Y1168276D01*
X11911126Y1074861D01*
X11863584Y1032078D01*
X11709538Y910132D01*
X11563323Y836276D01*
X11420306Y809354D01*
X11275859Y828209D01*
X11183866Y862238D01*
X11115603Y890113D01*
X11076273Y894835D01*
X11050329Y877788D01*
X11047406Y874380D01*
X10995448Y839798D01*
X10943444Y844212D01*
X10904102Y877444D01*
X10890130Y929318D01*
X10910234Y984227D01*
X10931333Y1024453D01*
X10929931Y1067444D01*
X10905362Y1134204D01*
X10870784Y1264780D01*
X10865547Y1409285D01*
X10889172Y1545913D01*
X10915881Y1612900D01*
X10964027Y1687048D01*
X11033136Y1772142D01*
X11087100Y1828800D01*
X11206105Y1964386D01*
X11281382Y2103382D01*
X11319250Y2257907D01*
X11321616Y2278411D01*
X11336471Y2369552D01*
X11361695Y2425255D01*
X11394402Y2455076D01*
X11446745Y2478784D01*
X11499088Y2474684D01*
X11499088Y2474684D01*
G37*
X11499088Y2474684D02*
X11560653Y2438873D01*
X11640658Y2367447D01*
X11669533Y2338594D01*
X11735479Y2273416D01*
X11778047Y2239611D01*
X11808749Y2231629D01*
X11839096Y2243920D01*
X11850657Y2251257D01*
X11914841Y2276913D01*
X11996317Y2290110D01*
X12007716Y2290497D01*
X12132355Y2270596D01*
X12232993Y2213138D01*
X12303942Y2127075D01*
X12339515Y2021356D01*
X12334022Y1904932D01*
X12303987Y1824329D01*
X12263575Y1746181D01*
X12392887Y1615242D01*
X12473482Y1524691D01*
X12514690Y1454783D01*
X12522200Y1416692D01*
X12499397Y1344824D01*
X12436176Y1294451D01*
X12340312Y1271013D01*
X12312532Y1270000D01*
X12217083Y1260485D01*
X12125110Y1228364D01*
X12026496Y1168276D01*
X11911126Y1074861D01*
X11863584Y1032078D01*
X11709538Y910132D01*
X11563323Y836276D01*
X11420306Y809354D01*
X11275859Y828209D01*
X11183866Y862238D01*
X11115603Y890113D01*
X11076273Y894835D01*
X11050329Y877788D01*
X11047406Y874380D01*
X10995448Y839798D01*
X10943444Y844212D01*
X10904102Y877444D01*
X10890130Y929318D01*
X10910234Y984227D01*
X10931333Y1024453D01*
X10929931Y1067444D01*
X10905362Y1134204D01*
X10870784Y1264780D01*
X10865547Y1409285D01*
X10889172Y1545913D01*
X10915881Y1612900D01*
X10964027Y1687048D01*
X11033136Y1772142D01*
X11087100Y1828800D01*
X11206105Y1964386D01*
X11281382Y2103382D01*
X11319250Y2257907D01*
X11321616Y2278411D01*
X11336471Y2369552D01*
X11361695Y2425255D01*
X11394402Y2455076D01*
X11446745Y2478784D01*
X11499088Y2474684D01*
G36*
X-11654255Y37699415D02*
G01*
X-11638695Y37664991D01*
X-11617666Y37593606D01*
X-11594823Y37498276D01*
X-11586097Y37456844D01*
X-11564683Y37357168D01*
X-11545297Y37277697D01*
X-11531039Y37230732D01*
X-11527363Y37223696D01*
X-11513439Y37235251D01*
X-11498341Y37282555D01*
X-11496482Y37291341D01*
X-11462410Y37399234D01*
X-11409519Y37463446D01*
X-11332929Y37489149D01*
X-11308765Y37490162D01*
X-11187443Y37466920D01*
X-11065400Y37404553D01*
X-10954255Y37313214D01*
X-10865629Y37203056D01*
X-10811140Y37084232D01*
X-10803186Y37048398D01*
X-10799822Y36973721D01*
X-10825102Y36917743D01*
X-10846498Y36892758D01*
X-10920697Y36837450D01*
X-11030337Y36785058D01*
X-11160163Y36741760D01*
X-11284949Y36715175D01*
X-11355990Y36698642D01*
X-11398591Y36677153D01*
X-11404600Y36666444D01*
X-11423004Y36627177D01*
X-11466008Y36578658D01*
X-11515303Y36538828D01*
X-11548750Y36525200D01*
X-11566679Y36502406D01*
X-11583189Y36444185D01*
X-11590179Y36399774D01*
X-11615550Y36275937D01*
X-11658870Y36152846D01*
X-11713203Y36046383D01*
X-11771612Y35972430D01*
X-11779855Y35965468D01*
X-11831371Y35930305D01*
X-11877002Y35920360D01*
X-11938246Y35933527D01*
X-11976100Y35946247D01*
X-12120107Y36022488D01*
X-12237928Y36137417D01*
X-12321615Y36282308D01*
X-12345024Y36351275D01*
X-12360070Y36443735D01*
X-12344066Y36514511D01*
X-12291815Y36569679D01*
X-12198118Y36615313D01*
X-12090400Y36648884D01*
X-12001500Y36673019D01*
X-12103100Y36677382D01*
X-12189240Y36686184D01*
X-12289198Y36703929D01*
X-12389925Y36727274D01*
X-12478371Y36752876D01*
X-12541487Y36777393D01*
X-12565905Y36795933D01*
X-12553538Y36827924D01*
X-12510864Y36873519D01*
X-12488348Y36891983D01*
X-12434422Y36936788D01*
X-12413817Y36974102D01*
X-12418495Y37025924D01*
X-12426825Y37060313D01*
X-12440924Y37140342D01*
X-12429256Y37177994D01*
X-12388738Y37176345D01*
X-12336411Y37150506D01*
X-12156744Y37049596D01*
X-12016236Y36977745D01*
X-11912973Y36934118D01*
X-11845043Y36917878D01*
X-11816044Y36923224D01*
X-11791291Y36946220D01*
X-11782884Y36978550D01*
X-11792998Y37027506D01*
X-11823811Y37100378D01*
X-11877499Y37204457D01*
X-11926877Y37294424D01*
X-11982201Y37395239D01*
X-12026969Y37479239D01*
X-12056167Y37536853D01*
X-12065000Y37558046D01*
X-12042439Y37563722D01*
X-11984838Y37561541D01*
X-11941344Y37556742D01*
X-11865490Y37549203D01*
X-11818830Y37557862D01*
X-11780402Y37590855D01*
X-11747913Y37631818D01*
X-11696983Y37687486D01*
X-11661288Y37703253D01*
X-11654255Y37699415D01*
X-11654255Y37699415D01*
G37*
X-11654255Y37699415D02*
X-11638695Y37664991D01*
X-11617666Y37593606D01*
X-11594823Y37498276D01*
X-11586097Y37456844D01*
X-11564683Y37357168D01*
X-11545297Y37277697D01*
X-11531039Y37230732D01*
X-11527363Y37223696D01*
X-11513439Y37235251D01*
X-11498341Y37282555D01*
X-11496482Y37291341D01*
X-11462410Y37399234D01*
X-11409519Y37463446D01*
X-11332929Y37489149D01*
X-11308765Y37490162D01*
X-11187443Y37466920D01*
X-11065400Y37404553D01*
X-10954255Y37313214D01*
X-10865629Y37203056D01*
X-10811140Y37084232D01*
X-10803186Y37048398D01*
X-10799822Y36973721D01*
X-10825102Y36917743D01*
X-10846498Y36892758D01*
X-10920697Y36837450D01*
X-11030337Y36785058D01*
X-11160163Y36741760D01*
X-11284949Y36715175D01*
X-11355990Y36698642D01*
X-11398591Y36677153D01*
X-11404600Y36666444D01*
X-11423004Y36627177D01*
X-11466008Y36578658D01*
X-11515303Y36538828D01*
X-11548750Y36525200D01*
X-11566679Y36502406D01*
X-11583189Y36444185D01*
X-11590179Y36399774D01*
X-11615550Y36275937D01*
X-11658870Y36152846D01*
X-11713203Y36046383D01*
X-11771612Y35972430D01*
X-11779855Y35965468D01*
X-11831371Y35930305D01*
X-11877002Y35920360D01*
X-11938246Y35933527D01*
X-11976100Y35946247D01*
X-12120107Y36022488D01*
X-12237928Y36137417D01*
X-12321615Y36282308D01*
X-12345024Y36351275D01*
X-12360070Y36443735D01*
X-12344066Y36514511D01*
X-12291815Y36569679D01*
X-12198118Y36615313D01*
X-12090400Y36648884D01*
X-12001500Y36673019D01*
X-12103100Y36677382D01*
X-12189240Y36686184D01*
X-12289198Y36703929D01*
X-12389925Y36727274D01*
X-12478371Y36752876D01*
X-12541487Y36777393D01*
X-12565905Y36795933D01*
X-12553538Y36827924D01*
X-12510864Y36873519D01*
X-12488348Y36891983D01*
X-12434422Y36936788D01*
X-12413817Y36974102D01*
X-12418495Y37025924D01*
X-12426825Y37060313D01*
X-12440924Y37140342D01*
X-12429256Y37177994D01*
X-12388738Y37176345D01*
X-12336411Y37150506D01*
X-12156744Y37049596D01*
X-12016236Y36977745D01*
X-11912973Y36934118D01*
X-11845043Y36917878D01*
X-11816044Y36923224D01*
X-11791291Y36946220D01*
X-11782884Y36978550D01*
X-11792998Y37027506D01*
X-11823811Y37100378D01*
X-11877499Y37204457D01*
X-11926877Y37294424D01*
X-11982201Y37395239D01*
X-12026969Y37479239D01*
X-12056167Y37536853D01*
X-12065000Y37558046D01*
X-12042439Y37563722D01*
X-11984838Y37561541D01*
X-11941344Y37556742D01*
X-11865490Y37549203D01*
X-11818830Y37557862D01*
X-11780402Y37590855D01*
X-11747913Y37631818D01*
X-11696983Y37687486D01*
X-11661288Y37703253D01*
X-11654255Y37699415D01*
G36*
X11910835Y37674500D02*
G01*
X11955904Y37627364D01*
X11964791Y37615446D01*
X12001857Y37569038D01*
X12038174Y37548769D01*
X12093186Y37548019D01*
X12144321Y37554330D01*
X12215382Y37561739D01*
X12260191Y37561865D01*
X12268200Y37558386D01*
X12257039Y37532268D01*
X12226530Y37470145D01*
X12181132Y37380888D01*
X12125304Y37273367D01*
X12116156Y37255926D01*
X12051301Y37129245D01*
X12009982Y37039800D01*
X11989753Y36981175D01*
X11988165Y36946954D01*
X11994236Y36936324D01*
X12023117Y36915563D01*
X12059636Y36910388D01*
X12111833Y36923234D01*
X12187748Y36956537D01*
X12295420Y37012731D01*
X12355948Y37045900D01*
X12458321Y37101534D01*
X12544550Y37146656D01*
X12604906Y37176288D01*
X12628995Y37185600D01*
X12646082Y37164290D01*
X12646665Y37110910D01*
X12631165Y37041290D01*
X12624668Y37022784D01*
X12614180Y36978076D01*
X12629649Y36942076D01*
X12679146Y36898048D01*
X12688168Y36891116D01*
X12742017Y36845204D01*
X12773138Y36809300D01*
X12776200Y36800957D01*
X12750867Y36772104D01*
X12675134Y36742977D01*
X12549401Y36713704D01*
X12435301Y36693739D01*
X12230100Y36661127D01*
X12377160Y36617561D01*
X12466916Y36586282D01*
X12519521Y36553554D01*
X12548131Y36510863D01*
X12550244Y36505545D01*
X12562010Y36408199D01*
X12535116Y36297941D01*
X12475869Y36185500D01*
X12390572Y36081604D01*
X12285532Y35996983D01*
X12234712Y35968633D01*
X12144763Y35929982D01*
X12080988Y35918925D01*
X12027042Y35935255D01*
X11983054Y35965468D01*
X11924628Y36033502D01*
X11869292Y36136307D01*
X11823981Y36258001D01*
X11795632Y36382701D01*
X11793378Y36399774D01*
X11779012Y36474177D01*
X11759272Y36518523D01*
X11748389Y36525200D01*
X11708572Y36543927D01*
X11660244Y36587812D01*
X11620962Y36638412D01*
X11607800Y36672888D01*
X11586181Y36695864D01*
X11546975Y36703000D01*
X11462944Y36714286D01*
X11354690Y36743668D01*
X11241053Y36784429D01*
X11140873Y36829857D01*
X11075562Y36871020D01*
X11017061Y36938977D01*
X11000589Y37015028D01*
X11025150Y37109009D01*
X11046774Y37154862D01*
X11117574Y37261558D01*
X11207501Y37352431D01*
X11308023Y37423530D01*
X11410608Y37470904D01*
X11506727Y37490601D01*
X11587848Y37478670D01*
X11644945Y37431923D01*
X11678159Y37363189D01*
X11699505Y37292223D01*
X11719269Y37231854D01*
X11741067Y37212970D01*
X11756895Y37237731D01*
X11760200Y37275836D01*
X11766479Y37352820D01*
X11782885Y37444572D01*
X11805768Y37537794D01*
X11831480Y37619184D01*
X11856373Y37675443D01*
X11874806Y37693600D01*
X11910835Y37674500D01*
X11910835Y37674500D01*
G37*
X11910835Y37674500D02*
X11955904Y37627364D01*
X11964791Y37615446D01*
X12001857Y37569038D01*
X12038174Y37548769D01*
X12093186Y37548019D01*
X12144321Y37554330D01*
X12215382Y37561739D01*
X12260191Y37561865D01*
X12268200Y37558386D01*
X12257039Y37532268D01*
X12226530Y37470145D01*
X12181132Y37380888D01*
X12125304Y37273367D01*
X12116156Y37255926D01*
X12051301Y37129245D01*
X12009982Y37039800D01*
X11989753Y36981175D01*
X11988165Y36946954D01*
X11994236Y36936324D01*
X12023117Y36915563D01*
X12059636Y36910388D01*
X12111833Y36923234D01*
X12187748Y36956537D01*
X12295420Y37012731D01*
X12355948Y37045900D01*
X12458321Y37101534D01*
X12544550Y37146656D01*
X12604906Y37176288D01*
X12628995Y37185600D01*
X12646082Y37164290D01*
X12646665Y37110910D01*
X12631165Y37041290D01*
X12624668Y37022784D01*
X12614180Y36978076D01*
X12629649Y36942076D01*
X12679146Y36898048D01*
X12688168Y36891116D01*
X12742017Y36845204D01*
X12773138Y36809300D01*
X12776200Y36800957D01*
X12750867Y36772104D01*
X12675134Y36742977D01*
X12549401Y36713704D01*
X12435301Y36693739D01*
X12230100Y36661127D01*
X12377160Y36617561D01*
X12466916Y36586282D01*
X12519521Y36553554D01*
X12548131Y36510863D01*
X12550244Y36505545D01*
X12562010Y36408199D01*
X12535116Y36297941D01*
X12475869Y36185500D01*
X12390572Y36081604D01*
X12285532Y35996983D01*
X12234712Y35968633D01*
X12144763Y35929982D01*
X12080988Y35918925D01*
X12027042Y35935255D01*
X11983054Y35965468D01*
X11924628Y36033502D01*
X11869292Y36136307D01*
X11823981Y36258001D01*
X11795632Y36382701D01*
X11793378Y36399774D01*
X11779012Y36474177D01*
X11759272Y36518523D01*
X11748389Y36525200D01*
X11708572Y36543927D01*
X11660244Y36587812D01*
X11620962Y36638412D01*
X11607800Y36672888D01*
X11586181Y36695864D01*
X11546975Y36703000D01*
X11462944Y36714286D01*
X11354690Y36743668D01*
X11241053Y36784429D01*
X11140873Y36829857D01*
X11075562Y36871020D01*
X11017061Y36938977D01*
X11000589Y37015028D01*
X11025150Y37109009D01*
X11046774Y37154862D01*
X11117574Y37261558D01*
X11207501Y37352431D01*
X11308023Y37423530D01*
X11410608Y37470904D01*
X11506727Y37490601D01*
X11587848Y37478670D01*
X11644945Y37431923D01*
X11678159Y37363189D01*
X11699505Y37292223D01*
X11719269Y37231854D01*
X11741067Y37212970D01*
X11756895Y37237731D01*
X11760200Y37275836D01*
X11766479Y37352820D01*
X11782885Y37444572D01*
X11805768Y37537794D01*
X11831480Y37619184D01*
X11856373Y37675443D01*
X11874806Y37693600D01*
X11910835Y37674500D01*
G36*
X-255700Y37823266D02*
G01*
X-156760Y37754904D01*
X-114853Y37717276D01*
X-44451Y37651779D01*
X1332Y37616065D01*
X34783Y37605011D01*
X68188Y37613490D01*
X98265Y37628376D01*
X211792Y37663122D01*
X319692Y37654260D01*
X414881Y37608961D01*
X490272Y37534397D01*
X538781Y37437738D01*
X553322Y37326156D01*
X526809Y37206822D01*
X523205Y37198300D01*
X507736Y37156618D01*
X508448Y37122432D01*
X530869Y37082970D01*
X580530Y37025458D01*
X613251Y36990271D01*
X689397Y36900091D01*
X728510Y36829900D01*
X736600Y36785801D01*
X719200Y36704399D01*
X667976Y36660201D01*
X618470Y36652200D01*
X476646Y36638912D01*
X348920Y36595171D01*
X222133Y36515162D01*
X128005Y36435483D01*
X40682Y36358723D01*
X-42443Y36291459D01*
X-107971Y36244325D01*
X-126979Y36233112D01*
X-236549Y36196261D01*
X-367124Y36180666D01*
X-492599Y36188571D01*
X-533400Y36198169D01*
X-601395Y36222901D01*
X-649673Y36247788D01*
X-652959Y36250295D01*
X-696858Y36258147D01*
X-741161Y36235305D01*
X-796033Y36202077D01*
X-833150Y36201635D01*
X-873648Y36234082D01*
X-875533Y36235961D01*
X-901726Y36269482D01*
X-897366Y36302839D01*
X-874823Y36340519D01*
X-849590Y36387531D01*
X-848405Y36430534D01*
X-870821Y36493752D01*
X-871935Y36496409D01*
X-913841Y36613915D01*
X-928604Y36714095D01*
X-918860Y36820781D01*
X-911762Y36856640D01*
X-890644Y36930534D01*
X-856627Y36998416D01*
X-801339Y37073813D01*
X-720307Y37166012D01*
X-620116Y37279428D01*
X-551026Y37370533D01*
X-506484Y37451118D01*
X-479937Y37532972D01*
X-465140Y37625116D01*
X-440125Y37745552D01*
X-397081Y37818669D01*
X-335707Y37844548D01*
X-255700Y37823266D01*
X-255700Y37823266D01*
G37*
X-255700Y37823266D02*
X-156760Y37754904D01*
X-114853Y37717276D01*
X-44451Y37651779D01*
X1332Y37616065D01*
X34783Y37605011D01*
X68188Y37613490D01*
X98265Y37628376D01*
X211792Y37663122D01*
X319692Y37654260D01*
X414881Y37608961D01*
X490272Y37534397D01*
X538781Y37437738D01*
X553322Y37326156D01*
X526809Y37206822D01*
X523205Y37198300D01*
X507736Y37156618D01*
X508448Y37122432D01*
X530869Y37082970D01*
X580530Y37025458D01*
X613251Y36990271D01*
X689397Y36900091D01*
X728510Y36829900D01*
X736600Y36785801D01*
X719200Y36704399D01*
X667976Y36660201D01*
X618470Y36652200D01*
X476646Y36638912D01*
X348920Y36595171D01*
X222133Y36515162D01*
X128005Y36435483D01*
X40682Y36358723D01*
X-42443Y36291459D01*
X-107971Y36244325D01*
X-126979Y36233112D01*
X-236549Y36196261D01*
X-367124Y36180666D01*
X-492599Y36188571D01*
X-533400Y36198169D01*
X-601395Y36222901D01*
X-649673Y36247788D01*
X-652959Y36250295D01*
X-696858Y36258147D01*
X-741161Y36235305D01*
X-796033Y36202077D01*
X-833150Y36201635D01*
X-873648Y36234082D01*
X-875533Y36235961D01*
X-901726Y36269482D01*
X-897366Y36302839D01*
X-874823Y36340519D01*
X-849590Y36387531D01*
X-848405Y36430534D01*
X-870821Y36493752D01*
X-871935Y36496409D01*
X-913841Y36613915D01*
X-928604Y36714095D01*
X-918860Y36820781D01*
X-911762Y36856640D01*
X-890644Y36930534D01*
X-856627Y36998416D01*
X-801339Y37073813D01*
X-720307Y37166012D01*
X-620116Y37279428D01*
X-551026Y37370533D01*
X-506484Y37451118D01*
X-479937Y37532972D01*
X-465140Y37625116D01*
X-440125Y37745552D01*
X-397081Y37818669D01*
X-335707Y37844548D01*
X-255700Y37823266D01*
G36*
X-11598668Y49368677D02*
G01*
X-11545741Y49321149D01*
X-11519073Y49257596D01*
X-11506373Y49177217D01*
X-11506200Y49167933D01*
X-11491948Y49054115D01*
X-11445939Y48942537D01*
X-11363298Y48823840D01*
X-11276125Y48726370D01*
X-11200503Y48641698D01*
X-11135473Y48558263D01*
X-11092541Y48491117D01*
X-11086432Y48478219D01*
X-11054827Y48347868D01*
X-11055613Y48202065D01*
X-11088158Y48063960D01*
X-11098438Y48039267D01*
X-11126337Y47971455D01*
X-11131397Y47932513D01*
X-11114876Y47906590D01*
X-11109354Y47901789D01*
X-11081122Y47850173D01*
X-11089979Y47789273D01*
X-11130064Y47742962D01*
X-11174510Y47731529D01*
X-11222942Y47761208D01*
X-11223004Y47761265D01*
X-11260738Y47789594D01*
X-11296142Y47790789D01*
X-11352173Y47765542D01*
X-11352857Y47765189D01*
X-11464443Y47727819D01*
X-11597928Y47712640D01*
X-11728569Y47721715D01*
X-11767559Y47730585D01*
X-11841792Y47765653D01*
X-11937762Y47832463D01*
X-12039222Y47918493D01*
X-12152125Y48018130D01*
X-12243299Y48086814D01*
X-12325087Y48131272D01*
X-12409829Y48158230D01*
X-12508413Y48174248D01*
X-12607841Y48192730D01*
X-12668294Y48222269D01*
X-12688400Y48243879D01*
X-12715306Y48291136D01*
X-12719394Y48334269D01*
X-12696698Y48383755D01*
X-12643251Y48450075D01*
X-12587810Y48509621D01*
X-12519369Y48583259D01*
X-12481804Y48631320D01*
X-12469816Y48663893D01*
X-12478106Y48691066D01*
X-12486210Y48703090D01*
X-12507706Y48757337D01*
X-12520574Y48837781D01*
X-12522200Y48876995D01*
X-12516733Y48961400D01*
X-12493407Y49021194D01*
X-12441843Y49082015D01*
X-12437338Y49086543D01*
X-12340259Y49163165D01*
X-12242433Y49193260D01*
X-12131410Y49179734D01*
X-12092304Y49167116D01*
X-11978333Y49126132D01*
X-11845387Y49251866D01*
X-11744840Y49334882D01*
X-11663818Y49373537D01*
X-11598668Y49368677D01*
X-11598668Y49368677D01*
G37*
X-11598668Y49368677D02*
X-11545741Y49321149D01*
X-11519073Y49257596D01*
X-11506373Y49177217D01*
X-11506200Y49167933D01*
X-11491948Y49054115D01*
X-11445939Y48942537D01*
X-11363298Y48823840D01*
X-11276125Y48726370D01*
X-11200503Y48641698D01*
X-11135473Y48558263D01*
X-11092541Y48491117D01*
X-11086432Y48478219D01*
X-11054827Y48347868D01*
X-11055613Y48202065D01*
X-11088158Y48063960D01*
X-11098438Y48039267D01*
X-11126337Y47971455D01*
X-11131397Y47932513D01*
X-11114876Y47906590D01*
X-11109354Y47901789D01*
X-11081122Y47850173D01*
X-11089979Y47789273D01*
X-11130064Y47742962D01*
X-11174510Y47731529D01*
X-11222942Y47761208D01*
X-11223004Y47761265D01*
X-11260738Y47789594D01*
X-11296142Y47790789D01*
X-11352173Y47765542D01*
X-11352857Y47765189D01*
X-11464443Y47727819D01*
X-11597928Y47712640D01*
X-11728569Y47721715D01*
X-11767559Y47730585D01*
X-11841792Y47765653D01*
X-11937762Y47832463D01*
X-12039222Y47918493D01*
X-12152125Y48018130D01*
X-12243299Y48086814D01*
X-12325087Y48131272D01*
X-12409829Y48158230D01*
X-12508413Y48174248D01*
X-12607841Y48192730D01*
X-12668294Y48222269D01*
X-12688400Y48243879D01*
X-12715306Y48291136D01*
X-12719394Y48334269D01*
X-12696698Y48383755D01*
X-12643251Y48450075D01*
X-12587810Y48509621D01*
X-12519369Y48583259D01*
X-12481804Y48631320D01*
X-12469816Y48663893D01*
X-12478106Y48691066D01*
X-12486210Y48703090D01*
X-12507706Y48757337D01*
X-12520574Y48837781D01*
X-12522200Y48876995D01*
X-12516733Y48961400D01*
X-12493407Y49021194D01*
X-12441843Y49082015D01*
X-12437338Y49086543D01*
X-12340259Y49163165D01*
X-12242433Y49193260D01*
X-12131410Y49179734D01*
X-12092304Y49167116D01*
X-11978333Y49126132D01*
X-11845387Y49251866D01*
X-11744840Y49334882D01*
X-11663818Y49373537D01*
X-11598668Y49368677D01*
G36*
X11527342Y49359817D02*
G01*
X11598178Y49311770D01*
X11667586Y49251866D01*
X11800532Y49126132D01*
X11916414Y49167803D01*
X11993429Y49191864D01*
X12049949Y49195447D01*
X12111742Y49179054D01*
X12130794Y49171985D01*
X12232358Y49109258D01*
X12303684Y49016950D01*
X12339942Y48907482D01*
X12336304Y48793275D01*
X12307552Y48717378D01*
X12291604Y48682030D01*
X12293006Y48650501D01*
X12317208Y48610941D01*
X12369657Y48551497D01*
X12397353Y48522049D01*
X12472392Y48434886D01*
X12511965Y48367202D01*
X12522200Y48315431D01*
X12514037Y48254702D01*
X12483199Y48215115D01*
X12420159Y48189910D01*
X12321665Y48173117D01*
X12172513Y48139737D01*
X12043130Y48075954D01*
X11918161Y47973620D01*
X11887200Y47942500D01*
X11809274Y47869895D01*
X11727144Y47805875D01*
X11675912Y47773902D01*
X11569708Y47734739D01*
X11448399Y47713316D01*
X11334460Y47712448D01*
X11276116Y47723870D01*
X11202669Y47752342D01*
X11155725Y47774657D01*
X11102609Y47790650D01*
X11048865Y47770436D01*
X11040137Y47764879D01*
X10971774Y47739205D01*
X10921582Y47753867D01*
X10897602Y47799421D01*
X10907873Y47866426D01*
X10925124Y47899965D01*
X10939141Y47945050D01*
X10923262Y48002806D01*
X10910383Y48029305D01*
X10879531Y48127735D01*
X10868395Y48250649D01*
X10876934Y48375730D01*
X10905110Y48480659D01*
X10911208Y48493638D01*
X10949920Y48553566D01*
X11011948Y48632927D01*
X11084487Y48715433D01*
X11091089Y48722451D01*
X11218239Y48878443D01*
X11296610Y49026909D01*
X11327291Y49169997D01*
X11327842Y49189514D01*
X11345733Y49288040D01*
X11395180Y49352581D01*
X11471676Y49377487D01*
X11477970Y49377600D01*
X11527342Y49359817D01*
X11527342Y49359817D01*
G37*
X11527342Y49359817D02*
X11598178Y49311770D01*
X11667586Y49251866D01*
X11800532Y49126132D01*
X11916414Y49167803D01*
X11993429Y49191864D01*
X12049949Y49195447D01*
X12111742Y49179054D01*
X12130794Y49171985D01*
X12232358Y49109258D01*
X12303684Y49016950D01*
X12339942Y48907482D01*
X12336304Y48793275D01*
X12307552Y48717378D01*
X12291604Y48682030D01*
X12293006Y48650501D01*
X12317208Y48610941D01*
X12369657Y48551497D01*
X12397353Y48522049D01*
X12472392Y48434886D01*
X12511965Y48367202D01*
X12522200Y48315431D01*
X12514037Y48254702D01*
X12483199Y48215115D01*
X12420159Y48189910D01*
X12321665Y48173117D01*
X12172513Y48139737D01*
X12043130Y48075954D01*
X11918161Y47973620D01*
X11887200Y47942500D01*
X11809274Y47869895D01*
X11727144Y47805875D01*
X11675912Y47773902D01*
X11569708Y47734739D01*
X11448399Y47713316D01*
X11334460Y47712448D01*
X11276116Y47723870D01*
X11202669Y47752342D01*
X11155725Y47774657D01*
X11102609Y47790650D01*
X11048865Y47770436D01*
X11040137Y47764879D01*
X10971774Y47739205D01*
X10921582Y47753867D01*
X10897602Y47799421D01*
X10907873Y47866426D01*
X10925124Y47899965D01*
X10939141Y47945050D01*
X10923262Y48002806D01*
X10910383Y48029305D01*
X10879531Y48127735D01*
X10868395Y48250649D01*
X10876934Y48375730D01*
X10905110Y48480659D01*
X10911208Y48493638D01*
X10949920Y48553566D01*
X11011948Y48632927D01*
X11084487Y48715433D01*
X11091089Y48722451D01*
X11218239Y48878443D01*
X11296610Y49026909D01*
X11327291Y49169997D01*
X11327842Y49189514D01*
X11345733Y49288040D01*
X11395180Y49352581D01*
X11471676Y49377487D01*
X11477970Y49377600D01*
X11527342Y49359817D01*
G36*
X11908651Y61398511D02*
G01*
X11955588Y61351651D01*
X11972863Y61330287D01*
X12017821Y61276516D01*
X12054830Y61256405D01*
X12104830Y61261829D01*
X12131323Y61268821D01*
X12210138Y61282234D01*
X12248475Y61266567D01*
X12247193Y61220252D01*
X12207147Y61141720D01*
X12203747Y61136291D01*
X12157453Y61057074D01*
X12102055Y60953891D01*
X12049505Y60849005D01*
X12049247Y60848468D01*
X12005162Y60746147D01*
X11987204Y60674288D01*
X11997731Y60632717D01*
X12039097Y60621258D01*
X12113659Y60639735D01*
X12223774Y60687975D01*
X12371798Y60765800D01*
X12464045Y60817625D01*
X12542927Y60858619D01*
X12603931Y60882871D01*
X12635000Y60885690D01*
X12636041Y60884542D01*
X12641421Y60846579D01*
X12637073Y60780915D01*
X12634252Y60761168D01*
X12628037Y60692399D01*
X12644331Y60648645D01*
X12692696Y60605799D01*
X12697205Y60602450D01*
X12748247Y60557185D01*
X12775027Y60518746D01*
X12776200Y60512456D01*
X12752399Y60491174D01*
X12686545Y60466405D01*
X12586956Y60441227D01*
X12579350Y60439615D01*
X12444570Y60411393D01*
X12354079Y60391630D01*
X12302541Y60377912D01*
X12284622Y60367825D01*
X12294988Y60358955D01*
X12328304Y60348889D01*
X12360181Y60340441D01*
X12472601Y60298282D01*
X12539031Y60241047D01*
X12563541Y60162303D01*
X12550200Y60055614D01*
X12547316Y60044547D01*
X12502652Y59946154D01*
X12426704Y59842045D01*
X12333829Y59748810D01*
X12238381Y59683040D01*
X12231603Y59679716D01*
X12118484Y59643242D01*
X12025607Y59652029D01*
X11953135Y59702473D01*
X11912799Y59763932D01*
X11869358Y59857415D01*
X11829352Y59965073D01*
X11799320Y60069053D01*
X11785803Y60151505D01*
X11785600Y60159782D01*
X11765258Y60219512D01*
X11709767Y60261310D01*
X11651997Y60307040D01*
X11618348Y60362657D01*
X11618114Y60363562D01*
X11595750Y60409096D01*
X11548868Y60425559D01*
X11521078Y60426600D01*
X11429735Y60438252D01*
X11318319Y60468649D01*
X11205715Y60510958D01*
X11110806Y60558344D01*
X11063576Y60592186D01*
X11014573Y60655856D01*
X11002131Y60729219D01*
X11025548Y60823522D01*
X11046107Y60872518D01*
X11123131Y60989664D01*
X11234073Y61092128D01*
X11362056Y61166019D01*
X11430124Y61188630D01*
X11536405Y61203852D01*
X11609293Y61186066D01*
X11657495Y61130693D01*
X11684505Y61054819D01*
X11707189Y60968555D01*
X11721395Y60923770D01*
X11730862Y60912632D01*
X11739329Y60927311D01*
X11741900Y60934600D01*
X11752500Y60975710D01*
X11769648Y61052815D01*
X11790301Y61152024D01*
X11798895Y61194950D01*
X11824861Y61308584D01*
X11849740Y61384387D01*
X11871535Y61416505D01*
X11874723Y61417200D01*
X11908651Y61398511D01*
X11908651Y61398511D01*
G37*
X11908651Y61398511D02*
X11955588Y61351651D01*
X11972863Y61330287D01*
X12017821Y61276516D01*
X12054830Y61256405D01*
X12104830Y61261829D01*
X12131323Y61268821D01*
X12210138Y61282234D01*
X12248475Y61266567D01*
X12247193Y61220252D01*
X12207147Y61141720D01*
X12203747Y61136291D01*
X12157453Y61057074D01*
X12102055Y60953891D01*
X12049505Y60849005D01*
X12049247Y60848468D01*
X12005162Y60746147D01*
X11987204Y60674288D01*
X11997731Y60632717D01*
X12039097Y60621258D01*
X12113659Y60639735D01*
X12223774Y60687975D01*
X12371798Y60765800D01*
X12464045Y60817625D01*
X12542927Y60858619D01*
X12603931Y60882871D01*
X12635000Y60885690D01*
X12636041Y60884542D01*
X12641421Y60846579D01*
X12637073Y60780915D01*
X12634252Y60761168D01*
X12628037Y60692399D01*
X12644331Y60648645D01*
X12692696Y60605799D01*
X12697205Y60602450D01*
X12748247Y60557185D01*
X12775027Y60518746D01*
X12776200Y60512456D01*
X12752399Y60491174D01*
X12686545Y60466405D01*
X12586956Y60441227D01*
X12579350Y60439615D01*
X12444570Y60411393D01*
X12354079Y60391630D01*
X12302541Y60377912D01*
X12284622Y60367825D01*
X12294988Y60358955D01*
X12328304Y60348889D01*
X12360181Y60340441D01*
X12472601Y60298282D01*
X12539031Y60241047D01*
X12563541Y60162303D01*
X12550200Y60055614D01*
X12547316Y60044547D01*
X12502652Y59946154D01*
X12426704Y59842045D01*
X12333829Y59748810D01*
X12238381Y59683040D01*
X12231603Y59679716D01*
X12118484Y59643242D01*
X12025607Y59652029D01*
X11953135Y59702473D01*
X11912799Y59763932D01*
X11869358Y59857415D01*
X11829352Y59965073D01*
X11799320Y60069053D01*
X11785803Y60151505D01*
X11785600Y60159782D01*
X11765258Y60219512D01*
X11709767Y60261310D01*
X11651997Y60307040D01*
X11618348Y60362657D01*
X11618114Y60363562D01*
X11595750Y60409096D01*
X11548868Y60425559D01*
X11521078Y60426600D01*
X11429735Y60438252D01*
X11318319Y60468649D01*
X11205715Y60510958D01*
X11110806Y60558344D01*
X11063576Y60592186D01*
X11014573Y60655856D01*
X11002131Y60729219D01*
X11025548Y60823522D01*
X11046107Y60872518D01*
X11123131Y60989664D01*
X11234073Y61092128D01*
X11362056Y61166019D01*
X11430124Y61188630D01*
X11536405Y61203852D01*
X11609293Y61186066D01*
X11657495Y61130693D01*
X11684505Y61054819D01*
X11707189Y60968555D01*
X11721395Y60923770D01*
X11730862Y60912632D01*
X11739329Y60927311D01*
X11741900Y60934600D01*
X11752500Y60975710D01*
X11769648Y61052815D01*
X11790301Y61152024D01*
X11798895Y61194950D01*
X11824861Y61308584D01*
X11849740Y61384387D01*
X11871535Y61416505D01*
X11874723Y61417200D01*
X11908651Y61398511D01*
D11*
G36*
X-12023569Y62991334D02*
G01*
X-11848837Y62965415D01*
X-11677488Y62922494D01*
X-11511170Y62862984D01*
X-11351486Y62787459D01*
X-11199974Y62696646D01*
X-11058092Y62591420D01*
X-10927208Y62472793D01*
X-10808581Y62341909D01*
X-10703355Y62200027D01*
X-10612542Y62048515D01*
X-10537017Y61888831D01*
X-10477507Y61722513D01*
X-10434586Y61551164D01*
X-10408667Y61376432D01*
X-10400000Y61200001D01*
X-10400000Y61199999D01*
X-10408667Y61023568D01*
X-10434586Y60848836D01*
X-10477507Y60677487D01*
X-10537017Y60511169D01*
X-10612542Y60351485D01*
X-10703355Y60199973D01*
X-10808581Y60058091D01*
X-10927208Y59927207D01*
X-11058092Y59808580D01*
X-11199974Y59703354D01*
X-11351486Y59612541D01*
X-11511170Y59537016D01*
X-11677488Y59477506D01*
X-11848837Y59434585D01*
X-12023569Y59408666D01*
X-12200000Y59399999D01*
X-13000000Y59399999D01*
X-13176431Y59408666D01*
X-13351163Y59434585D01*
X-13522512Y59477506D01*
X-13688830Y59537016D01*
X-13848514Y59612541D01*
X-14000026Y59703354D01*
X-14141908Y59808580D01*
X-14272792Y59927207D01*
X-14391419Y60058091D01*
X-14496645Y60199973D01*
X-14587458Y60351485D01*
X-14662983Y60511169D01*
X-14722493Y60677487D01*
X-14765414Y60848836D01*
X-14791333Y61023568D01*
X-14800000Y61199999D01*
X-14800000Y61200001D01*
X-14791333Y61376432D01*
X-14765414Y61551164D01*
X-14722493Y61722513D01*
X-14662983Y61888831D01*
X-14587458Y62048515D01*
X-14496645Y62200027D01*
X-14391419Y62341909D01*
X-14272792Y62472793D01*
X-14141908Y62591420D01*
X-14000026Y62696646D01*
X-13848514Y62787459D01*
X-13688830Y62862984D01*
X-13522512Y62922494D01*
X-13351163Y62965415D01*
X-13176431Y62991334D01*
X-13000000Y63000001D01*
X-12200000Y63000001D01*
X-12023569Y62991334D01*
X-12023569Y62991334D01*
G37*
D12*
X-12600000Y61200000D03*
D11*
G36*
X-12023569Y-59408666D02*
G01*
X-11848837Y-59434585D01*
X-11677488Y-59477506D01*
X-11511170Y-59537016D01*
X-11351486Y-59612541D01*
X-11199974Y-59703354D01*
X-11058092Y-59808580D01*
X-10927208Y-59927207D01*
X-10808581Y-60058091D01*
X-10703355Y-60199973D01*
X-10612542Y-60351485D01*
X-10537017Y-60511169D01*
X-10477507Y-60677487D01*
X-10434586Y-60848836D01*
X-10408667Y-61023568D01*
X-10400000Y-61199999D01*
X-10400000Y-61200001D01*
X-10408667Y-61376432D01*
X-10434586Y-61551164D01*
X-10477507Y-61722513D01*
X-10537017Y-61888831D01*
X-10612542Y-62048515D01*
X-10703355Y-62200027D01*
X-10808581Y-62341909D01*
X-10927208Y-62472793D01*
X-11058092Y-62591420D01*
X-11199974Y-62696646D01*
X-11351486Y-62787459D01*
X-11511170Y-62862984D01*
X-11677488Y-62922494D01*
X-11848837Y-62965415D01*
X-12023569Y-62991334D01*
X-12200000Y-63000001D01*
X-13000000Y-63000001D01*
X-13176431Y-62991334D01*
X-13351163Y-62965415D01*
X-13522512Y-62922494D01*
X-13688830Y-62862984D01*
X-13848514Y-62787459D01*
X-14000026Y-62696646D01*
X-14141908Y-62591420D01*
X-14272792Y-62472793D01*
X-14391419Y-62341909D01*
X-14496645Y-62200027D01*
X-14587458Y-62048515D01*
X-14662983Y-61888831D01*
X-14722493Y-61722513D01*
X-14765414Y-61551164D01*
X-14791333Y-61376432D01*
X-14800000Y-61200001D01*
X-14800000Y-61199999D01*
X-14791333Y-61023568D01*
X-14765414Y-60848836D01*
X-14722493Y-60677487D01*
X-14662983Y-60511169D01*
X-14587458Y-60351485D01*
X-14496645Y-60199973D01*
X-14391419Y-60058091D01*
X-14272792Y-59927207D01*
X-14141908Y-59808580D01*
X-14000026Y-59703354D01*
X-13848514Y-59612541D01*
X-13688830Y-59537016D01*
X-13522512Y-59477506D01*
X-13351163Y-59434585D01*
X-13176431Y-59408666D01*
X-13000000Y-59399999D01*
X-12200000Y-59399999D01*
X-12023569Y-59408666D01*
X-12023569Y-59408666D01*
G37*
D12*
X-12600000Y-61200000D03*
M02*
